G04*
G04 #@! TF.GenerationSoftware,Altium Limited,Altium Designer,23.3.1 (30)*
G04*
G04 Layer_Color=16711935*
%FSAX42Y42*%
%MOMM*%
G71*
G04*
G04 #@! TF.SameCoordinates,74D896C7-0FB9-4F26-AAB1-64D905586B64*
G04*
G04*
G04 #@! TF.FilePolarity,Negative*
G04*
G01*
G75*
%ADD17R,1.70X1.70*%
%ADD18C,1.70*%
%ADD19C,6.55*%
%ADD20C,1.47*%
%ADD21C,1.50*%
%ADD22C,0.80*%
D17*
X001285Y001419D02*
D03*
X000777Y001420D02*
D03*
D18*
X001031Y001419D02*
D03*
X001285Y001673D02*
D03*
X001031D02*
D03*
X001285Y001927D02*
D03*
X001031D02*
D03*
X001285Y002181D02*
D03*
X001031D02*
D03*
X001285Y002435D02*
D03*
X001031D02*
D03*
X001285Y002689D02*
D03*
X001031D02*
D03*
X001285Y002943D02*
D03*
X001031D02*
D03*
X001285Y003197D02*
D03*
X001031D02*
D03*
X001285Y003451D02*
D03*
X001031D02*
D03*
X001285Y003705D02*
D03*
X001031D02*
D03*
X001285Y003959D02*
D03*
X001031D02*
D03*
X001285Y004213D02*
D03*
X001031D02*
D03*
X001285Y004467D02*
D03*
X001031D02*
D03*
X001285Y004721D02*
D03*
X001031D02*
D03*
X001285Y004975D02*
D03*
X001031D02*
D03*
X001285Y005229D02*
D03*
X001031D02*
D03*
X001285Y005483D02*
D03*
X001031D02*
D03*
X001285Y005737D02*
D03*
X001031D02*
D03*
X001285Y005991D02*
D03*
X001031D02*
D03*
X001285Y006245D02*
D03*
X001031D02*
D03*
X001285Y006499D02*
D03*
X001031D02*
D03*
X001285Y006753D02*
D03*
X001031D02*
D03*
X001285Y007007D02*
D03*
X001031D02*
D03*
X001285Y007261D02*
D03*
X001031D02*
D03*
X001285Y007515D02*
D03*
X001031D02*
D03*
X001285Y007769D02*
D03*
X001031D02*
D03*
X000523Y001420D02*
D03*
X000777Y001674D02*
D03*
X000523D02*
D03*
X000777Y001928D02*
D03*
X000523D02*
D03*
X000777Y002182D02*
D03*
X000523D02*
D03*
X000777Y002436D02*
D03*
X000523D02*
D03*
X000777Y002690D02*
D03*
X000523D02*
D03*
X000777Y002944D02*
D03*
X000523D02*
D03*
X000777Y003198D02*
D03*
X000523D02*
D03*
X000777Y003452D02*
D03*
X000523D02*
D03*
X000777Y003706D02*
D03*
X000523D02*
D03*
X000777Y003960D02*
D03*
X000523D02*
D03*
X000777Y004214D02*
D03*
X000523D02*
D03*
X000777Y004468D02*
D03*
X000523D02*
D03*
X000777Y004722D02*
D03*
X000523D02*
D03*
X000777Y004976D02*
D03*
X000523D02*
D03*
X000777Y005230D02*
D03*
X000523D02*
D03*
X000777Y005484D02*
D03*
X000523D02*
D03*
X000777Y005738D02*
D03*
X000523D02*
D03*
X000777Y005992D02*
D03*
X000523D02*
D03*
X000777Y006246D02*
D03*
X000523D02*
D03*
X000777Y006500D02*
D03*
X000523D02*
D03*
X000777Y006754D02*
D03*
X000523D02*
D03*
X000777Y007008D02*
D03*
X000523D02*
D03*
X000777Y007262D02*
D03*
X000523D02*
D03*
X000777Y007516D02*
D03*
X000523D02*
D03*
X000777Y007770D02*
D03*
X000523D02*
D03*
X002640Y005215D02*
D03*
X003170Y005745D02*
D03*
X002640Y002215D02*
D03*
X003170Y002745D02*
D03*
X002440Y005415D02*
D03*
X002970Y005945D02*
D03*
X002970Y002945D02*
D03*
X002440Y002415D02*
D03*
D19*
X000523Y008271D02*
D03*
Y000906D02*
D03*
D20*
X002215Y004765D02*
D03*
X001595Y004415D02*
D03*
X002283Y004163D02*
D03*
X001665Y005115D02*
D03*
X002365Y007163D02*
D03*
X001715Y002065D02*
D03*
D21*
X001522Y008787D02*
D03*
X003187Y007063D02*
D03*
X002357Y000782D02*
D03*
X002379Y008273D02*
D03*
X003187Y004269D02*
D03*
X002738Y007914D02*
D03*
X003187Y002237D02*
D03*
X002200Y008453D02*
D03*
X002918Y007734D02*
D03*
X003187Y001983D02*
D03*
X002178Y000602D02*
D03*
X002020Y008632D02*
D03*
X003187Y007317D02*
D03*
X001268Y008787D02*
D03*
X001998Y000423D02*
D03*
X002559Y008093D02*
D03*
X003187Y003507D02*
D03*
X001527Y000290D02*
D03*
X003187Y004523D02*
D03*
Y001729D02*
D03*
X001818Y008786D02*
D03*
X003076Y001500D02*
D03*
X001781Y000290D02*
D03*
X003187Y004015D02*
D03*
Y003253D02*
D03*
X002537Y000962D02*
D03*
X001273Y000290D02*
D03*
X003187Y004777D02*
D03*
X002896Y001321D02*
D03*
X003187Y003761D02*
D03*
Y005285D02*
D03*
Y002491D02*
D03*
Y006047D02*
D03*
Y002999D02*
D03*
X003098Y007555D02*
D03*
X003187Y005031D02*
D03*
Y005539D02*
D03*
Y006809D02*
D03*
Y006555D02*
D03*
Y006301D02*
D03*
X002716Y001141D02*
D03*
D22*
X002115Y007163D02*
D03*
X001940D02*
D03*
X001770Y006778D02*
D03*
X001595D02*
D03*
X002115Y004163D02*
D03*
X001940D02*
D03*
X001770Y003825D02*
D03*
X001595D02*
D03*
X001839Y003292D02*
D03*
X001926Y003381D02*
D03*
X002188Y003646D02*
D03*
X002275Y003735D02*
D03*
X002275Y006735D02*
D03*
X002188Y006646D02*
D03*
X001926Y006381D02*
D03*
X001839Y006292D02*
D03*
M02*
