M48
;Layer_Color=9474304
;FILE_FORMAT=4:2
METRIC
;TYPE=PLATED
T1F00S00C0.30
T2F00S00C0.76
T3F00S00C0.90
T4F00S00C1.00
T5F00S00C3.18
%
T01
X001839Y003292
X001926Y003381
X002188Y003646
X002275Y003735
X001770Y003825
X001595
X001940Y004163
X002115
X001839Y006292
X001926Y006381
X002188Y006646
X002275Y006735
X001770Y006778
X001595
X001940Y007163
X002115
T02
X001715Y002065
X001595Y004415
X001665Y005115
X002283Y004163
X002365Y007163
T03
X000523Y001420
X000777
Y001674
X000523
Y001928
X000777
Y002182
X000523
Y002436
X000777
Y002690
X000523
Y002944
X000777
Y003198
X000523
Y003452
X000777
Y003706
X000523
Y003960
X000777
X001031Y003959
Y003705
Y003451
Y003197
Y002943
Y002689
Y002435
Y002181
Y001927
Y001673
Y001419
X001285
Y001673
Y001927
Y002181
Y002435
Y002689
Y002943
Y003197
Y003451
Y003705
Y003959
X002970Y002945
X003170Y002745
X002440Y002415
X002640Y002215
X002640Y005215
X002440Y005415
X003170Y005745
X002970Y005945
X001285Y005991
Y005737
Y005483
Y005229
Y004975
Y004721
Y004467
Y004213
X001031
Y004467
Y004721
Y004975
Y005229
Y005483
Y005737
Y005991
Y006245
X001285
Y006499
X001031
Y006753
X001285
Y007007
X001031
Y007261
X001285
Y007515
X001031
Y007769
X001285
X000777Y007770
Y007516
Y007262
Y007008
Y006754
Y006500
Y006246
Y005992
Y005738
Y005484
Y005230
Y004976
Y004722
Y004468
Y004214
X000523
Y004468
Y004722
Y004976
Y005230
Y005484
Y005738
Y005992
Y006246
Y006500
Y006754
Y007008
Y007262
Y007516
Y007770
T04
X001273Y000290
X001527
X001781
X001998Y000423
X002178Y000602
X002357Y000782
X002537Y000962
X002716Y001141
X002896Y001321
X003076Y001500
X003187Y001729
Y001983
Y002237
Y002491
Y002999
Y003253
Y003507
Y003761
Y004015
Y004269
Y004523
Y004777
Y005031
Y005285
Y005539
Y006047
Y006301
Y006555
Y006809
Y007063
Y007317
X003098Y007555
X002918Y007734
X002738Y007914
X002559Y008093
X002379Y008273
X002200Y008453
X002020Y008632
X001818Y008786
X001522Y008787
X001268
T05
X000523Y000906
Y008271
M30
