G04*
G04 #@! TF.GenerationSoftware,Altium Limited,Altium Designer,23.3.1 (30)*
G04*
G04 Layer_Color=439754*
%FSAX42Y42*%
%MOMM*%
G71*
G04*
G04 #@! TF.SameCoordinates,5ADB3FF5-DAAB-47E5-B02F-B6147A610591*
G04*
G04*
G04 #@! TF.FilePolarity,Positive*
G04*
G01*
G75*
%ADD10C,0.30*%
%ADD11C,0.15*%
%ADD12C,0.20*%
G36*
X001744Y001554D02*
X001747Y001554D01*
X001751Y001553D01*
X001756Y001552D01*
X001762Y001549D01*
X001767Y001546D01*
X001772Y001542D01*
X001772Y001542D01*
X001773Y001541D01*
X001775Y001539D01*
X001777Y001537D01*
X001778Y001534D01*
X001795Y001505D01*
X001795Y001505D01*
X001796Y001504D01*
X001796Y001502D01*
X001797Y001500D01*
X001799Y001497D01*
X001800Y001494D01*
X001802Y001486D01*
X001804Y001476D01*
X001806Y001466D01*
X001805Y001460D01*
X001805Y001455D01*
X001803Y001449D01*
X001802Y001444D01*
X001801Y001443D01*
X001801Y001442D01*
X001799Y001438D01*
X001797Y001435D01*
X001794Y001430D01*
X001791Y001426D01*
X001787Y001420D01*
X001783Y001415D01*
X001782Y001415D01*
X001780Y001414D01*
X001778Y001412D01*
X001774Y001409D01*
X001770Y001407D01*
X001764Y001405D01*
X001758Y001403D01*
X001752Y001402D01*
X001751D01*
X001749Y001403D01*
X001745Y001403D01*
X001741Y001404D01*
X001737Y001405D01*
X001731Y001408D01*
X001726Y001411D01*
X001721Y001415D01*
X001721Y001415D01*
X001720Y001416D01*
X001720Y001417D01*
X001719Y001418D01*
X001716Y001421D01*
X001714Y001425D01*
X001698Y001453D01*
X001697Y001453D01*
X001697Y001455D01*
X001696Y001456D01*
X001695Y001459D01*
X001694Y001462D01*
X001692Y001465D01*
X001690Y001473D01*
X001688Y001483D01*
X001687Y001493D01*
Y001499D01*
X001688Y001505D01*
X001689Y001510D01*
X001691Y001516D01*
X001692Y001517D01*
X001692Y001518D01*
X001694Y001521D01*
X001696Y001525D01*
X001698Y001529D01*
X001701Y001534D01*
X001705Y001538D01*
X001709Y001543D01*
X001711Y001545D01*
X001714Y001547D01*
X001718Y001549D01*
X001722Y001551D01*
X001728Y001553D01*
X001734Y001554D01*
X001740Y001555D01*
X001741D01*
X001744Y001554D01*
D02*
G37*
G36*
X001839Y001418D02*
X001843Y001417D01*
X001848Y001413D01*
X001848Y001413D01*
X001849Y001412D01*
X001849Y001411D01*
X001850Y001410D01*
X001851Y001407D01*
X001852Y001404D01*
Y001402D01*
Y001401D01*
X001851Y001398D01*
X001850Y001394D01*
X001849Y001393D01*
X001848Y001391D01*
X001788Y001332D01*
X001786Y001330D01*
X001783Y001329D01*
X001780Y001328D01*
X001778D01*
X001778Y001328D01*
X001777Y001328D01*
X001774Y001329D01*
X001771Y001330D01*
X001769Y001331D01*
X001767Y001333D01*
X001767Y001333D01*
X001766Y001334D01*
X001765Y001336D01*
X001763Y001339D01*
X001763Y001341D01*
Y001344D01*
Y001344D01*
Y001345D01*
X001763Y001347D01*
X001764Y001351D01*
X001765Y001353D01*
X001826Y001414D01*
X001827Y001415D01*
X001829Y001416D01*
X001832Y001417D01*
X001836Y001418D01*
X001839Y001418D01*
D02*
G37*
G36*
X001637Y001484D02*
X001641Y001482D01*
X001645Y001479D01*
X001646Y001479D01*
X001646Y001478D01*
X001647Y001476D01*
X001648Y001475D01*
X001795Y001221D01*
X001795Y001220D01*
X001795Y001219D01*
X001796Y001217D01*
X001797Y001215D01*
Y001212D01*
X001796Y001208D01*
X001795Y001205D01*
X001792Y001202D01*
X001791Y001200D01*
X001789Y001199D01*
X001786Y001198D01*
X001784Y001197D01*
X001780Y001197D01*
X001777Y001198D01*
X001773Y001199D01*
X001574Y001319D01*
X001691Y001117D01*
X001691Y001116D01*
X001691Y001115D01*
X001692Y001113D01*
X001693Y001111D01*
Y001108D01*
X001692Y001104D01*
X001691Y001101D01*
X001688Y001098D01*
X001688Y001097D01*
X001685Y001096D01*
X001682Y001094D01*
X001680Y001093D01*
X001677Y001093D01*
X001677Y001093D01*
X001676Y001093D01*
X001674Y001094D01*
X001670Y001095D01*
X001668Y001096D01*
X001666Y001097D01*
X001666Y001098D01*
X001666Y001098D01*
X001664Y001099D01*
X001663Y001101D01*
X001517Y001356D01*
X001516Y001356D01*
X001516Y001358D01*
X001515Y001359D01*
X001515Y001362D01*
X001514Y001365D01*
X001515Y001369D01*
X001516Y001372D01*
X001519Y001375D01*
X001520Y001376D01*
X001522Y001377D01*
X001525Y001378D01*
X001527Y001379D01*
X001530Y001379D01*
X001534Y001379D01*
X001538Y001377D01*
X001737Y001257D01*
X001621Y001460D01*
X001620Y001460D01*
X001620Y001462D01*
X001619Y001463D01*
X001618Y001466D01*
Y001469D01*
X001619Y001473D01*
X001620Y001476D01*
X001623Y001479D01*
X001623Y001480D01*
X001625Y001480D01*
X001627Y001482D01*
X001630Y001483D01*
X001633Y001484D01*
X001637Y001484D01*
D02*
G37*
G36*
X002803Y001800D02*
X002804Y001799D01*
X002806Y001798D01*
X002872Y001731D01*
X002873Y001731D01*
X002873Y001730D01*
X002873Y001730D01*
X002874Y001729D01*
X002874Y001728D01*
X002874Y001726D01*
X002873Y001725D01*
X002872Y001724D01*
X002872Y001724D01*
X002872Y001723D01*
X002871Y001723D01*
X002870Y001722D01*
X002869Y001722D01*
X002868Y001722D01*
X002866Y001723D01*
X002865Y001724D01*
X002832Y001757D01*
X002802Y001727D01*
X002835Y001694D01*
X002836Y001694D01*
X002836Y001693D01*
X002836Y001693D01*
X002837Y001692D01*
X002837Y001691D01*
X002837Y001689D01*
X002836Y001688D01*
X002835Y001687D01*
X002835Y001686D01*
X002835Y001686D01*
X002834Y001686D01*
X002833Y001685D01*
X002832Y001685D01*
X002831Y001685D01*
X002829Y001685D01*
X002828Y001686D01*
X002761Y001753D01*
X002761Y001754D01*
X002760Y001754D01*
X002760Y001755D01*
X002760Y001756D01*
X002759Y001757D01*
X002759Y001758D01*
X002760Y001759D01*
X002761Y001761D01*
X002761Y001761D01*
X002762Y001761D01*
X002762Y001762D01*
X002763Y001762D01*
X002764Y001763D01*
X002766Y001762D01*
X002767Y001762D01*
X002768Y001761D01*
X002794Y001735D01*
X002824Y001765D01*
X002798Y001791D01*
X002798Y001791D01*
X002798Y001791D01*
X002797Y001792D01*
X002797Y001793D01*
X002796Y001794D01*
X002796Y001795D01*
X002797Y001797D01*
X002798Y001798D01*
X002798Y001798D01*
X002799Y001799D01*
X002799Y001799D01*
X002800Y001799D01*
X002801Y001800D01*
X002803Y001800D01*
D02*
G37*
G36*
X002743Y001740D02*
X002745Y001740D01*
X002746Y001739D01*
X002813Y001672D01*
X002813Y001671D01*
X002814Y001671D01*
X002814Y001670D01*
X002814Y001669D01*
X002815Y001668D01*
X002815Y001667D01*
X002814Y001666D01*
X002813Y001664D01*
X002813Y001664D01*
X002812Y001664D01*
X002812Y001663D01*
X002811Y001663D01*
X002810Y001663D01*
X002808Y001663D01*
X002807Y001663D01*
X002806Y001664D01*
X002742Y001727D01*
X002713Y001698D01*
X002776Y001634D01*
X002776Y001634D01*
X002776Y001634D01*
X002777Y001633D01*
X002777Y001632D01*
X002777Y001631D01*
X002777Y001630D01*
X002777Y001629D01*
X002776Y001627D01*
X002776Y001627D01*
X002775Y001627D01*
X002774Y001626D01*
X002773Y001626D01*
X002772Y001625D01*
X002771Y001626D01*
X002770Y001626D01*
X002768Y001627D01*
X002701Y001694D01*
X002701Y001694D01*
X002701Y001695D01*
X002700Y001695D01*
X002700Y001696D01*
X002700Y001697D01*
X002700Y001699D01*
X002700Y001700D01*
X002701Y001701D01*
X002739Y001739D01*
X002739Y001739D01*
X002740Y001740D01*
X002741Y001740D01*
X002742Y001740D01*
X002743Y001740D01*
D02*
G37*
G36*
X002732Y001632D02*
X002733Y001632D01*
X002735Y001631D01*
X002735Y001631D01*
X002735Y001630D01*
X002736Y001629D01*
X002736Y001628D01*
X002736Y001627D01*
X002736Y001626D01*
X002736Y001625D01*
X002735Y001623D01*
X002705Y001593D01*
X002704Y001593D01*
X002704Y001593D01*
X002703Y001592D01*
X002702Y001592D01*
X002700Y001592D01*
X002699Y001593D01*
X002698Y001594D01*
X002698Y001594D01*
X002697Y001594D01*
X002697Y001595D01*
X002696Y001596D01*
X002696Y001597D01*
X002696Y001598D01*
X002697Y001600D01*
X002698Y001601D01*
X002728Y001631D01*
X002728Y001631D01*
X002729Y001632D01*
X002730Y001632D01*
X002731Y001632D01*
X002732Y001632D01*
D02*
G37*
G36*
X002632Y001629D02*
X002633Y001628D01*
X002634Y001627D01*
X002635Y001627D01*
X002635Y001627D01*
X002635Y001626D01*
X002636Y001625D01*
X002636Y001623D01*
X002638Y001579D01*
X002699Y001561D01*
X002699Y001561D01*
X002700Y001561D01*
X002701Y001561D01*
X002701Y001560D01*
X002702Y001560D01*
X002702Y001560D01*
X002702Y001559D01*
X002703Y001558D01*
X002703Y001557D01*
X002703Y001556D01*
Y001556D01*
X002703Y001555D01*
X002702Y001554D01*
X002702Y001553D01*
X002701Y001553D01*
X002701Y001552D01*
X002700Y001552D01*
X002700Y001552D01*
X002699Y001551D01*
X002698Y001551D01*
X002697D01*
X002696Y001551D01*
X002639Y001568D01*
X002640Y001548D01*
X002664Y001523D01*
X002665Y001523D01*
X002665Y001522D01*
X002665Y001522D01*
X002666Y001521D01*
X002666Y001520D01*
X002666Y001518D01*
X002665Y001517D01*
X002664Y001516D01*
X002664Y001515D01*
X002664Y001515D01*
X002663Y001515D01*
X002662Y001514D01*
X002661Y001514D01*
X002660Y001514D01*
X002658Y001515D01*
X002657Y001516D01*
X002590Y001583D01*
X002590Y001583D01*
X002589Y001583D01*
X002589Y001584D01*
X002589Y001585D01*
X002588Y001586D01*
X002588Y001587D01*
X002589Y001588D01*
X002590Y001590D01*
X002590Y001590D01*
X002591Y001590D01*
X002591Y001591D01*
X002592Y001591D01*
X002593Y001592D01*
X002595Y001592D01*
X002596Y001591D01*
X002597Y001590D01*
X002629Y001559D01*
X002626Y001623D01*
Y001623D01*
Y001623D01*
X002626Y001624D01*
X002626Y001626D01*
X002627Y001626D01*
X002627Y001627D01*
X002627Y001627D01*
X002628Y001628D01*
X002628Y001628D01*
X002629Y001628D01*
X002630Y001629D01*
X002632Y001629D01*
D02*
G37*
G36*
X002573Y001558D02*
X002574D01*
X002575Y001558D01*
X002576Y001558D01*
X002578Y001557D01*
X002579Y001557D01*
X002581Y001557D01*
X002583Y001556D01*
X002584Y001555D01*
X002586Y001554D01*
X002588Y001553D01*
X002590Y001552D01*
X002592Y001551D01*
X002594Y001549D01*
X002594Y001549D01*
X002594Y001549D01*
X002595Y001548D01*
X002595Y001547D01*
X002596Y001546D01*
X002597Y001545D01*
X002598Y001544D01*
X002599Y001543D01*
X002600Y001539D01*
X002601Y001537D01*
X002602Y001535D01*
X002603Y001533D01*
X002603Y001531D01*
X002604Y001529D01*
X002604Y001527D01*
Y001527D01*
Y001526D01*
Y001526D01*
X002604Y001525D01*
X002603Y001523D01*
X002603Y001522D01*
X002603Y001521D01*
X002602Y001519D01*
X002602Y001518D01*
X002601Y001516D01*
X002600Y001514D01*
X002599Y001512D01*
X002598Y001510D01*
X002597Y001508D01*
X002595Y001506D01*
X002594Y001504D01*
X002579Y001490D01*
X002605Y001464D01*
X002605Y001463D01*
X002605Y001463D01*
X002606Y001462D01*
X002606Y001461D01*
X002607Y001460D01*
X002606Y001459D01*
X002606Y001458D01*
X002605Y001456D01*
X002605Y001456D01*
X002604Y001456D01*
X002604Y001455D01*
X002603Y001455D01*
X002601Y001455D01*
X002600Y001455D01*
X002599Y001455D01*
X002598Y001456D01*
X002531Y001523D01*
X002530Y001523D01*
X002530Y001524D01*
X002530Y001524D01*
X002529Y001525D01*
X002529Y001527D01*
X002529Y001528D01*
X002529Y001529D01*
X002530Y001530D01*
X002550Y001550D01*
X002551Y001551D01*
X002552Y001551D01*
X002553Y001552D01*
X002554Y001553D01*
X002555Y001554D01*
X002559Y001555D01*
X002560Y001556D01*
X002562Y001557D01*
X002565Y001557D01*
X002567Y001558D01*
X002569Y001558D01*
X002571Y001558D01*
X002572D01*
X002573Y001558D01*
D02*
G37*
G36*
X002506Y001502D02*
X002507Y001502D01*
X002508Y001501D01*
X002508Y001501D01*
X002509Y001500D01*
X002509Y001499D01*
X002510Y001498D01*
X002510Y001497D01*
X002510Y001496D01*
X002509Y001495D01*
X002508Y001493D01*
X002482Y001467D01*
X002505Y001445D01*
X002520Y001461D01*
X002521Y001461D01*
X002522Y001462D01*
X002523Y001463D01*
X002524Y001464D01*
X002526Y001465D01*
X002529Y001466D01*
X002531Y001467D01*
X002533Y001468D01*
X002535Y001468D01*
X002537Y001469D01*
X002539Y001469D01*
X002542Y001469D01*
X002542D01*
X002543Y001469D01*
X002544D01*
X002545Y001469D01*
X002546Y001469D01*
X002548Y001468D01*
X002549Y001468D01*
X002551Y001468D01*
X002553Y001467D01*
X002555Y001466D01*
X002557Y001465D01*
X002559Y001464D01*
X002560Y001463D01*
X002562Y001461D01*
X002564Y001460D01*
X002564Y001460D01*
X002564Y001460D01*
X002565Y001459D01*
X002566Y001458D01*
X002566Y001457D01*
X002567Y001456D01*
X002568Y001455D01*
X002569Y001454D01*
X002570Y001450D01*
X002571Y001449D01*
X002572Y001447D01*
X002572Y001445D01*
X002573Y001442D01*
X002573Y001440D01*
X002573Y001438D01*
Y001437D01*
Y001437D01*
X002573Y001436D01*
X002573Y001435D01*
X002573Y001434D01*
X002573Y001433D01*
X002573Y001431D01*
X002572Y001430D01*
X002572Y001428D01*
X002571Y001426D01*
X002569Y001423D01*
X002568Y001421D01*
X002567Y001419D01*
X002566Y001417D01*
X002564Y001415D01*
X002545Y001396D01*
X002545Y001396D01*
X002544Y001396D01*
X002543Y001395D01*
X002542Y001395D01*
X002541Y001395D01*
X002539Y001396D01*
X002538Y001397D01*
X002471Y001464D01*
X002471Y001464D01*
X002471Y001464D01*
X002470Y001465D01*
X002470Y001466D01*
X002469Y001467D01*
X002470Y001468D01*
X002470Y001470D01*
X002471Y001471D01*
X002501Y001501D01*
X002502Y001501D01*
X002502Y001502D01*
X002503Y001502D01*
X002504Y001502D01*
X002506Y001502D01*
D02*
G37*
G36*
X002431Y001383D02*
X002432Y001383D01*
X002434Y001382D01*
X002479Y001337D01*
X002479Y001337D01*
X002479Y001336D01*
X002480Y001336D01*
X002480Y001335D01*
X002480Y001334D01*
X002480Y001333D01*
X002480Y001331D01*
X002478Y001330D01*
X002478Y001330D01*
X002478Y001329D01*
X002477Y001329D01*
X002476Y001328D01*
X002475Y001328D01*
X002474Y001328D01*
X002472Y001329D01*
X002471Y001330D01*
X002452Y001348D01*
X002445Y001341D01*
X002450Y001304D01*
Y001304D01*
Y001304D01*
Y001304D01*
X002450Y001303D01*
X002450Y001301D01*
X002449Y001301D01*
X002449Y001300D01*
X002448Y001300D01*
X002448Y001299D01*
X002447Y001299D01*
X002446Y001299D01*
X002445Y001298D01*
X002444Y001299D01*
X002443Y001299D01*
X002441Y001300D01*
X002441Y001300D01*
X002441Y001300D01*
X002441Y001301D01*
X002440Y001302D01*
X002440Y001303D01*
X002436Y001332D01*
X002436Y001332D01*
X002435Y001331D01*
X002435Y001331D01*
X002433Y001330D01*
X002432Y001329D01*
X002430Y001329D01*
X002427Y001328D01*
X002424Y001327D01*
X002422Y001327D01*
X002421Y001327D01*
X002421Y001327D01*
X002420Y001327D01*
X002419Y001328D01*
X002417Y001328D01*
X002415Y001329D01*
X002412Y001330D01*
X002410Y001332D01*
X002408Y001334D01*
X002408Y001334D01*
X002408Y001334D01*
X002407Y001334D01*
X002407Y001335D01*
X002406Y001335D01*
X002406Y001336D01*
X002405Y001338D01*
X002404Y001340D01*
X002402Y001342D01*
X002402Y001345D01*
X002401Y001347D01*
Y001348D01*
Y001349D01*
Y001349D01*
X002402Y001350D01*
X002402Y001351D01*
X002402Y001353D01*
X002403Y001356D01*
X002404Y001358D01*
X002406Y001361D01*
X002407Y001362D01*
X002427Y001382D01*
X002427Y001382D01*
X002428Y001383D01*
X002429Y001383D01*
X002430Y001384D01*
X002431Y001383D01*
D02*
G37*
G36*
X002187Y001353D02*
X002190Y001353D01*
X002193Y001352D01*
X002196Y001351D01*
X002199Y001349D01*
X002199Y001349D01*
X002200Y001349D01*
X002201Y001349D01*
X002202Y001348D01*
X002203Y001347D01*
X002204Y001347D01*
X002206Y001346D01*
X002207Y001344D01*
X002209Y001343D01*
X002211Y001342D01*
X002214Y001340D01*
X002216Y001338D01*
X002218Y001336D01*
X002221Y001334D01*
X002223Y001332D01*
X002226Y001330D01*
X002226Y001329D01*
X002226Y001329D01*
X002227Y001328D01*
X002228Y001327D01*
X002229Y001326D01*
X002230Y001325D01*
X002232Y001323D01*
X002233Y001321D01*
X002235Y001319D01*
X002236Y001317D01*
X002240Y001313D01*
X002243Y001308D01*
X002245Y001303D01*
X002245Y001303D01*
X002246Y001302D01*
X002246Y001302D01*
X002247Y001300D01*
X002247Y001299D01*
X002248Y001297D01*
X002248Y001295D01*
X002249Y001292D01*
X002249Y001290D01*
X002249Y001288D01*
X002249Y001285D01*
X002249Y001283D01*
X002248Y001280D01*
X002247Y001278D01*
X002246Y001276D01*
X002244Y001274D01*
X002244Y001273D01*
X002243Y001273D01*
X002242Y001272D01*
X002241Y001272D01*
X002240Y001271D01*
X002238Y001270D01*
X002236Y001270D01*
X002235Y001269D01*
X002232Y001269D01*
X002230Y001269D01*
X002227Y001269D01*
X002225Y001269D01*
X002221Y001270D01*
X002218Y001271D01*
X002215Y001273D01*
X002215Y001273D01*
X002214Y001273D01*
X002213Y001273D01*
X002213Y001274D01*
X002211Y001275D01*
X002210Y001275D01*
X002208Y001276D01*
X002207Y001278D01*
X002205Y001279D01*
X002203Y001280D01*
X002200Y001282D01*
X002198Y001284D01*
X002196Y001286D01*
X002193Y001288D01*
X002191Y001290D01*
X002188Y001292D01*
X002188Y001293D01*
X002188Y001293D01*
X002187Y001294D01*
X002186Y001295D01*
X002185Y001296D01*
X002184Y001297D01*
X002182Y001299D01*
X002181Y001301D01*
X002179Y001303D01*
X002178Y001305D01*
X002175Y001309D01*
X002171Y001314D01*
X002169Y001319D01*
X002169Y001319D01*
X002168Y001319D01*
X002168Y001320D01*
X002167Y001322D01*
X002167Y001323D01*
X002166Y001325D01*
X002166Y001327D01*
X002165Y001330D01*
X002165Y001332D01*
X002165Y001334D01*
Y001337D01*
X002165Y001339D01*
X002166Y001342D01*
X002167Y001344D01*
X002168Y001346D01*
X002170Y001348D01*
X002170Y001349D01*
X002171Y001349D01*
X002172Y001350D01*
X002173Y001350D01*
X002174Y001351D01*
X002176Y001352D01*
X002177Y001352D01*
X002179Y001353D01*
X002182Y001353D01*
X002184Y001353D01*
X002187Y001353D01*
D02*
G37*
G36*
X002379Y001331D02*
X002380Y001331D01*
X002382Y001330D01*
X002426Y001285D01*
X002427Y001285D01*
X002427Y001284D01*
X002427Y001284D01*
X002428Y001283D01*
X002428Y001282D01*
X002428Y001280D01*
X002427Y001279D01*
X002426Y001278D01*
X002407Y001258D01*
X002407Y001258D01*
X002406Y001258D01*
X002405Y001257D01*
X002404Y001256D01*
X002401Y001255D01*
X002399Y001254D01*
X002396Y001253D01*
X002395Y001253D01*
X002393D01*
X002393Y001253D01*
X002393Y001253D01*
X002391Y001253D01*
X002390Y001253D01*
X002388Y001254D01*
X002386Y001254D01*
X002383Y001255D01*
X002381Y001257D01*
X002379Y001258D01*
X002378Y001259D01*
X002345Y001293D01*
X002344Y001293D01*
X002344Y001293D01*
X002344Y001294D01*
X002343Y001295D01*
X002343Y001296D01*
X002343Y001297D01*
X002344Y001299D01*
X002345Y001300D01*
X002345Y001300D01*
X002345Y001301D01*
X002346Y001301D01*
X002347Y001301D01*
X002348Y001302D01*
X002349Y001302D01*
X002351Y001301D01*
X002352Y001300D01*
X002386Y001267D01*
X002386Y001266D01*
X002386Y001266D01*
X002387Y001266D01*
X002388Y001265D01*
X002389Y001264D01*
X002390Y001264D01*
X002391Y001264D01*
X002393Y001263D01*
X002393D01*
X002394Y001264D01*
X002395Y001264D01*
X002396Y001264D01*
X002397Y001264D01*
X002398Y001265D01*
X002399Y001266D01*
X002400Y001267D01*
X002415Y001281D01*
X002374Y001322D01*
X002374Y001323D01*
X002374Y001323D01*
X002373Y001324D01*
X002373Y001325D01*
X002373Y001326D01*
X002373Y001327D01*
X002373Y001328D01*
X002374Y001330D01*
X002375Y001330D01*
X002375Y001330D01*
X002376Y001331D01*
X002377Y001331D01*
X002378Y001331D01*
X002379Y001331D01*
D02*
G37*
G36*
X002327Y001279D02*
X002328Y001279D01*
X002330Y001278D01*
X002374Y001233D01*
X002375Y001233D01*
X002375Y001232D01*
X002375Y001232D01*
X002376Y001231D01*
X002376Y001230D01*
X002376Y001228D01*
X002375Y001227D01*
X002374Y001226D01*
X002374Y001225D01*
X002374Y001225D01*
X002373Y001225D01*
X002372Y001224D01*
X002371Y001224D01*
X002370Y001224D01*
X002368Y001225D01*
X002367Y001226D01*
X002348Y001244D01*
X002326Y001222D01*
X002345Y001203D01*
X002345Y001203D01*
X002345Y001203D01*
X002346Y001202D01*
X002346Y001201D01*
X002346Y001200D01*
X002346Y001199D01*
X002346Y001197D01*
X002345Y001196D01*
X002344Y001196D01*
X002344Y001195D01*
X002343Y001195D01*
X002342Y001195D01*
X002341Y001194D01*
X002340Y001194D01*
X002339Y001195D01*
X002337Y001196D01*
X002293Y001241D01*
X002292Y001241D01*
X002292Y001241D01*
X002292Y001242D01*
X002291Y001243D01*
X002291Y001244D01*
X002291Y001245D01*
X002291Y001247D01*
X002293Y001248D01*
X002293Y001248D01*
X002293Y001248D01*
X002294Y001249D01*
X002295Y001249D01*
X002296Y001250D01*
X002297Y001250D01*
X002299Y001249D01*
X002300Y001248D01*
X002319Y001229D01*
X002341Y001252D01*
X002322Y001270D01*
X002322Y001270D01*
X002322Y001271D01*
X002321Y001272D01*
X002321Y001273D01*
X002321Y001274D01*
X002321Y001275D01*
X002321Y001276D01*
X002322Y001278D01*
X002322Y001278D01*
X002323Y001278D01*
X002324Y001279D01*
X002325Y001279D01*
X002326Y001279D01*
X002327Y001279D01*
D02*
G37*
G36*
X002134Y001309D02*
X002135Y001308D01*
X002136Y001307D01*
X002137Y001307D01*
X002137Y001307D01*
X002137Y001306D01*
X002138Y001305D01*
X002138Y001304D01*
X002138Y001303D01*
X002137Y001301D01*
X002136Y001300D01*
X002114Y001278D01*
X002136Y001255D01*
X002148Y001267D01*
X002149Y001268D01*
X002150Y001268D01*
X002150Y001269D01*
X002153Y001270D01*
X002155Y001272D01*
X002159Y001273D01*
X002160Y001273D01*
X002162Y001274D01*
X002164Y001274D01*
X002166Y001274D01*
X002166D01*
X002167Y001274D01*
X002168D01*
X002169Y001274D01*
X002170Y001274D01*
X002171Y001273D01*
X002173Y001273D01*
X002175Y001272D01*
X002179Y001271D01*
X002182Y001269D01*
X002183Y001268D01*
X002185Y001266D01*
X002192Y001259D01*
X002192Y001259D01*
X002192Y001259D01*
X002193Y001258D01*
X002193Y001258D01*
X002194Y001257D01*
X002195Y001256D01*
X002196Y001254D01*
X002197Y001251D01*
X002199Y001248D01*
X002199Y001246D01*
X002200Y001244D01*
X002200Y001242D01*
X002200Y001240D01*
Y001240D01*
X002200Y001240D01*
Y001239D01*
Y001238D01*
X002200Y001238D01*
X002199Y001236D01*
X002199Y001235D01*
X002199Y001234D01*
X002198Y001231D01*
X002196Y001228D01*
X002195Y001225D01*
X002193Y001223D01*
X002192Y001222D01*
X002177Y001207D01*
X002176Y001206D01*
X002176Y001206D01*
X002175Y001206D01*
X002174Y001205D01*
X002173Y001205D01*
X002171Y001206D01*
X002170Y001207D01*
X002170Y001207D01*
X002169Y001208D01*
X002169Y001208D01*
X002168Y001209D01*
X002168Y001210D01*
X002168Y001212D01*
X002169Y001213D01*
X002170Y001214D01*
X002185Y001229D01*
X002185Y001230D01*
X002186Y001231D01*
X002187Y001232D01*
X002188Y001234D01*
X002189Y001236D01*
X002189Y001238D01*
X002189Y001240D01*
X002189Y001241D01*
Y001241D01*
X002189Y001243D01*
X002189Y001244D01*
X002188Y001246D01*
X002187Y001248D01*
X002186Y001250D01*
X002185Y001251D01*
X002177Y001259D01*
X002177Y001259D01*
X002177Y001259D01*
X002176Y001260D01*
X002175Y001260D01*
X002174Y001261D01*
X002173Y001262D01*
X002171Y001263D01*
X002168Y001263D01*
X002166Y001263D01*
X002166D01*
X002165Y001263D01*
X002164Y001263D01*
X002162Y001263D01*
X002160Y001262D01*
X002159Y001262D01*
X002157Y001261D01*
X002155Y001259D01*
X002140Y001244D01*
X002139Y001244D01*
X002139Y001243D01*
X002138Y001243D01*
X002137Y001242D01*
X002135Y001243D01*
X002134Y001243D01*
X002133Y001244D01*
X002103Y001274D01*
X002103Y001274D01*
X002102Y001275D01*
X002102Y001275D01*
X002102Y001276D01*
X002101Y001277D01*
X002101Y001279D01*
X002102Y001280D01*
X002103Y001281D01*
X002129Y001307D01*
X002130Y001308D01*
X002130Y001308D01*
X002131Y001309D01*
X002132Y001309D01*
X002134Y001309D01*
D02*
G37*
G36*
X002082Y001257D02*
X002083Y001256D01*
X002084Y001255D01*
X002084Y001255D01*
X002085Y001255D01*
X002085Y001254D01*
X002086Y001253D01*
X002086Y001252D01*
X002086Y001251D01*
X002085Y001249D01*
X002084Y001248D01*
X002062Y001226D01*
X002084Y001203D01*
X002096Y001215D01*
X002097Y001216D01*
X002098Y001216D01*
X002098Y001217D01*
X002101Y001218D01*
X002103Y001220D01*
X002107Y001221D01*
X002108Y001221D01*
X002110Y001222D01*
X002112Y001222D01*
X002114Y001222D01*
X002114D01*
X002114Y001222D01*
X002116D01*
X002117Y001222D01*
X002118Y001222D01*
X002119Y001221D01*
X002120Y001221D01*
X002123Y001220D01*
X002126Y001219D01*
X002130Y001217D01*
X002131Y001216D01*
X002133Y001214D01*
X002140Y001207D01*
X002140Y001207D01*
X002140Y001207D01*
X002141Y001206D01*
X002141Y001206D01*
X002142Y001205D01*
X002143Y001204D01*
X002144Y001202D01*
X002145Y001199D01*
X002147Y001196D01*
X002147Y001194D01*
X002147Y001192D01*
X002148Y001190D01*
X002148Y001188D01*
Y001188D01*
X002148Y001188D01*
Y001187D01*
Y001186D01*
X002148Y001185D01*
X002147Y001184D01*
X002147Y001183D01*
X002147Y001182D01*
X002146Y001179D01*
X002144Y001176D01*
X002143Y001173D01*
X002141Y001171D01*
X002140Y001170D01*
X002125Y001155D01*
X002124Y001154D01*
X002124Y001154D01*
X002123Y001154D01*
X002122Y001153D01*
X002120Y001153D01*
X002119Y001154D01*
X002118Y001155D01*
X002118Y001155D01*
X002117Y001156D01*
X002117Y001156D01*
X002116Y001157D01*
X002116Y001158D01*
X002116Y001160D01*
X002117Y001161D01*
X002118Y001162D01*
X002133Y001177D01*
X002133Y001178D01*
X002134Y001179D01*
X002135Y001180D01*
X002136Y001182D01*
X002136Y001184D01*
X002137Y001186D01*
X002137Y001188D01*
X002137Y001189D01*
Y001189D01*
X002137Y001191D01*
X002137Y001192D01*
X002136Y001194D01*
X002135Y001196D01*
X002134Y001198D01*
X002133Y001199D01*
X002125Y001207D01*
X002125Y001207D01*
X002125Y001207D01*
X002124Y001208D01*
X002123Y001208D01*
X002122Y001209D01*
X002120Y001210D01*
X002119Y001211D01*
X002116Y001211D01*
X002114Y001211D01*
X002114D01*
X002113Y001211D01*
X002112Y001211D01*
X002110Y001211D01*
X002108Y001210D01*
X002106Y001210D01*
X002105Y001208D01*
X002103Y001207D01*
X002088Y001192D01*
X002087Y001191D01*
X002087Y001191D01*
X002086Y001191D01*
X002085Y001190D01*
X002083Y001190D01*
X002082Y001191D01*
X002081Y001192D01*
X002051Y001222D01*
X002051Y001222D01*
X002050Y001222D01*
X002050Y001223D01*
X002049Y001224D01*
X002049Y001225D01*
X002049Y001226D01*
X002050Y001228D01*
X002051Y001229D01*
X002077Y001255D01*
X002078Y001256D01*
X002078Y001256D01*
X002079Y001257D01*
X002080Y001257D01*
X002082Y001257D01*
D02*
G37*
G36*
X002268Y001220D02*
X002269Y001219D01*
X002270Y001218D01*
X002308Y001181D01*
X002308Y001181D01*
X002308Y001181D01*
X002309Y001180D01*
X002310Y001180D01*
X002311Y001179D01*
X002312Y001179D01*
X002314Y001180D01*
X002315Y001181D01*
X002315Y001181D01*
X002316Y001181D01*
X002316Y001182D01*
X002317Y001182D01*
X002318Y001183D01*
X002320Y001182D01*
X002321Y001182D01*
X002322Y001181D01*
X002323Y001181D01*
X002323Y001180D01*
X002323Y001180D01*
X002324Y001179D01*
X002324Y001178D01*
X002324Y001176D01*
X002323Y001175D01*
X002322Y001174D01*
X002322Y001173D01*
X002321Y001173D01*
X002320Y001172D01*
X002319Y001171D01*
X002317Y001170D01*
X002315Y001170D01*
X002312Y001169D01*
X002310D01*
Y001169D01*
X002310Y001168D01*
X002310Y001166D01*
X002309Y001164D01*
X002308Y001162D01*
X002307Y001160D01*
X002306Y001157D01*
X002304Y001155D01*
X002296Y001147D01*
X002295Y001147D01*
X002295Y001146D01*
X002294Y001146D01*
X002292Y001144D01*
X002290Y001143D01*
X002287Y001142D01*
X002284Y001142D01*
X002283Y001141D01*
X002281D01*
X002281Y001141D01*
X002281Y001141D01*
X002280Y001141D01*
X002278Y001142D01*
X002276Y001142D01*
X002274Y001143D01*
X002272Y001144D01*
X002269Y001146D01*
X002268Y001147D01*
X002267Y001148D01*
X002244Y001170D01*
X002244Y001170D01*
X002244Y001170D01*
X002244Y001171D01*
X002243Y001171D01*
X002243Y001172D01*
X002242Y001172D01*
X002241Y001174D01*
X002240Y001176D01*
X002239Y001179D01*
X002238Y001182D01*
X002238Y001183D01*
Y001185D01*
Y001185D01*
Y001185D01*
X002238Y001186D01*
X002238Y001188D01*
X002239Y001190D01*
X002239Y001192D01*
X002241Y001195D01*
X002242Y001197D01*
X002243Y001198D01*
X002263Y001218D01*
X002264Y001219D01*
X002264Y001219D01*
X002265Y001220D01*
X002266Y001220D01*
X002268Y001220D01*
D02*
G37*
G36*
X002096Y001145D02*
X002098Y001145D01*
X002099Y001144D01*
X002103Y001140D01*
X002103Y001140D01*
X002103Y001139D01*
X002104Y001139D01*
X002104Y001138D01*
X002105Y001137D01*
X002104Y001135D01*
X002104Y001134D01*
X002103Y001133D01*
X002103Y001132D01*
X002102Y001132D01*
X002102Y001132D01*
X002101Y001131D01*
X002099Y001131D01*
X002098Y001131D01*
X002097Y001132D01*
X002095Y001133D01*
X002092Y001136D01*
X002092Y001137D01*
X002091Y001137D01*
X002091Y001138D01*
X002090Y001139D01*
X002090Y001140D01*
X002090Y001141D01*
X002091Y001142D01*
X002092Y001144D01*
X002092Y001144D01*
X002092Y001144D01*
X002093Y001145D01*
X002094Y001145D01*
X002095Y001145D01*
X002096Y001145D01*
D02*
G37*
G36*
X002215Y001161D02*
X002216Y001161D01*
X002218Y001161D01*
X002220Y001160D01*
X002222Y001160D01*
X002224Y001159D01*
X002227Y001157D01*
X002228Y001156D01*
X002229Y001155D01*
X002263Y001122D01*
X002263Y001121D01*
X002263Y001121D01*
X002264Y001120D01*
X002264Y001119D01*
X002264Y001118D01*
X002264Y001117D01*
X002264Y001116D01*
X002263Y001114D01*
X002263Y001114D01*
X002262Y001114D01*
X002261Y001113D01*
X002260Y001113D01*
X002259Y001112D01*
X002258Y001113D01*
X002257Y001113D01*
X002255Y001114D01*
X002222Y001148D01*
X002222Y001148D01*
X002221Y001148D01*
X002221Y001149D01*
X002220Y001149D01*
X002219Y001150D01*
X002218Y001150D01*
X002216Y001151D01*
X002214Y001151D01*
X002214D01*
X002214Y001151D01*
X002213Y001151D01*
X002212Y001150D01*
X002211Y001150D01*
X002209Y001149D01*
X002208Y001149D01*
X002207Y001148D01*
X002200Y001140D01*
X002241Y001099D01*
X002241Y001099D01*
X002241Y001099D01*
X002242Y001098D01*
X002242Y001097D01*
X002242Y001096D01*
X002242Y001095D01*
X002242Y001093D01*
X002241Y001092D01*
X002240Y001092D01*
X002240Y001091D01*
X002239Y001091D01*
X002238Y001091D01*
X002237Y001090D01*
X002236Y001090D01*
X002235Y001091D01*
X002233Y001092D01*
X002192Y001133D01*
X002177Y001118D01*
X002218Y001077D01*
X002219Y001077D01*
X002219Y001076D01*
X002219Y001076D01*
X002220Y001075D01*
X002220Y001074D01*
X002220Y001072D01*
X002219Y001071D01*
X002218Y001070D01*
X002218Y001069D01*
X002218Y001069D01*
X002217Y001069D01*
X002216Y001068D01*
X002215Y001068D01*
X002214Y001068D01*
X002212Y001069D01*
X002211Y001070D01*
X002166Y001114D01*
X002166Y001114D01*
X002166Y001115D01*
X002165Y001116D01*
X002165Y001117D01*
X002165Y001118D01*
X002165Y001119D01*
X002165Y001120D01*
X002166Y001122D01*
X002200Y001156D01*
X002201Y001156D01*
X002202Y001157D01*
X002204Y001158D01*
X002206Y001159D01*
X002208Y001160D01*
X002211Y001161D01*
X002213Y001161D01*
X002214D01*
X002215Y001161D01*
X002215Y001161D01*
D02*
G37*
G36*
X002011Y001186D02*
X002012Y001186D01*
X002014Y001185D01*
X002081Y001118D01*
X002081Y001117D01*
X002081Y001117D01*
X002082Y001116D01*
X002082Y001115D01*
X002082Y001114D01*
X002082Y001113D01*
X002082Y001112D01*
X002081Y001110D01*
X002080Y001110D01*
X002080Y001110D01*
X002079Y001109D01*
X002078Y001109D01*
X002077Y001109D01*
X002076Y001109D01*
X002075Y001109D01*
X002073Y001110D01*
X002015Y001168D01*
X002015Y001151D01*
Y001151D01*
X002015Y001150D01*
X002015Y001149D01*
X002014Y001148D01*
X002014Y001147D01*
X002014Y001147D01*
X002013Y001147D01*
X002012Y001146D01*
X002011Y001146D01*
X002010Y001146D01*
X002009Y001146D01*
X002008Y001146D01*
X002006Y001147D01*
X002006Y001148D01*
X002006Y001148D01*
X002006Y001148D01*
X002005Y001150D01*
X002005Y001151D01*
Y001180D01*
Y001180D01*
Y001181D01*
Y001181D01*
X002005Y001182D01*
X002005Y001183D01*
X002006Y001184D01*
X002006Y001185D01*
X002006Y001185D01*
X002007Y001185D01*
X002008Y001186D01*
X002009Y001186D01*
X002010Y001186D01*
X002011Y001186D01*
D02*
G37*
G36*
X001858Y001203D02*
X001859D01*
X001860Y001203D01*
X001862Y001203D01*
X001863Y001203D01*
X001864Y001202D01*
X001867Y001202D01*
X001870Y001200D01*
X001873Y001198D01*
X001875Y001197D01*
X001876Y001196D01*
X001876Y001196D01*
X001877Y001195D01*
X001877Y001195D01*
X001878Y001194D01*
X001878Y001193D01*
X001879Y001192D01*
X001880Y001191D01*
X001881Y001190D01*
X001881Y001188D01*
X001882Y001186D01*
X001883Y001184D01*
X001883Y001182D01*
X001884Y001180D01*
X001884Y001178D01*
Y001176D01*
X001884Y001173D01*
X001884D01*
X001885Y001173D01*
X001886Y001174D01*
X001887D01*
X001888Y001173D01*
X001890Y001173D01*
X001891Y001173D01*
X001893Y001173D01*
X001895Y001172D01*
X001897Y001172D01*
X001899Y001171D01*
X001900Y001170D01*
X001902Y001169D01*
X001904Y001168D01*
X001906Y001166D01*
X001913Y001159D01*
X001914Y001158D01*
X001914Y001158D01*
X001914Y001158D01*
X001915Y001157D01*
X001915Y001156D01*
X001916Y001156D01*
X001917Y001153D01*
X001919Y001151D01*
X001920Y001147D01*
X001920Y001146D01*
X001921Y001144D01*
X001921Y001142D01*
X001921Y001140D01*
Y001140D01*
X001921Y001139D01*
Y001139D01*
Y001138D01*
X001921Y001137D01*
X001921Y001136D01*
X001920Y001135D01*
X001920Y001134D01*
X001919Y001131D01*
X001918Y001128D01*
X001916Y001124D01*
X001915Y001123D01*
X001913Y001121D01*
X001898Y001106D01*
X001898Y001106D01*
X001897Y001106D01*
X001896Y001105D01*
X001895Y001105D01*
X001894Y001105D01*
X001893Y001106D01*
X001891Y001107D01*
X001891Y001107D01*
X001891Y001107D01*
X001890Y001108D01*
X001890Y001109D01*
X001889Y001110D01*
X001889Y001111D01*
X001890Y001113D01*
X001891Y001114D01*
X001906Y001129D01*
X001907Y001130D01*
X001907Y001131D01*
X001908Y001132D01*
X001909Y001134D01*
X001910Y001136D01*
X001910Y001138D01*
X001911Y001140D01*
X001910Y001140D01*
Y001141D01*
X001910Y001142D01*
X001910Y001144D01*
X001909Y001146D01*
X001909Y001148D01*
X001908Y001149D01*
X001906Y001151D01*
X001898Y001159D01*
X001898Y001159D01*
X001898Y001159D01*
X001898Y001159D01*
X001897Y001160D01*
X001895Y001161D01*
X001894Y001162D01*
X001892Y001163D01*
X001890Y001163D01*
X001887Y001163D01*
X001887D01*
X001886Y001163D01*
X001885Y001163D01*
X001883Y001163D01*
X001882Y001162D01*
X001880Y001161D01*
X001878Y001160D01*
X001876Y001159D01*
X001868Y001151D01*
X001868Y001151D01*
X001867Y001150D01*
X001866Y001150D01*
X001865Y001150D01*
X001864Y001150D01*
X001863Y001150D01*
X001861Y001151D01*
X001861Y001151D01*
X001861Y001152D01*
X001860Y001153D01*
X001860Y001154D01*
X001860Y001155D01*
X001860Y001156D01*
X001860Y001157D01*
X001861Y001159D01*
X001869Y001166D01*
X001869Y001167D01*
X001870Y001168D01*
X001871Y001169D01*
X001872Y001171D01*
X001873Y001173D01*
X001873Y001175D01*
X001873Y001177D01*
X001873Y001177D01*
Y001178D01*
X001873Y001179D01*
X001873Y001181D01*
X001872Y001183D01*
X001872Y001185D01*
X001870Y001187D01*
X001869Y001188D01*
X001869Y001188D01*
X001869Y001188D01*
X001868Y001189D01*
X001867Y001190D01*
X001866Y001191D01*
X001864Y001191D01*
X001862Y001192D01*
X001860Y001193D01*
X001858Y001193D01*
X001857D01*
X001857Y001193D01*
X001855Y001193D01*
X001854Y001192D01*
X001852Y001192D01*
X001850Y001191D01*
X001848Y001190D01*
X001846Y001188D01*
X001831Y001173D01*
X001831Y001173D01*
X001830Y001172D01*
X001829Y001172D01*
X001828Y001172D01*
X001827Y001172D01*
X001826Y001172D01*
X001824Y001173D01*
X001824Y001174D01*
X001824Y001174D01*
X001823Y001175D01*
X001823Y001176D01*
X001822Y001177D01*
X001823Y001178D01*
X001823Y001179D01*
X001824Y001181D01*
X001840Y001197D01*
X001840Y001197D01*
X001841Y001198D01*
X001842Y001198D01*
X001844Y001200D01*
X001847Y001201D01*
X001850Y001202D01*
X001852Y001203D01*
X001854Y001203D01*
X001856Y001203D01*
X001858Y001203D01*
X001858D01*
X001858Y001203D01*
D02*
G37*
G36*
X001807Y001151D02*
X001807D01*
X001808Y001151D01*
X001809Y001151D01*
X001811Y001151D01*
X001812Y001150D01*
X001815Y001149D01*
X001818Y001148D01*
X001821Y001146D01*
X001823Y001145D01*
X001824Y001144D01*
X001824Y001144D01*
X001824Y001143D01*
X001825Y001143D01*
X001825Y001143D01*
X001826Y001142D01*
X001827Y001140D01*
X001828Y001138D01*
X001829Y001135D01*
X001831Y001133D01*
X001831Y001130D01*
X001846Y001069D01*
X001869Y001092D01*
X001869Y001092D01*
X001870Y001093D01*
X001871Y001093D01*
X001872Y001093D01*
X001873Y001093D01*
X001875Y001093D01*
X001876Y001092D01*
X001876Y001092D01*
X001877Y001091D01*
X001877Y001090D01*
X001878Y001089D01*
X001878Y001088D01*
X001878Y001087D01*
X001877Y001086D01*
X001876Y001084D01*
X001846Y001054D01*
X001846Y001054D01*
X001845Y001053D01*
X001844Y001053D01*
X001843Y001053D01*
X001842Y001053D01*
X001840Y001053D01*
X001839Y001055D01*
X001839Y001055D01*
X001839Y001055D01*
X001838Y001055D01*
X001838Y001056D01*
X001838Y001057D01*
X001821Y001128D01*
Y001128D01*
X001821Y001129D01*
X001820Y001130D01*
X001820Y001131D01*
X001819Y001132D01*
X001819Y001134D01*
X001818Y001135D01*
X001817Y001136D01*
X001817Y001136D01*
X001817Y001136D01*
X001816Y001137D01*
X001815Y001138D01*
X001814Y001139D01*
X001812Y001139D01*
X001810Y001140D01*
X001808Y001141D01*
X001806Y001141D01*
X001805D01*
X001804Y001141D01*
X001803Y001141D01*
X001802Y001140D01*
X001800Y001140D01*
X001798Y001139D01*
X001796Y001138D01*
X001794Y001136D01*
X001794Y001136D01*
X001794Y001136D01*
X001793Y001135D01*
X001793Y001134D01*
X001793Y001133D01*
X001792Y001132D01*
X001792Y001131D01*
X001791Y001130D01*
X001791Y001128D01*
X001791Y001127D01*
X001791Y001125D01*
Y001123D01*
X001791Y001120D01*
X001791Y001118D01*
X001792Y001115D01*
X001792Y001115D01*
Y001115D01*
X001792Y001114D01*
X001792Y001113D01*
X001792Y001113D01*
X001792Y001112D01*
X001791Y001111D01*
X001791Y001110D01*
X001790Y001110D01*
X001790Y001110D01*
X001789Y001109D01*
X001788Y001109D01*
X001787Y001109D01*
X001786Y001109D01*
X001785Y001109D01*
X001783Y001110D01*
X001783Y001110D01*
X001783Y001111D01*
X001782Y001111D01*
X001782Y001112D01*
X001782Y001112D01*
X001782Y001113D01*
X001782Y001114D01*
X001781Y001115D01*
X001781Y001117D01*
X001781Y001119D01*
X001780Y001121D01*
X001780Y001124D01*
X001780Y001126D01*
X001780Y001129D01*
X001781Y001131D01*
X001781Y001134D01*
X001782Y001137D01*
X001783Y001139D01*
X001785Y001141D01*
X001787Y001144D01*
X001788Y001144D01*
X001788Y001145D01*
X001789Y001145D01*
X001790Y001146D01*
X001792Y001148D01*
X001795Y001149D01*
X001798Y001150D01*
X001800Y001151D01*
X001802Y001151D01*
X001803Y001151D01*
X001806Y001151D01*
X001806D01*
X001807Y001151D01*
D02*
G37*
G36*
X001974Y001140D02*
X001975D01*
X001976Y001140D01*
X001977Y001140D01*
X001978Y001140D01*
X001979Y001139D01*
X001982Y001138D01*
X001985Y001137D01*
X001988Y001135D01*
X001990Y001134D01*
X001991Y001133D01*
X001992Y001132D01*
X001992Y001132D01*
X001992Y001132D01*
X001992Y001132D01*
X001993Y001130D01*
X001994Y001129D01*
X001995Y001127D01*
X001997Y001124D01*
X001998Y001122D01*
X001999Y001118D01*
X002013Y001057D01*
X002036Y001081D01*
X002037Y001081D01*
X002037Y001082D01*
X002038Y001082D01*
X002039Y001082D01*
X002041Y001082D01*
X002042Y001082D01*
X002043Y001081D01*
X002044Y001080D01*
X002044Y001080D01*
X002044Y001079D01*
X002045Y001078D01*
X002045Y001077D01*
X002045Y001076D01*
X002044Y001075D01*
X002043Y001073D01*
X002013Y001043D01*
X002013Y001043D01*
X002012Y001042D01*
X002011Y001042D01*
X002010Y001042D01*
X002009Y001042D01*
X002008Y001042D01*
X002006Y001043D01*
X002006Y001044D01*
X002006Y001044D01*
X002006Y001044D01*
X002005Y001045D01*
X002005Y001046D01*
X001988Y001117D01*
Y001117D01*
X001988Y001118D01*
X001988Y001119D01*
X001987Y001120D01*
X001987Y001121D01*
X001986Y001123D01*
X001985Y001124D01*
X001984Y001125D01*
X001984Y001125D01*
X001984Y001125D01*
X001983Y001126D01*
X001982Y001127D01*
X001981Y001127D01*
X001979Y001128D01*
X001977Y001129D01*
X001975Y001129D01*
X001973Y001130D01*
X001973D01*
X001972Y001130D01*
X001970Y001129D01*
X001969Y001129D01*
X001967Y001129D01*
X001965Y001128D01*
X001963Y001127D01*
X001962Y001125D01*
X001961Y001125D01*
X001961Y001124D01*
X001961Y001124D01*
X001960Y001123D01*
X001960Y001122D01*
X001959Y001121D01*
X001959Y001120D01*
X001959Y001119D01*
X001958Y001117D01*
X001958Y001115D01*
X001958Y001114D01*
Y001111D01*
X001958Y001109D01*
X001959Y001107D01*
X001959Y001104D01*
X001959Y001104D01*
Y001104D01*
X001960Y001103D01*
X001959Y001102D01*
X001959Y001102D01*
X001959Y001101D01*
X001959Y001100D01*
X001958Y001099D01*
X001958Y001099D01*
X001957Y001099D01*
X001957Y001098D01*
X001956Y001098D01*
X001955Y001097D01*
X001953Y001098D01*
X001952Y001098D01*
X001951Y001099D01*
X001950Y001099D01*
X001950Y001100D01*
X001950Y001100D01*
X001949Y001101D01*
X001949Y001101D01*
X001949Y001102D01*
X001949Y001103D01*
X001949Y001104D01*
X001948Y001106D01*
X001948Y001108D01*
X001948Y001110D01*
X001947Y001113D01*
X001948Y001115D01*
X001948Y001118D01*
X001948Y001120D01*
X001949Y001123D01*
X001950Y001125D01*
X001951Y001128D01*
X001952Y001130D01*
X001954Y001133D01*
X001955Y001133D01*
X001956Y001134D01*
X001956Y001134D01*
X001957Y001135D01*
X001959Y001136D01*
X001962Y001138D01*
X001965Y001139D01*
X001967Y001140D01*
X001969Y001140D01*
X001971Y001140D01*
X001973Y001140D01*
X001973D01*
X001974Y001140D01*
D02*
G37*
G36*
X002149Y001101D02*
X002150Y001100D01*
X002151Y001099D01*
X002196Y001055D01*
X002196Y001054D01*
X002197Y001054D01*
X002197Y001053D01*
X002197Y001052D01*
X002198Y001051D01*
X002198Y001050D01*
X002197Y001049D01*
X002196Y001047D01*
X002177Y001028D01*
X002176Y001028D01*
X002176Y001027D01*
X002175Y001027D01*
X002173Y001025D01*
X002171Y001024D01*
X002168Y001023D01*
X002166Y001023D01*
X002164Y001022D01*
X002163D01*
X002162Y001022D01*
X002162Y001022D01*
X002161Y001022D01*
X002159Y001023D01*
X002158Y001023D01*
X002155Y001024D01*
X002153Y001025D01*
X002150Y001027D01*
X002149Y001028D01*
X002148Y001029D01*
X002114Y001062D01*
X002114Y001062D01*
X002114Y001063D01*
X002113Y001064D01*
X002113Y001065D01*
X002112Y001066D01*
X002113Y001067D01*
X002113Y001068D01*
X002114Y001070D01*
X002114Y001070D01*
X002115Y001070D01*
X002116Y001071D01*
X002117Y001071D01*
X002118Y001071D01*
X002119Y001071D01*
X002120Y001071D01*
X002122Y001070D01*
X002155Y001036D01*
X002155Y001036D01*
X002156Y001036D01*
X002156Y001035D01*
X002157Y001035D01*
X002158Y001034D01*
X002159Y001034D01*
X002161Y001033D01*
X002163Y001033D01*
X002163D01*
X002163Y001033D01*
X002164Y001033D01*
X002165Y001033D01*
X002166Y001034D01*
X002168Y001034D01*
X002169Y001035D01*
X002170Y001036D01*
X002185Y001051D01*
X002144Y001092D01*
X002144Y001092D01*
X002143Y001093D01*
X002143Y001093D01*
X002143Y001094D01*
X002142Y001095D01*
X002142Y001097D01*
X002143Y001098D01*
X002144Y001099D01*
X002144Y001100D01*
X002145Y001100D01*
X002145Y001100D01*
X002146Y001101D01*
X002147Y001101D01*
X002149Y001101D01*
D02*
G37*
G36*
X001922Y001097D02*
X001923Y001096D01*
X001924Y001095D01*
X001991Y001028D01*
X001992Y001028D01*
X001992Y001028D01*
X001992Y001027D01*
X001993Y001026D01*
X001993Y001025D01*
X001993Y001024D01*
X001992Y001023D01*
X001991Y001021D01*
X001991Y001021D01*
X001991Y001021D01*
X001990Y001020D01*
X001989Y001020D01*
X001988Y001019D01*
X001987Y001019D01*
X001985Y001020D01*
X001984Y001021D01*
X001926Y001079D01*
X001926Y001062D01*
Y001061D01*
X001926Y001061D01*
X001925Y001059D01*
X001925Y001059D01*
X001925Y001058D01*
X001924Y001058D01*
X001924Y001058D01*
X001923Y001057D01*
X001922Y001057D01*
X001921Y001057D01*
X001920Y001057D01*
X001919Y001057D01*
X001917Y001058D01*
X001917Y001058D01*
X001917Y001059D01*
X001916Y001059D01*
X001916Y001060D01*
X001916Y001062D01*
Y001091D01*
Y001091D01*
Y001091D01*
Y001092D01*
X001916Y001093D01*
X001916Y001094D01*
X001917Y001095D01*
X001917Y001095D01*
X001917Y001096D01*
X001918Y001096D01*
X001918Y001096D01*
X001919Y001097D01*
X001920Y001097D01*
X001922Y001097D01*
D02*
G37*
G36*
X001752Y001097D02*
X001755Y001096D01*
X001758Y001095D01*
X001761Y001094D01*
X001764Y001093D01*
X001764Y001093D01*
X001765Y001092D01*
X001766Y001092D01*
X001767Y001091D01*
X001768Y001091D01*
X001769Y001090D01*
X001771Y001089D01*
X001772Y001088D01*
X001774Y001087D01*
X001777Y001085D01*
X001779Y001083D01*
X001781Y001082D01*
X001783Y001080D01*
X001786Y001078D01*
X001788Y001076D01*
X001791Y001073D01*
X001791Y001073D01*
X001791Y001072D01*
X001792Y001072D01*
X001793Y001071D01*
X001794Y001070D01*
X001795Y001068D01*
X001797Y001067D01*
X001798Y001065D01*
X001800Y001063D01*
X001801Y001061D01*
X001805Y001056D01*
X001808Y001052D01*
X001810Y001047D01*
X001810Y001046D01*
X001811Y001046D01*
X001811Y001045D01*
X001812Y001044D01*
X001812Y001042D01*
X001813Y001040D01*
X001813Y001038D01*
X001814Y001036D01*
X001814Y001034D01*
X001814Y001031D01*
X001814Y001029D01*
X001814Y001026D01*
X001813Y001024D01*
X001812Y001021D01*
X001811Y001019D01*
X001809Y001017D01*
X001809Y001017D01*
X001808Y001016D01*
X001807Y001016D01*
X001806Y001015D01*
X001805Y001015D01*
X001803Y001014D01*
X001802Y001013D01*
X001800Y001013D01*
X001797Y001012D01*
X001795Y001012D01*
X001792Y001012D01*
X001790Y001013D01*
X001786Y001014D01*
X001783Y001015D01*
X001780Y001016D01*
X001780Y001016D01*
X001779Y001016D01*
X001778Y001017D01*
X001778Y001017D01*
X001776Y001018D01*
X001775Y001019D01*
X001773Y001020D01*
X001772Y001021D01*
X001770Y001022D01*
X001768Y001024D01*
X001766Y001025D01*
X001763Y001027D01*
X001761Y001029D01*
X001758Y001031D01*
X001756Y001033D01*
X001753Y001036D01*
X001753Y001036D01*
X001753Y001036D01*
X001752Y001037D01*
X001751Y001038D01*
X001750Y001039D01*
X001749Y001041D01*
X001747Y001042D01*
X001746Y001044D01*
X001744Y001046D01*
X001743Y001048D01*
X001740Y001053D01*
X001736Y001057D01*
X001734Y001062D01*
X001734Y001062D01*
X001733Y001063D01*
X001733Y001064D01*
X001732Y001065D01*
X001732Y001067D01*
X001731Y001069D01*
X001731Y001071D01*
X001730Y001073D01*
X001730Y001075D01*
X001730Y001078D01*
Y001080D01*
X001730Y001083D01*
X001731Y001085D01*
X001732Y001087D01*
X001733Y001090D01*
X001735Y001092D01*
X001735Y001092D01*
X001736Y001092D01*
X001737Y001093D01*
X001738Y001094D01*
X001739Y001094D01*
X001741Y001095D01*
X001742Y001096D01*
X001744Y001096D01*
X001747Y001097D01*
X001749Y001097D01*
X001752Y001097D01*
D02*
G37*
G36*
X002096Y001042D02*
X002097Y001042D01*
X002099Y001042D01*
X002101Y001041D01*
X002103Y001041D01*
X002106Y001040D01*
X002108Y001038D01*
X002109Y001037D01*
X002110Y001036D01*
X002144Y001003D01*
X002144Y001002D01*
X002144Y001002D01*
X002145Y001001D01*
X002145Y001000D01*
X002146Y000999D01*
X002145Y000998D01*
X002145Y000997D01*
X002144Y000995D01*
X002144Y000995D01*
X002143Y000995D01*
X002143Y000994D01*
X002142Y000994D01*
X002140Y000994D01*
X002139Y000994D01*
X002138Y000994D01*
X002137Y000995D01*
X002103Y001029D01*
X002103Y001029D01*
X002102Y001029D01*
X002102Y001030D01*
X002101Y001030D01*
X002100Y001031D01*
X002099Y001031D01*
X002097Y001032D01*
X002096Y001032D01*
X002095D01*
X002095Y001032D01*
X002094Y001032D01*
X002093Y001031D01*
X002092Y001031D01*
X002091Y001030D01*
X002089Y001030D01*
X002088Y001029D01*
X002073Y001014D01*
X002114Y000973D01*
X002114Y000973D01*
X002115Y000972D01*
X002115Y000971D01*
X002116Y000971D01*
X002116Y000970D01*
X002116Y000968D01*
X002115Y000967D01*
X002114Y000965D01*
X002114Y000965D01*
X002113Y000965D01*
X002113Y000965D01*
X002112Y000964D01*
X002111Y000964D01*
X002109Y000964D01*
X002108Y000964D01*
X002107Y000965D01*
X002062Y001010D01*
X002062Y001010D01*
X002062Y001011D01*
X002061Y001011D01*
X002061Y001012D01*
X002060Y001014D01*
X002061Y001015D01*
X002061Y001016D01*
X002062Y001017D01*
X002081Y001037D01*
X002082Y001037D01*
X002083Y001038D01*
X002085Y001039D01*
X002087Y001040D01*
X002090Y001041D01*
X002092Y001042D01*
X002094Y001042D01*
X002096D01*
X002096Y001042D01*
X002096Y001042D01*
D02*
G37*
G36*
X001948Y000997D02*
X001949Y000996D01*
X001951Y000995D01*
X001954Y000991D01*
X001954Y000991D01*
X001955Y000991D01*
X001955Y000990D01*
X001956Y000989D01*
X001956Y000988D01*
X001956Y000987D01*
X001955Y000985D01*
X001954Y000984D01*
X001954Y000984D01*
X001954Y000983D01*
X001953Y000983D01*
X001952Y000983D01*
X001951Y000982D01*
X001950Y000982D01*
X001948Y000983D01*
X001947Y000984D01*
X001943Y000988D01*
X001943Y000988D01*
X001943Y000988D01*
X001942Y000989D01*
X001942Y000990D01*
X001941Y000991D01*
X001942Y000992D01*
X001942Y000994D01*
X001943Y000995D01*
X001943Y000995D01*
X001944Y000996D01*
X001944Y000996D01*
X001945Y000997D01*
X001947Y000997D01*
X001948Y000997D01*
D02*
G37*
G36*
X001702Y001047D02*
X001703D01*
X001704Y001047D01*
X001705Y001047D01*
X001706Y001047D01*
X001708Y001046D01*
X001711Y001045D01*
X001714Y001044D01*
X001717Y001042D01*
X001718Y001041D01*
X001720Y001040D01*
X001720Y001039D01*
X001720Y001039D01*
X001721Y001039D01*
X001721Y001039D01*
X001722Y001037D01*
X001723Y001036D01*
X001724Y001034D01*
X001725Y001031D01*
X001726Y001029D01*
X001727Y001025D01*
X001741Y000964D01*
X001765Y000988D01*
X001765Y000988D01*
X001766Y000989D01*
X001767Y000989D01*
X001768Y000989D01*
X001769Y000989D01*
X001771Y000989D01*
X001772Y000988D01*
X001772Y000987D01*
X001772Y000987D01*
X001773Y000986D01*
X001773Y000985D01*
X001774Y000984D01*
X001774Y000983D01*
X001773Y000982D01*
X001772Y000980D01*
X001742Y000950D01*
X001741Y000950D01*
X001741Y000949D01*
X001740Y000949D01*
X001739Y000949D01*
X001738Y000949D01*
X001736Y000949D01*
X001735Y000950D01*
X001735Y000950D01*
X001735Y000951D01*
X001734Y000951D01*
X001734Y000952D01*
X001733Y000953D01*
X001717Y001024D01*
Y001024D01*
X001717Y001025D01*
X001716Y001026D01*
X001716Y001027D01*
X001715Y001028D01*
X001715Y001030D01*
X001714Y001031D01*
X001713Y001032D01*
X001712Y001032D01*
X001712Y001032D01*
X001712Y001033D01*
X001711Y001034D01*
X001709Y001034D01*
X001708Y001035D01*
X001706Y001036D01*
X001704Y001036D01*
X001701Y001037D01*
X001701D01*
X001700Y001036D01*
X001699Y001036D01*
X001698Y001036D01*
X001696Y001036D01*
X001694Y001035D01*
X001692Y001034D01*
X001690Y001032D01*
X001690Y001032D01*
X001690Y001031D01*
X001689Y001031D01*
X001689Y001030D01*
X001688Y001029D01*
X001688Y001028D01*
X001688Y001027D01*
X001687Y001026D01*
X001687Y001024D01*
X001687Y001022D01*
X001687Y001021D01*
Y001018D01*
X001687Y001016D01*
X001687Y001014D01*
X001688Y001011D01*
X001688Y001011D01*
Y001011D01*
X001688Y001010D01*
X001688Y001009D01*
X001688Y001009D01*
X001688Y001008D01*
X001687Y001007D01*
X001686Y001006D01*
X001686Y001006D01*
X001686Y001006D01*
X001685Y001005D01*
X001684Y001005D01*
X001683Y001004D01*
X001682Y001005D01*
X001681Y001005D01*
X001679Y001006D01*
X001679Y001006D01*
X001679Y001007D01*
X001678Y001007D01*
X001678Y001008D01*
X001678Y001008D01*
X001678Y001009D01*
X001677Y001010D01*
X001677Y001011D01*
X001677Y001013D01*
X001677Y001015D01*
X001676Y001017D01*
X001676Y001020D01*
X001676Y001022D01*
X001676Y001025D01*
X001677Y001027D01*
X001677Y001030D01*
X001678Y001032D01*
X001679Y001035D01*
X001681Y001037D01*
X001683Y001040D01*
X001684Y001040D01*
X001684Y001041D01*
X001685Y001041D01*
X001686Y001042D01*
X001688Y001043D01*
X001691Y001045D01*
X001694Y001046D01*
X001696Y001047D01*
X001697Y001047D01*
X001699Y001047D01*
X001701Y001047D01*
X001702D01*
X001702Y001047D01*
D02*
G37*
G36*
X001860Y001026D02*
X001862Y001025D01*
X001865Y001025D01*
X001869Y001024D01*
X001872Y001022D01*
X001872Y001022D01*
X001873Y001022D01*
X001873Y001021D01*
X001874Y001021D01*
X001876Y001020D01*
X001877Y001019D01*
X001879Y001018D01*
X001880Y001017D01*
X001882Y001016D01*
X001884Y001014D01*
X001886Y001013D01*
X001889Y001011D01*
X001891Y001009D01*
X001894Y001007D01*
X001896Y001005D01*
X001898Y001003D01*
X001899Y001002D01*
X001899Y001002D01*
X001900Y001001D01*
X001901Y001000D01*
X001902Y000999D01*
X001903Y000998D01*
X001904Y000996D01*
X001906Y000994D01*
X001907Y000992D01*
X001909Y000990D01*
X001912Y000986D01*
X001915Y000981D01*
X001918Y000976D01*
X001918Y000976D01*
X001919Y000975D01*
X001919Y000974D01*
X001919Y000973D01*
X001920Y000971D01*
X001921Y000970D01*
X001921Y000968D01*
X001922Y000965D01*
X001922Y000963D01*
X001922Y000961D01*
X001922Y000958D01*
X001922Y000956D01*
X001921Y000953D01*
X001920Y000951D01*
X001919Y000949D01*
X001917Y000947D01*
X001917Y000946D01*
X001916Y000946D01*
X001915Y000945D01*
X001914Y000945D01*
X001913Y000944D01*
X001911Y000943D01*
X001909Y000943D01*
X001907Y000942D01*
X001905Y000942D01*
X001903Y000942D01*
X001900Y000942D01*
X001897Y000942D01*
X001894Y000943D01*
X001891Y000944D01*
X001888Y000946D01*
X001887Y000946D01*
X001887Y000946D01*
X001886Y000946D01*
X001885Y000947D01*
X001884Y000947D01*
X001883Y000948D01*
X001881Y000949D01*
X001880Y000950D01*
X001877Y000952D01*
X001876Y000953D01*
X001873Y000955D01*
X001871Y000957D01*
X001869Y000958D01*
X001866Y000961D01*
X001864Y000963D01*
X001861Y000965D01*
X001861Y000966D01*
X001861Y000966D01*
X001860Y000967D01*
X001859Y000968D01*
X001858Y000969D01*
X001857Y000970D01*
X001855Y000972D01*
X001854Y000974D01*
X001852Y000976D01*
X001851Y000978D01*
X001847Y000982D01*
X001844Y000987D01*
X001842Y000992D01*
X001841Y000992D01*
X001841Y000992D01*
X001841Y000993D01*
X001840Y000995D01*
X001840Y000996D01*
X001839Y000998D01*
X001839Y001000D01*
X001838Y001002D01*
X001838Y001005D01*
X001838Y001007D01*
Y001009D01*
X001838Y001012D01*
X001839Y001014D01*
X001840Y001017D01*
X001841Y001019D01*
X001843Y001021D01*
X001843Y001022D01*
X001844Y001022D01*
X001845Y001023D01*
X001846Y001023D01*
X001847Y001024D01*
X001849Y001025D01*
X001850Y001025D01*
X001852Y001026D01*
X001854Y001026D01*
X001857Y001026D01*
X001860Y001026D01*
D02*
G37*
G36*
X001714Y000941D02*
X001715Y000940D01*
X001716Y000939D01*
X001720Y000936D01*
X001720Y000935D01*
X001721Y000935D01*
X001721Y000934D01*
X001721Y000933D01*
X001722Y000932D01*
X001722Y000931D01*
X001721Y000930D01*
X001720Y000928D01*
X001720Y000928D01*
X001719Y000928D01*
X001719Y000927D01*
X001718Y000927D01*
X001717Y000926D01*
X001715Y000927D01*
X001714Y000927D01*
X001713Y000928D01*
X001709Y000932D01*
X001709Y000932D01*
X001708Y000933D01*
X001708Y000933D01*
X001707Y000934D01*
X001707Y000935D01*
X001707Y000937D01*
X001708Y000938D01*
X001709Y000939D01*
X001709Y000940D01*
X001710Y000940D01*
X001710Y000940D01*
X001711Y000941D01*
X001712Y000941D01*
X001714Y000941D01*
D02*
G37*
G36*
X001606Y000959D02*
X001607Y000959D01*
X001609Y000958D01*
X001609Y000958D01*
X001609Y000957D01*
X001609Y000957D01*
X001610Y000957D01*
X001643Y000896D01*
X001660Y000913D01*
X001649Y000925D01*
X001649Y000925D01*
X001649Y000925D01*
X001648Y000926D01*
X001648Y000927D01*
X001648Y000928D01*
X001648Y000929D01*
X001648Y000930D01*
X001649Y000932D01*
X001650Y000932D01*
X001650Y000932D01*
X001651Y000933D01*
X001652Y000933D01*
X001653Y000934D01*
X001654Y000934D01*
X001655Y000933D01*
X001657Y000932D01*
X001668Y000921D01*
X001675Y000928D01*
X001676Y000929D01*
X001677Y000929D01*
X001678Y000930D01*
X001679Y000930D01*
X001680Y000930D01*
X001681Y000929D01*
X001683Y000928D01*
X001683Y000928D01*
X001683Y000927D01*
X001684Y000927D01*
X001684Y000926D01*
X001684Y000925D01*
X001684Y000923D01*
X001684Y000922D01*
X001683Y000921D01*
X001675Y000913D01*
X001687Y000902D01*
X001687Y000902D01*
X001687Y000901D01*
X001688Y000901D01*
X001688Y000900D01*
X001688Y000899D01*
X001688Y000897D01*
X001688Y000896D01*
X001687Y000895D01*
X001686Y000895D01*
X001686Y000894D01*
X001685Y000894D01*
X001684Y000893D01*
X001683Y000893D01*
X001682Y000893D01*
X001681Y000894D01*
X001679Y000895D01*
X001668Y000906D01*
X001645Y000883D01*
X001645Y000883D01*
X001644Y000883D01*
X001643Y000882D01*
X001642Y000882D01*
X001641Y000882D01*
X001640Y000883D01*
X001638Y000884D01*
X001638Y000884D01*
X001638Y000884D01*
X001638Y000884D01*
X001637Y000885D01*
X001600Y000951D01*
X001600Y000952D01*
X001600Y000952D01*
X001600Y000953D01*
X001600Y000954D01*
Y000955D01*
X001600Y000956D01*
X001600Y000957D01*
X001601Y000958D01*
X001601Y000958D01*
X001602Y000958D01*
X001602Y000959D01*
X001603Y000959D01*
X001605Y000960D01*
X001606Y000959D01*
D02*
G37*
G36*
X001806Y000982D02*
X001808Y000981D01*
X001809Y000980D01*
X001809Y000980D01*
X001810Y000979D01*
X001810Y000979D01*
X001811Y000978D01*
X001811Y000977D01*
X001811Y000975D01*
X001810Y000974D01*
X001809Y000973D01*
X001787Y000950D01*
X001809Y000928D01*
X001821Y000940D01*
X001822Y000940D01*
X001822Y000941D01*
X001823Y000942D01*
X001825Y000943D01*
X001828Y000944D01*
X001831Y000946D01*
X001833Y000946D01*
X001835Y000947D01*
X001837Y000947D01*
X001839Y000947D01*
X001839D01*
X001839Y000947D01*
X001841D01*
X001842Y000947D01*
X001843Y000947D01*
X001844Y000946D01*
X001845Y000946D01*
X001848Y000945D01*
X001851Y000944D01*
X001855Y000942D01*
X001856Y000941D01*
X001858Y000939D01*
X001865Y000932D01*
X001865Y000932D01*
X001865Y000932D01*
X001866Y000931D01*
X001866Y000930D01*
X001867Y000930D01*
X001867Y000929D01*
X001869Y000927D01*
X001870Y000924D01*
X001871Y000921D01*
X001872Y000919D01*
X001872Y000917D01*
X001873Y000915D01*
X001873Y000913D01*
Y000913D01*
X001873Y000913D01*
Y000912D01*
Y000911D01*
X001872Y000910D01*
X001872Y000909D01*
X001872Y000908D01*
X001872Y000907D01*
X001871Y000904D01*
X001869Y000901D01*
X001867Y000898D01*
X001866Y000896D01*
X001865Y000895D01*
X001850Y000880D01*
X001849Y000879D01*
X001849Y000879D01*
X001848Y000878D01*
X001847Y000878D01*
X001845Y000878D01*
X001844Y000879D01*
X001843Y000880D01*
X001842Y000880D01*
X001842Y000881D01*
X001842Y000881D01*
X001841Y000882D01*
X001841Y000883D01*
X001841Y000885D01*
X001842Y000886D01*
X001843Y000887D01*
X001858Y000902D01*
X001858Y000903D01*
X001859Y000904D01*
X001860Y000905D01*
X001861Y000907D01*
X001861Y000909D01*
X001862Y000911D01*
X001862Y000913D01*
X001862Y000914D01*
Y000914D01*
X001862Y000916D01*
X001862Y000917D01*
X001861Y000919D01*
X001860Y000921D01*
X001859Y000923D01*
X001858Y000924D01*
X001850Y000932D01*
X001850Y000932D01*
X001850Y000932D01*
X001849Y000933D01*
X001848Y000933D01*
X001847Y000934D01*
X001845Y000935D01*
X001843Y000936D01*
X001841Y000936D01*
X001839Y000936D01*
X001839D01*
X001838Y000936D01*
X001837Y000936D01*
X001835Y000936D01*
X001833Y000935D01*
X001831Y000934D01*
X001830Y000933D01*
X001828Y000932D01*
X001813Y000917D01*
X001812Y000916D01*
X001811Y000916D01*
X001811Y000916D01*
X001810Y000915D01*
X001808Y000915D01*
X001807Y000916D01*
X001806Y000917D01*
X001776Y000947D01*
X001776Y000947D01*
X001775Y000947D01*
X001775Y000948D01*
X001774Y000949D01*
X001774Y000950D01*
X001774Y000951D01*
X001775Y000953D01*
X001776Y000954D01*
X001802Y000980D01*
X001802Y000981D01*
X001803Y000981D01*
X001804Y000982D01*
X001805Y000982D01*
X001806Y000982D01*
D02*
G37*
G36*
X001999Y000946D02*
X002000Y000946D01*
X002002Y000945D01*
X002004Y000945D01*
X002006Y000944D01*
X002009Y000943D01*
X002011Y000941D01*
X002013Y000941D01*
X002014Y000939D01*
X002036Y000917D01*
X002036Y000917D01*
X002036Y000917D01*
X002037Y000916D01*
X002037Y000916D01*
X002038Y000915D01*
X002039Y000913D01*
X002040Y000911D01*
X002041Y000908D01*
X002042Y000905D01*
X002042Y000904D01*
Y000902D01*
Y000902D01*
X002042Y000901D01*
X002042Y000899D01*
X002041Y000897D01*
X002041Y000895D01*
X002040Y000892D01*
X002038Y000890D01*
X002037Y000889D01*
X002036Y000887D01*
X002021Y000873D01*
X002040Y000854D01*
X002040Y000854D01*
X002040Y000853D01*
X002041Y000853D01*
X002041Y000852D01*
X002041Y000851D01*
X002041Y000849D01*
X002041Y000848D01*
X002040Y000847D01*
X002040Y000846D01*
X002039Y000846D01*
X002038Y000846D01*
X002037Y000845D01*
X002036Y000845D01*
X002035Y000845D01*
X002034Y000845D01*
X002032Y000847D01*
X001965Y000913D01*
X001965Y000914D01*
X001965Y000914D01*
X001964Y000915D01*
X001964Y000916D01*
X001964Y000917D01*
X001964Y000918D01*
X001964Y000919D01*
X001965Y000921D01*
X001985Y000940D01*
X001985Y000940D01*
X001986Y000941D01*
X001986Y000941D01*
X001988Y000943D01*
X001990Y000944D01*
X001993Y000945D01*
X001996Y000945D01*
X001997Y000946D01*
X001999D01*
X001999Y000946D01*
X001999Y000946D01*
D02*
G37*
G36*
X001755Y000922D02*
X001758Y000921D01*
X001761Y000921D01*
X001765Y000920D01*
X001768Y000918D01*
X001768Y000918D01*
X001769Y000918D01*
X001769Y000917D01*
X001770Y000917D01*
X001771Y000916D01*
X001773Y000915D01*
X001775Y000914D01*
X001776Y000913D01*
X001778Y000912D01*
X001780Y000910D01*
X001782Y000909D01*
X001785Y000907D01*
X001787Y000905D01*
X001789Y000903D01*
X001792Y000901D01*
X001794Y000898D01*
X001795Y000898D01*
X001795Y000898D01*
X001796Y000897D01*
X001797Y000896D01*
X001798Y000895D01*
X001799Y000893D01*
X001800Y000892D01*
X001802Y000890D01*
X001803Y000888D01*
X001805Y000886D01*
X001808Y000882D01*
X001811Y000877D01*
X001814Y000872D01*
X001814Y000872D01*
X001814Y000871D01*
X001815Y000870D01*
X001815Y000869D01*
X001816Y000867D01*
X001816Y000865D01*
X001817Y000863D01*
X001817Y000861D01*
X001818Y000859D01*
X001818Y000856D01*
X001818Y000854D01*
X001817Y000852D01*
X001817Y000849D01*
X001816Y000847D01*
X001815Y000845D01*
X001813Y000843D01*
X001812Y000842D01*
X001812Y000842D01*
X001811Y000841D01*
X001810Y000840D01*
X001809Y000840D01*
X001807Y000839D01*
X001805Y000838D01*
X001803Y000838D01*
X001801Y000838D01*
X001799Y000838D01*
X001796Y000838D01*
X001793Y000838D01*
X001790Y000839D01*
X001787Y000840D01*
X001783Y000841D01*
X001783Y000841D01*
X001783Y000842D01*
X001782Y000842D01*
X001781Y000843D01*
X001780Y000843D01*
X001779Y000844D01*
X001777Y000845D01*
X001775Y000846D01*
X001773Y000848D01*
X001771Y000849D01*
X001769Y000851D01*
X001767Y000852D01*
X001765Y000854D01*
X001762Y000856D01*
X001760Y000859D01*
X001757Y000861D01*
X001757Y000861D01*
X001757Y000862D01*
X001756Y000862D01*
X001755Y000864D01*
X001754Y000865D01*
X001753Y000866D01*
X001751Y000868D01*
X001750Y000869D01*
X001748Y000871D01*
X001746Y000873D01*
X001743Y000878D01*
X001740Y000883D01*
X001737Y000887D01*
X001737Y000888D01*
X001737Y000888D01*
X001737Y000889D01*
X001736Y000891D01*
X001736Y000892D01*
X001735Y000894D01*
X001734Y000896D01*
X001734Y000898D01*
X001734Y000901D01*
X001734Y000903D01*
Y000905D01*
X001734Y000908D01*
X001734Y000910D01*
X001735Y000913D01*
X001737Y000915D01*
X001739Y000917D01*
X001739Y000917D01*
X001740Y000918D01*
X001740Y000918D01*
X001741Y000919D01*
X001743Y000920D01*
X001744Y000920D01*
X001746Y000921D01*
X001748Y000921D01*
X001750Y000922D01*
X001753Y000922D01*
X001755Y000922D01*
D02*
G37*
G36*
X001566Y000911D02*
X001569Y000910D01*
X001572Y000910D01*
X001575Y000908D01*
X001579Y000907D01*
X001579Y000907D01*
X001579Y000907D01*
X001580Y000906D01*
X001581Y000906D01*
X001582Y000905D01*
X001583Y000904D01*
X001585Y000903D01*
X001587Y000902D01*
X001589Y000901D01*
X001591Y000899D01*
X001593Y000898D01*
X001595Y000896D01*
X001597Y000894D01*
X001600Y000892D01*
X001602Y000890D01*
X001605Y000887D01*
X001605Y000887D01*
X001605Y000887D01*
X001606Y000886D01*
X001607Y000885D01*
X001608Y000884D01*
X001609Y000882D01*
X001611Y000881D01*
X001612Y000879D01*
X001614Y000877D01*
X001615Y000875D01*
X001619Y000871D01*
X001622Y000866D01*
X001625Y000861D01*
X001625Y000861D01*
X001625Y000860D01*
X001625Y000859D01*
X001626Y000858D01*
X001626Y000856D01*
X001627Y000854D01*
X001627Y000852D01*
X001628Y000850D01*
X001628Y000848D01*
X001628Y000845D01*
X001628Y000843D01*
X001628Y000841D01*
X001627Y000838D01*
X001626Y000836D01*
X001625Y000834D01*
X001623Y000831D01*
X001623Y000831D01*
X001622Y000831D01*
X001621Y000830D01*
X001620Y000829D01*
X001619Y000829D01*
X001617Y000828D01*
X001616Y000827D01*
X001614Y000827D01*
X001612Y000827D01*
X001609Y000826D01*
X001606Y000827D01*
X001604Y000827D01*
X001601Y000828D01*
X001597Y000829D01*
X001594Y000830D01*
X001594Y000830D01*
X001593Y000831D01*
X001593Y000831D01*
X001592Y000831D01*
X001590Y000832D01*
X001589Y000833D01*
X001588Y000834D01*
X001586Y000835D01*
X001584Y000836D01*
X001582Y000838D01*
X001580Y000840D01*
X001577Y000841D01*
X001575Y000843D01*
X001573Y000845D01*
X001570Y000848D01*
X001568Y000850D01*
X001567Y000850D01*
X001567Y000851D01*
X001566Y000851D01*
X001565Y000852D01*
X001564Y000854D01*
X001563Y000855D01*
X001562Y000857D01*
X001560Y000858D01*
X001559Y000860D01*
X001557Y000862D01*
X001554Y000867D01*
X001551Y000871D01*
X001548Y000876D01*
X001548Y000877D01*
X001548Y000877D01*
X001547Y000878D01*
X001547Y000879D01*
X001546Y000881D01*
X001545Y000883D01*
X001545Y000885D01*
X001544Y000887D01*
X001544Y000889D01*
X001544Y000892D01*
Y000894D01*
X001544Y000897D01*
X001545Y000899D01*
X001546Y000902D01*
X001547Y000904D01*
X001549Y000906D01*
X001549Y000906D01*
X001550Y000907D01*
X001551Y000907D01*
X001552Y000908D01*
X001553Y000909D01*
X001555Y000909D01*
X001557Y000910D01*
X001559Y000910D01*
X001561Y000911D01*
X001563Y000911D01*
X001566Y000911D01*
D02*
G37*
G36*
X001948Y000891D02*
X001949D01*
X001950Y000891D01*
X001951Y000891D01*
X001952Y000891D01*
X001953Y000891D01*
X001956Y000890D01*
X001959Y000888D01*
X001962Y000886D01*
X001964Y000885D01*
X001965Y000884D01*
X001977Y000872D01*
X001947Y000843D01*
X001954Y000835D01*
X001954Y000835D01*
X001955Y000835D01*
X001955Y000834D01*
X001956Y000834D01*
X001957Y000833D01*
X001959Y000833D01*
X001960Y000832D01*
X001962Y000832D01*
X001962D01*
X001962Y000832D01*
X001963Y000832D01*
X001964Y000833D01*
X001965Y000833D01*
X001967Y000833D01*
X001968Y000834D01*
X001969Y000835D01*
X001988Y000854D01*
X001988Y000854D01*
X001989Y000855D01*
X001990Y000855D01*
X001991Y000856D01*
X001992Y000855D01*
X001994Y000855D01*
X001995Y000854D01*
X001995Y000854D01*
X001996Y000853D01*
X001996Y000853D01*
X001996Y000852D01*
X001997Y000850D01*
X001997Y000849D01*
X001996Y000848D01*
X001995Y000846D01*
X001976Y000827D01*
X001975Y000827D01*
X001975Y000826D01*
X001974Y000826D01*
X001972Y000825D01*
X001970Y000824D01*
X001968Y000822D01*
X001965Y000822D01*
X001963Y000821D01*
X001962D01*
X001962Y000822D01*
X001961Y000821D01*
X001960Y000822D01*
X001959Y000822D01*
X001957Y000822D01*
X001954Y000823D01*
X001952Y000824D01*
X001949Y000826D01*
X001948Y000827D01*
X001947Y000828D01*
X001928Y000846D01*
X001928Y000847D01*
X001928Y000847D01*
X001927Y000847D01*
X001927Y000848D01*
X001926Y000849D01*
X001926Y000849D01*
X001924Y000852D01*
X001923Y000854D01*
X001922Y000858D01*
X001921Y000859D01*
X001921Y000861D01*
X001921Y000863D01*
X001920Y000865D01*
Y000865D01*
X001921Y000865D01*
Y000866D01*
Y000867D01*
X001921Y000868D01*
X001921Y000869D01*
X001921Y000870D01*
X001921Y000871D01*
X001922Y000874D01*
X001924Y000877D01*
X001926Y000881D01*
X001927Y000882D01*
X001928Y000884D01*
X001929Y000884D01*
X001930Y000885D01*
X001930Y000885D01*
X001931Y000886D01*
X001933Y000888D01*
X001936Y000889D01*
X001939Y000890D01*
X001941Y000891D01*
X001943Y000891D01*
X001945Y000891D01*
X001947Y000891D01*
X001947D01*
X001948Y000891D01*
D02*
G37*
G36*
X001769Y000818D02*
X001771Y000818D01*
X001772Y000817D01*
X001776Y000813D01*
X001776Y000813D01*
X001776Y000812D01*
X001777Y000812D01*
X001777Y000811D01*
X001777Y000810D01*
X001777Y000808D01*
X001777Y000807D01*
X001776Y000805D01*
X001776Y000805D01*
X001775Y000805D01*
X001774Y000805D01*
X001773Y000804D01*
X001772Y000804D01*
X001771Y000804D01*
X001770Y000804D01*
X001768Y000805D01*
X001765Y000809D01*
X001764Y000809D01*
X001764Y000810D01*
X001764Y000811D01*
X001763Y000812D01*
X001763Y000813D01*
X001763Y000814D01*
X001764Y000815D01*
X001765Y000817D01*
X001765Y000817D01*
X001765Y000817D01*
X001766Y000818D01*
X001767Y000818D01*
X001768Y000818D01*
X001769Y000818D01*
D02*
G37*
G36*
X001580Y000807D02*
X001581Y000807D01*
X001583Y000806D01*
X001586Y000802D01*
X001586Y000802D01*
X001587Y000801D01*
X001587Y000800D01*
X001588Y000799D01*
X001588Y000798D01*
X001588Y000797D01*
X001587Y000796D01*
X001586Y000794D01*
X001586Y000794D01*
X001586Y000794D01*
X001585Y000793D01*
X001584Y000793D01*
X001583Y000793D01*
X001582Y000793D01*
X001580Y000793D01*
X001579Y000794D01*
X001575Y000798D01*
X001575Y000798D01*
X001575Y000799D01*
X001574Y000799D01*
X001574Y000800D01*
X001573Y000802D01*
X001574Y000803D01*
X001574Y000804D01*
X001575Y000806D01*
X001575Y000806D01*
X001576Y000806D01*
X001576Y000807D01*
X001577Y000807D01*
X001579Y000807D01*
X001580Y000807D01*
D02*
G37*
G36*
X001895Y000841D02*
X001896Y000841D01*
X001898Y000841D01*
X001900Y000841D01*
X001902Y000840D01*
X001905Y000839D01*
X001907Y000837D01*
X001908Y000836D01*
X001910Y000835D01*
X001943Y000802D01*
X001943Y000802D01*
X001944Y000801D01*
X001944Y000800D01*
X001944Y000799D01*
X001945Y000798D01*
X001945Y000797D01*
X001944Y000796D01*
X001943Y000794D01*
X001943Y000794D01*
X001942Y000794D01*
X001942Y000793D01*
X001941Y000793D01*
X001940Y000793D01*
X001938Y000793D01*
X001937Y000793D01*
X001936Y000794D01*
X001902Y000828D01*
X001902Y000828D01*
X001902Y000828D01*
X001901Y000829D01*
X001900Y000829D01*
X001899Y000830D01*
X001898Y000830D01*
X001896Y000831D01*
X001895Y000831D01*
X001894D01*
X001894Y000831D01*
X001893Y000831D01*
X001892Y000831D01*
X001891Y000830D01*
X001890Y000830D01*
X001889Y000829D01*
X001887Y000828D01*
X001880Y000820D01*
X001921Y000779D01*
X001921Y000779D01*
X001921Y000779D01*
X001922Y000778D01*
X001922Y000777D01*
X001922Y000776D01*
X001922Y000775D01*
X001922Y000774D01*
X001921Y000772D01*
X001921Y000772D01*
X001920Y000772D01*
X001919Y000771D01*
X001918Y000771D01*
X001917Y000770D01*
X001916Y000771D01*
X001915Y000771D01*
X001913Y000772D01*
X001872Y000813D01*
X001858Y000798D01*
X001899Y000757D01*
X001899Y000757D01*
X001899Y000757D01*
X001900Y000756D01*
X001900Y000755D01*
X001900Y000754D01*
X001900Y000753D01*
X001900Y000751D01*
X001899Y000750D01*
X001898Y000750D01*
X001898Y000749D01*
X001897Y000749D01*
X001896Y000748D01*
X001895Y000748D01*
X001894Y000748D01*
X001893Y000749D01*
X001891Y000750D01*
X001846Y000794D01*
X001846Y000795D01*
X001846Y000795D01*
X001845Y000796D01*
X001845Y000797D01*
X001845Y000798D01*
X001845Y000799D01*
X001845Y000800D01*
X001846Y000802D01*
X001880Y000836D01*
X001881Y000836D01*
X001882Y000837D01*
X001884Y000838D01*
X001886Y000839D01*
X001889Y000840D01*
X001892Y000841D01*
X001893Y000841D01*
X001895D01*
X001895Y000841D01*
X001895Y000841D01*
D02*
G37*
G36*
X001684Y000859D02*
X001685Y000859D01*
X001687Y000858D01*
X001754Y000791D01*
X001754Y000790D01*
X001754Y000790D01*
X001755Y000789D01*
X001755Y000788D01*
X001755Y000787D01*
X001755Y000786D01*
X001755Y000785D01*
X001754Y000783D01*
X001753Y000783D01*
X001753Y000783D01*
X001752Y000782D01*
X001751Y000782D01*
X001750Y000782D01*
X001749Y000782D01*
X001748Y000782D01*
X001746Y000783D01*
X001683Y000846D01*
X001653Y000817D01*
X001716Y000753D01*
X001717Y000753D01*
X001717Y000753D01*
X001717Y000752D01*
X001718Y000751D01*
X001718Y000750D01*
X001718Y000749D01*
X001717Y000748D01*
X001716Y000746D01*
X001716Y000746D01*
X001716Y000746D01*
X001715Y000745D01*
X001714Y000745D01*
X001713Y000744D01*
X001712Y000745D01*
X001710Y000745D01*
X001709Y000746D01*
X001642Y000813D01*
X001642Y000813D01*
X001642Y000814D01*
X001641Y000814D01*
X001641Y000815D01*
X001640Y000816D01*
X001640Y000818D01*
X001641Y000819D01*
X001642Y000820D01*
X001679Y000858D01*
X001680Y000858D01*
X001681Y000859D01*
X001682Y000859D01*
X001683Y000859D01*
X001684Y000859D01*
D02*
G37*
G36*
X001472Y000826D02*
X001473Y000825D01*
X001475Y000824D01*
X001475Y000824D01*
X001475Y000824D01*
X001476Y000823D01*
X001476Y000823D01*
X001509Y000762D01*
X001527Y000780D01*
X001516Y000791D01*
X001515Y000791D01*
X001515Y000791D01*
X001515Y000792D01*
X001514Y000793D01*
X001514Y000794D01*
X001514Y000795D01*
X001514Y000797D01*
X001516Y000798D01*
X001516Y000798D01*
X001516Y000799D01*
X001517Y000799D01*
X001518Y000800D01*
X001519Y000800D01*
X001520Y000800D01*
X001522Y000799D01*
X001523Y000798D01*
X001534Y000787D01*
X001542Y000795D01*
X001542Y000795D01*
X001543Y000795D01*
X001544Y000796D01*
X001545Y000796D01*
X001546Y000796D01*
X001548Y000795D01*
X001549Y000794D01*
X001549Y000794D01*
X001549Y000794D01*
X001550Y000793D01*
X001550Y000792D01*
X001551Y000791D01*
X001551Y000790D01*
X001550Y000788D01*
X001549Y000787D01*
X001542Y000780D01*
X001553Y000768D01*
X001553Y000768D01*
X001553Y000768D01*
X001554Y000767D01*
X001554Y000766D01*
X001554Y000765D01*
X001554Y000764D01*
X001554Y000762D01*
X001553Y000761D01*
X001553Y000761D01*
X001552Y000760D01*
X001551Y000760D01*
X001550Y000760D01*
X001549Y000759D01*
X001548Y000759D01*
X001547Y000760D01*
X001545Y000761D01*
X001534Y000772D01*
X001512Y000750D01*
X001511Y000749D01*
X001510Y000749D01*
X001510Y000748D01*
X001508Y000748D01*
X001507Y000748D01*
X001506Y000749D01*
X001505Y000750D01*
X001504Y000750D01*
X001504Y000750D01*
X001504Y000751D01*
X001504Y000751D01*
X001466Y000818D01*
X001466Y000818D01*
X001466Y000818D01*
X001466Y000819D01*
X001466Y000820D01*
Y000821D01*
X001466Y000822D01*
X001466Y000823D01*
X001467Y000824D01*
X001468Y000824D01*
X001468Y000825D01*
X001469Y000825D01*
X001470Y000825D01*
X001471Y000826D01*
X001472Y000826D01*
D02*
G37*
G36*
X001828Y000774D02*
X001829Y000774D01*
X001831Y000774D01*
X001833Y000774D01*
X001835Y000773D01*
X001838Y000772D01*
X001840Y000770D01*
X001842Y000770D01*
X001843Y000768D01*
X001876Y000735D01*
X001876Y000735D01*
X001877Y000734D01*
X001877Y000733D01*
X001878Y000733D01*
X001878Y000731D01*
X001878Y000730D01*
X001877Y000729D01*
X001876Y000727D01*
X001876Y000727D01*
X001875Y000727D01*
X001875Y000726D01*
X001874Y000726D01*
X001873Y000726D01*
X001871Y000726D01*
X001870Y000726D01*
X001869Y000727D01*
X001835Y000761D01*
X001835Y000761D01*
X001835Y000761D01*
X001834Y000762D01*
X001833Y000762D01*
X001832Y000763D01*
X001831Y000764D01*
X001829Y000764D01*
X001828Y000764D01*
X001828D01*
X001827Y000764D01*
X001826Y000764D01*
X001825Y000764D01*
X001824Y000763D01*
X001823Y000763D01*
X001822Y000762D01*
X001820Y000761D01*
X001806Y000746D01*
X001847Y000705D01*
X001847Y000705D01*
X001847Y000704D01*
X001848Y000704D01*
X001848Y000703D01*
X001848Y000702D01*
X001848Y000701D01*
X001848Y000699D01*
X001846Y000698D01*
X001846Y000698D01*
X001846Y000697D01*
X001845Y000697D01*
X001844Y000696D01*
X001843Y000696D01*
X001842Y000696D01*
X001840Y000697D01*
X001839Y000698D01*
X001794Y000742D01*
X001794Y000743D01*
X001794Y000743D01*
X001793Y000744D01*
X001793Y000745D01*
X001793Y000746D01*
X001793Y000747D01*
X001793Y000748D01*
X001794Y000750D01*
X001813Y000769D01*
X001814Y000769D01*
X001815Y000770D01*
X001817Y000771D01*
X001819Y000773D01*
X001822Y000774D01*
X001825Y000774D01*
X001826Y000774D01*
X001828D01*
X001828Y000775D01*
X001828Y000774D01*
D02*
G37*
G36*
X001624Y000800D02*
X001626Y000799D01*
X001627Y000798D01*
X001694Y000731D01*
X001694Y000731D01*
X001695Y000730D01*
X001695Y000730D01*
X001695Y000729D01*
X001696Y000728D01*
X001696Y000727D01*
X001695Y000725D01*
X001694Y000724D01*
X001694Y000724D01*
X001693Y000723D01*
X001693Y000723D01*
X001692Y000722D01*
X001691Y000722D01*
X001689Y000722D01*
X001688Y000723D01*
X001687Y000724D01*
X001632Y000778D01*
X001640Y000740D01*
Y000740D01*
Y000740D01*
X001640Y000739D01*
Y000738D01*
X001639Y000737D01*
X001639Y000737D01*
X001639Y000736D01*
X001638Y000735D01*
X001638Y000735D01*
X001638Y000734D01*
X001637Y000734D01*
X001636Y000734D01*
X001635Y000733D01*
X001634Y000733D01*
X001633Y000733D01*
X001595Y000741D01*
X001650Y000687D01*
X001650Y000686D01*
X001650Y000686D01*
X001651Y000685D01*
X001651Y000684D01*
X001651Y000683D01*
X001651Y000682D01*
X001651Y000681D01*
X001649Y000679D01*
X001649Y000679D01*
X001649Y000679D01*
X001648Y000678D01*
X001647Y000678D01*
X001646Y000678D01*
X001645Y000678D01*
X001643Y000678D01*
X001642Y000679D01*
X001575Y000746D01*
X001575Y000746D01*
X001575Y000747D01*
X001574Y000747D01*
X001574Y000748D01*
X001573Y000750D01*
X001574Y000751D01*
X001574Y000752D01*
X001575Y000753D01*
X001575Y000754D01*
X001576Y000754D01*
X001576Y000754D01*
X001577Y000755D01*
X001578Y000755D01*
X001579Y000755D01*
X001580Y000755D01*
X001628Y000745D01*
X001618Y000793D01*
Y000793D01*
X001618Y000794D01*
X001618Y000794D01*
X001618Y000795D01*
X001619Y000796D01*
X001619Y000797D01*
X001620Y000798D01*
X001620Y000798D01*
X001620Y000799D01*
X001621Y000799D01*
X001622Y000800D01*
X001623Y000800D01*
X001624Y000800D01*
D02*
G37*
G36*
X001435Y000788D02*
X001436Y000788D01*
X001438Y000787D01*
X001505Y000720D01*
X001505Y000720D01*
X001505Y000719D01*
X001506Y000719D01*
X001506Y000718D01*
X001506Y000717D01*
X001506Y000715D01*
X001506Y000714D01*
X001504Y000713D01*
X001504Y000712D01*
X001504Y000712D01*
X001503Y000712D01*
X001502Y000711D01*
X001501Y000711D01*
X001500Y000711D01*
X001498Y000712D01*
X001497Y000712D01*
X001439Y000770D01*
X001439Y000753D01*
Y000753D01*
X001439Y000752D01*
X001438Y000751D01*
X001438Y000750D01*
X001438Y000750D01*
X001437Y000750D01*
X001437Y000749D01*
X001436Y000749D01*
X001435Y000748D01*
X001434Y000748D01*
X001433Y000748D01*
X001432Y000749D01*
X001430Y000750D01*
X001430Y000750D01*
X001430Y000750D01*
X001429Y000751D01*
X001429Y000752D01*
X001429Y000753D01*
Y000783D01*
Y000783D01*
Y000783D01*
Y000783D01*
X001429Y000784D01*
X001429Y000786D01*
X001430Y000786D01*
X001430Y000787D01*
X001430Y000787D01*
X001431Y000787D01*
X001432Y000788D01*
X001432Y000788D01*
X001434Y000789D01*
X001435Y000788D01*
D02*
G37*
G36*
X001558Y000725D02*
X001559Y000725D01*
X001560Y000724D01*
X001561Y000724D01*
X001563Y000724D01*
X001564Y000723D01*
X001566Y000723D01*
X001569Y000721D01*
X001572Y000719D01*
X001573Y000718D01*
X001575Y000716D01*
X001612Y000679D01*
X001612Y000679D01*
X001613Y000679D01*
X001613Y000678D01*
X001614Y000678D01*
X001614Y000677D01*
X001615Y000676D01*
X001617Y000674D01*
X001618Y000671D01*
X001620Y000668D01*
X001620Y000666D01*
X001620Y000664D01*
X001621Y000662D01*
X001621Y000661D01*
Y000660D01*
Y000660D01*
Y000660D01*
X001621Y000659D01*
X001621Y000658D01*
X001620Y000657D01*
X001620Y000656D01*
X001620Y000655D01*
X001619Y000653D01*
X001619Y000652D01*
X001617Y000648D01*
X001615Y000645D01*
X001614Y000644D01*
X001612Y000642D01*
X001612Y000641D01*
X001611Y000641D01*
X001610Y000640D01*
X001609Y000639D01*
X001607Y000638D01*
X001604Y000636D01*
X001601Y000635D01*
X001599Y000634D01*
X001598Y000634D01*
X001596Y000633D01*
X001594Y000633D01*
X001593D01*
X001592Y000633D01*
X001591Y000634D01*
X001590Y000634D01*
X001589Y000634D01*
X001588Y000635D01*
X001586Y000635D01*
X001585Y000635D01*
X001582Y000637D01*
X001578Y000639D01*
X001577Y000641D01*
X001575Y000642D01*
X001560Y000657D01*
X001549Y000646D01*
X001579Y000616D01*
X001579Y000616D01*
X001579Y000615D01*
X001580Y000615D01*
X001580Y000614D01*
X001581Y000613D01*
X001580Y000611D01*
X001580Y000610D01*
X001579Y000609D01*
X001579Y000608D01*
X001578Y000608D01*
X001577Y000608D01*
X001577Y000607D01*
X001575Y000607D01*
X001574Y000607D01*
X001573Y000608D01*
X001572Y000608D01*
X001505Y000675D01*
X001504Y000676D01*
X001504Y000676D01*
X001504Y000677D01*
X001503Y000678D01*
X001503Y000679D01*
X001503Y000680D01*
X001503Y000681D01*
X001505Y000683D01*
X001505Y000683D01*
X001505Y000683D01*
X001506Y000684D01*
X001507Y000684D01*
X001508Y000685D01*
X001509Y000684D01*
X001511Y000684D01*
X001512Y000683D01*
X001542Y000653D01*
X001553Y000664D01*
X001538Y000679D01*
X001538Y000679D01*
X001538Y000680D01*
X001537Y000680D01*
X001537Y000681D01*
X001536Y000682D01*
X001535Y000683D01*
X001534Y000685D01*
X001532Y000688D01*
X001531Y000691D01*
X001530Y000692D01*
X001530Y000694D01*
X001530Y000696D01*
X001529Y000698D01*
Y000698D01*
Y000698D01*
Y000699D01*
X001530Y000699D01*
X001530Y000700D01*
X001530Y000701D01*
X001530Y000703D01*
X001530Y000704D01*
X001531Y000705D01*
X001532Y000707D01*
X001533Y000710D01*
X001535Y000713D01*
X001537Y000715D01*
X001538Y000716D01*
X001539Y000717D01*
X001539Y000718D01*
X001540Y000718D01*
X001541Y000719D01*
X001543Y000721D01*
X001546Y000722D01*
X001549Y000724D01*
X001551Y000724D01*
X001553Y000724D01*
X001555Y000725D01*
X001557Y000725D01*
X001558D01*
X001558Y000725D01*
D02*
G37*
G36*
X001769Y000722D02*
X001771Y000721D01*
X001772Y000720D01*
X001809Y000683D01*
X001810Y000683D01*
X001810Y000682D01*
X001811Y000682D01*
X001812Y000681D01*
X001813Y000681D01*
X001814Y000681D01*
X001815Y000682D01*
X001817Y000683D01*
X001817Y000683D01*
X001817Y000683D01*
X001818Y000684D01*
X001819Y000684D01*
X001820Y000684D01*
X001821Y000684D01*
X001823Y000684D01*
X001824Y000683D01*
X001824Y000683D01*
X001825Y000682D01*
X001825Y000681D01*
X001825Y000681D01*
X001826Y000679D01*
X001826Y000678D01*
X001825Y000677D01*
X001824Y000675D01*
X001824Y000675D01*
X001823Y000675D01*
X001822Y000674D01*
X001821Y000673D01*
X001819Y000672D01*
X001817Y000671D01*
X001814Y000671D01*
X001812D01*
Y000671D01*
X001812Y000670D01*
X001811Y000668D01*
X001811Y000666D01*
X001810Y000664D01*
X001809Y000662D01*
X001808Y000659D01*
X001806Y000657D01*
X001798Y000649D01*
X001797Y000648D01*
X001796Y000648D01*
X001796Y000647D01*
X001794Y000646D01*
X001792Y000645D01*
X001789Y000644D01*
X001786Y000643D01*
X001785Y000643D01*
X001783D01*
X001783Y000643D01*
X001783Y000643D01*
X001782Y000643D01*
X001780Y000643D01*
X001778Y000644D01*
X001776Y000645D01*
X001773Y000646D01*
X001771Y000647D01*
X001770Y000648D01*
X001768Y000649D01*
X001746Y000672D01*
X001746Y000672D01*
X001746Y000672D01*
X001746Y000672D01*
X001745Y000673D01*
X001745Y000673D01*
X001744Y000674D01*
X001743Y000676D01*
X001742Y000678D01*
X001741Y000681D01*
X001740Y000684D01*
X001740Y000685D01*
Y000687D01*
Y000687D01*
Y000687D01*
X001740Y000688D01*
X001740Y000690D01*
X001741Y000692D01*
X001741Y000694D01*
X001742Y000696D01*
X001744Y000699D01*
X001745Y000700D01*
X001765Y000720D01*
X001765Y000721D01*
X001766Y000721D01*
X001767Y000721D01*
X001768Y000722D01*
X001769Y000722D01*
D02*
G37*
G36*
X001695Y000685D02*
X001696Y000685D01*
X001697Y000685D01*
X001699Y000685D01*
X001702Y000684D01*
X001704Y000683D01*
X001707Y000681D01*
X001708Y000680D01*
X001709Y000679D01*
X001754Y000635D01*
X001754Y000634D01*
X001754Y000634D01*
X001754Y000634D01*
X001755Y000633D01*
X001755Y000633D01*
X001756Y000632D01*
X001757Y000630D01*
X001758Y000628D01*
X001759Y000625D01*
X001760Y000623D01*
X001760Y000621D01*
Y000620D01*
Y000619D01*
X001760Y000618D01*
X001759Y000616D01*
X001759Y000615D01*
X001758Y000612D01*
X001757Y000610D01*
X001756Y000607D01*
X001755Y000606D01*
X001753Y000605D01*
X001745Y000597D01*
X001745Y000596D01*
X001744Y000596D01*
X001744Y000595D01*
X001742Y000594D01*
X001740Y000593D01*
X001737Y000592D01*
X001734Y000591D01*
X001733Y000591D01*
X001731D01*
X001731Y000591D01*
X001731Y000591D01*
X001730Y000591D01*
X001728Y000591D01*
X001726Y000592D01*
X001724Y000593D01*
X001721Y000594D01*
X001719Y000595D01*
X001718Y000596D01*
X001716Y000597D01*
X001694Y000620D01*
X001694Y000620D01*
X001694Y000620D01*
X001693Y000620D01*
X001693Y000621D01*
X001693Y000621D01*
X001692Y000622D01*
X001691Y000624D01*
X001690Y000626D01*
X001689Y000629D01*
X001688Y000632D01*
X001688Y000633D01*
Y000635D01*
Y000635D01*
Y000635D01*
X001688Y000636D01*
X001688Y000638D01*
X001689Y000640D01*
X001689Y000642D01*
X001690Y000645D01*
X001692Y000647D01*
X001693Y000648D01*
X001709Y000664D01*
X001702Y000672D01*
X001701Y000672D01*
X001701Y000672D01*
X001700Y000673D01*
X001699Y000673D01*
X001698Y000674D01*
X001697Y000674D01*
X001696Y000675D01*
X001694Y000675D01*
X001694D01*
X001693Y000675D01*
X001692Y000675D01*
X001692Y000674D01*
X001690Y000674D01*
X001689Y000674D01*
X001688Y000673D01*
X001687Y000672D01*
X001675Y000660D01*
X001675Y000660D01*
X001674Y000660D01*
X001673Y000659D01*
X001672Y000659D01*
X001671Y000659D01*
X001670Y000660D01*
X001668Y000661D01*
X001668Y000661D01*
X001668Y000661D01*
X001667Y000662D01*
X001667Y000663D01*
X001666Y000664D01*
X001666Y000665D01*
X001667Y000667D01*
X001668Y000668D01*
X001680Y000680D01*
X001680Y000680D01*
X001681Y000681D01*
X001682Y000681D01*
X001683Y000682D01*
X001686Y000683D01*
X001688Y000684D01*
X001691Y000685D01*
X001693Y000685D01*
X001694D01*
X001694Y000685D01*
X001695Y000685D01*
D02*
G37*
G36*
X001621Y000617D02*
X001623Y000617D01*
X001711Y000572D01*
X001711Y000572D01*
X001712Y000572D01*
X001712Y000572D01*
X001713Y000571D01*
X001713Y000571D01*
X001713Y000571D01*
X001714Y000570D01*
X001714Y000569D01*
X001714Y000568D01*
X001714Y000567D01*
X001714Y000565D01*
X001713Y000564D01*
X001712Y000564D01*
X001712Y000563D01*
X001711Y000563D01*
X001710Y000562D01*
X001709Y000562D01*
X001708Y000562D01*
X001707Y000563D01*
X001685Y000574D01*
X001658Y000547D01*
X001669Y000525D01*
X001669Y000525D01*
X001669Y000525D01*
X001669Y000524D01*
X001670Y000523D01*
Y000522D01*
X001669Y000521D01*
X001669Y000520D01*
X001668Y000519D01*
X001668Y000519D01*
X001667Y000519D01*
X001667Y000518D01*
X001666Y000518D01*
X001665Y000518D01*
X001663Y000518D01*
X001662Y000518D01*
X001661Y000519D01*
X001661Y000519D01*
X001660Y000520D01*
X001660Y000521D01*
X001615Y000609D01*
Y000609D01*
X001615Y000610D01*
X001615Y000611D01*
X001615Y000612D01*
Y000613D01*
X001615Y000614D01*
X001615Y000615D01*
X001616Y000616D01*
X001616Y000616D01*
X001617Y000617D01*
X001618Y000617D01*
X001619Y000617D01*
X001620D01*
X001621Y000617D01*
D02*
G37*
G36*
X001863Y000628D02*
X001866Y000628D01*
X001869Y000627D01*
X001872Y000626D01*
X001876Y000624D01*
X001876Y000624D01*
X001876Y000624D01*
X001877Y000624D01*
X001878Y000623D01*
X001879Y000623D01*
X001881Y000622D01*
X001882Y000621D01*
X001884Y000620D01*
X001886Y000618D01*
X001888Y000617D01*
X001890Y000615D01*
X001892Y000614D01*
X001895Y000612D01*
X001897Y000610D01*
X001900Y000607D01*
X001902Y000605D01*
X001902Y000605D01*
X001903Y000604D01*
X001903Y000604D01*
X001904Y000603D01*
X001905Y000601D01*
X001907Y000600D01*
X001908Y000598D01*
X001910Y000597D01*
X001911Y000595D01*
X001913Y000593D01*
X001916Y000588D01*
X001919Y000583D01*
X001922Y000578D01*
X001922Y000578D01*
X001922Y000578D01*
X001923Y000577D01*
X001923Y000575D01*
X001924Y000574D01*
X001924Y000572D01*
X001925Y000570D01*
X001925Y000568D01*
X001925Y000565D01*
X001926Y000563D01*
X001926Y000561D01*
X001925Y000558D01*
X001925Y000556D01*
X001924Y000553D01*
X001922Y000551D01*
X001921Y000549D01*
X001920Y000549D01*
X001920Y000548D01*
X001919Y000548D01*
X001918Y000547D01*
X001916Y000546D01*
X001915Y000546D01*
X001913Y000545D01*
X001911Y000545D01*
X001909Y000544D01*
X001906Y000544D01*
X001904Y000544D01*
X001901Y000545D01*
X001898Y000545D01*
X001895Y000546D01*
X001891Y000548D01*
X001891Y000548D01*
X001891Y000548D01*
X001890Y000549D01*
X001889Y000549D01*
X001888Y000550D01*
X001887Y000551D01*
X001885Y000552D01*
X001883Y000553D01*
X001881Y000554D01*
X001879Y000555D01*
X001877Y000557D01*
X001875Y000559D01*
X001872Y000561D01*
X001870Y000563D01*
X001867Y000565D01*
X001865Y000568D01*
X001865Y000568D01*
X001864Y000568D01*
X001864Y000569D01*
X001863Y000570D01*
X001862Y000571D01*
X001860Y000573D01*
X001859Y000574D01*
X001857Y000576D01*
X001856Y000578D01*
X001854Y000580D01*
X001851Y000584D01*
X001848Y000589D01*
X001845Y000594D01*
X001845Y000594D01*
X001845Y000595D01*
X001844Y000596D01*
X001844Y000597D01*
X001843Y000599D01*
X001843Y000600D01*
X001842Y000602D01*
X001842Y000605D01*
X001842Y000607D01*
X001841Y000609D01*
Y000612D01*
X001842Y000614D01*
X001842Y000617D01*
X001843Y000619D01*
X001845Y000621D01*
X001846Y000623D01*
X001847Y000624D01*
X001847Y000624D01*
X001848Y000625D01*
X001849Y000626D01*
X001851Y000626D01*
X001852Y000627D01*
X001854Y000627D01*
X001856Y000628D01*
X001858Y000628D01*
X001861Y000628D01*
X001863Y000628D01*
D02*
G37*
G36*
X001877Y000525D02*
X001878Y000524D01*
X001880Y000523D01*
X001884Y000519D01*
X001884Y000519D01*
X001884Y000519D01*
X001885Y000518D01*
X001885Y000517D01*
X001885Y000516D01*
X001885Y000515D01*
X001885Y000513D01*
X001884Y000512D01*
X001883Y000512D01*
X001883Y000511D01*
X001882Y000511D01*
X001881Y000511D01*
X001880Y000510D01*
X001879Y000510D01*
X001878Y000511D01*
X001876Y000512D01*
X001872Y000516D01*
X001872Y000516D01*
X001872Y000516D01*
X001871Y000517D01*
X001871Y000518D01*
X001871Y000519D01*
X001871Y000520D01*
X001871Y000522D01*
X001872Y000523D01*
X001873Y000523D01*
X001873Y000524D01*
X001874Y000524D01*
X001875Y000525D01*
X001876Y000525D01*
X001877Y000525D01*
D02*
G37*
G36*
X001792Y000566D02*
X001793Y000565D01*
X001794Y000564D01*
X001861Y000497D01*
X001862Y000497D01*
X001862Y000496D01*
X001862Y000496D01*
X001863Y000495D01*
X001863Y000494D01*
X001863Y000492D01*
X001862Y000491D01*
X001861Y000490D01*
X001861Y000489D01*
X001861Y000489D01*
X001860Y000489D01*
X001859Y000488D01*
X001858Y000488D01*
X001857Y000488D01*
X001855Y000489D01*
X001854Y000490D01*
X001796Y000547D01*
X001796Y000530D01*
Y000530D01*
X001796Y000529D01*
X001795Y000528D01*
X001795Y000527D01*
X001794Y000527D01*
X001794Y000527D01*
X001794Y000526D01*
X001793Y000526D01*
X001792Y000525D01*
X001791Y000525D01*
X001790Y000525D01*
X001788Y000526D01*
X001787Y000527D01*
X001787Y000527D01*
X001787Y000527D01*
X001786Y000528D01*
X001786Y000529D01*
X001785Y000530D01*
Y000560D01*
Y000560D01*
Y000560D01*
Y000561D01*
X001786Y000561D01*
X001786Y000563D01*
X001786Y000563D01*
X001787Y000564D01*
X001787Y000564D01*
X001788Y000564D01*
X001788Y000565D01*
X001789Y000565D01*
X001790Y000566D01*
X001792Y000566D01*
D02*
G37*
G36*
X001743Y000517D02*
X001745Y000517D01*
X001746Y000516D01*
X001765Y000497D01*
X001772Y000505D01*
X001773Y000505D01*
X001773Y000505D01*
X001774Y000506D01*
X001775Y000506D01*
X001777Y000506D01*
X001778Y000506D01*
X001779Y000505D01*
X001780Y000504D01*
X001780Y000504D01*
X001780Y000503D01*
X001781Y000502D01*
X001781Y000501D01*
X001781Y000500D01*
X001781Y000499D01*
X001779Y000497D01*
X001772Y000490D01*
X001787Y000475D01*
X001795Y000482D01*
X001795Y000483D01*
X001796Y000483D01*
X001797Y000484D01*
X001798Y000484D01*
X001799Y000484D01*
X001800Y000483D01*
X001802Y000482D01*
X001802Y000482D01*
X001802Y000481D01*
X001803Y000481D01*
X001803Y000480D01*
X001803Y000479D01*
X001803Y000477D01*
X001803Y000476D01*
X001802Y000475D01*
X001794Y000467D01*
X001813Y000449D01*
X001813Y000449D01*
X001814Y000448D01*
X001814Y000447D01*
X001814Y000446D01*
X001815Y000445D01*
X001815Y000444D01*
X001814Y000443D01*
X001813Y000441D01*
X001813Y000441D01*
X001812Y000441D01*
X001812Y000440D01*
X001811Y000440D01*
X001810Y000440D01*
X001808Y000440D01*
X001807Y000440D01*
X001806Y000441D01*
X001787Y000460D01*
X001772Y000445D01*
X001791Y000426D01*
X001791Y000426D01*
X001791Y000426D01*
X001792Y000425D01*
X001792Y000424D01*
X001792Y000423D01*
X001792Y000422D01*
X001792Y000421D01*
X001791Y000419D01*
X001791Y000419D01*
X001790Y000419D01*
X001789Y000418D01*
X001788Y000418D01*
X001787Y000417D01*
X001786Y000418D01*
X001785Y000418D01*
X001783Y000419D01*
X001765Y000438D01*
X001757Y000430D01*
X001757Y000430D01*
X001756Y000429D01*
X001755Y000429D01*
X001754Y000429D01*
X001753Y000429D01*
X001751Y000429D01*
X001750Y000430D01*
X001750Y000430D01*
X001749Y000431D01*
X001749Y000432D01*
X001748Y000433D01*
X001748Y000434D01*
X001748Y000435D01*
X001749Y000436D01*
X001750Y000438D01*
X001757Y000445D01*
X001742Y000460D01*
X001735Y000452D01*
X001734Y000452D01*
X001734Y000452D01*
X001733Y000451D01*
X001731Y000451D01*
X001730Y000451D01*
X001729Y000451D01*
X001727Y000453D01*
X001727Y000453D01*
X001727Y000453D01*
X001726Y000454D01*
X001726Y000455D01*
X001726Y000456D01*
X001726Y000457D01*
X001726Y000459D01*
X001727Y000460D01*
X001735Y000467D01*
X001716Y000486D01*
X001716Y000486D01*
X001716Y000487D01*
X001715Y000487D01*
X001715Y000488D01*
X001715Y000489D01*
X001715Y000491D01*
X001715Y000492D01*
X001716Y000493D01*
X001717Y000494D01*
X001717Y000494D01*
X001718Y000494D01*
X001719Y000495D01*
X001720Y000495D01*
X001721Y000495D01*
X001722Y000495D01*
X001724Y000493D01*
X001742Y000475D01*
X001757Y000490D01*
X001739Y000508D01*
X001738Y000508D01*
X001738Y000509D01*
X001738Y000510D01*
X001737Y000511D01*
X001737Y000512D01*
X001737Y000513D01*
X001738Y000514D01*
X001739Y000516D01*
X001739Y000516D01*
X001739Y000516D01*
X001740Y000517D01*
X001741Y000517D01*
X001742Y000517D01*
X001743Y000517D01*
D02*
G37*
G36*
X002447Y007368D02*
X002448Y007368D01*
X002449Y007367D01*
X002450Y007367D01*
X002451Y007366D01*
X002451Y007364D01*
X002452Y007363D01*
Y007268D01*
Y007268D01*
X002452Y007267D01*
X002451Y007266D01*
X002451Y007265D01*
X002450Y007264D01*
X002450Y007264D01*
X002448Y007263D01*
X002446Y007263D01*
X002446D01*
X002446Y007263D01*
X002445Y007263D01*
X002444Y007263D01*
X002443Y007264D01*
X002442Y007265D01*
X002441Y007266D01*
X002441Y007268D01*
Y007315D01*
X002399D01*
Y007268D01*
Y007268D01*
X002399Y007267D01*
X002399Y007266D01*
X002398Y007265D01*
X002398Y007264D01*
X002397Y007264D01*
X002396Y007263D01*
X002394Y007263D01*
X002394D01*
X002393Y007263D01*
X002392Y007263D01*
X002391Y007263D01*
X002390Y007264D01*
X002389Y007265D01*
X002389Y007266D01*
X002389Y007268D01*
Y007363D01*
Y007363D01*
X002389Y007363D01*
X002389Y007364D01*
X002389Y007365D01*
X002390Y007366D01*
X002391Y007367D01*
X002392Y007368D01*
X002394Y007368D01*
X002394D01*
X002395Y007368D01*
X002396Y007368D01*
X002397Y007367D01*
X002398Y007367D01*
X002398Y007366D01*
X002399Y007364D01*
X002399Y007363D01*
Y007326D01*
X002441D01*
Y007363D01*
Y007363D01*
X002441Y007363D01*
X002441Y007364D01*
X002442Y007365D01*
X002442Y007366D01*
X002443Y007367D01*
X002445Y007368D01*
X002446Y007368D01*
X002447D01*
X002447Y007368D01*
D02*
G37*
G36*
X002500D02*
X002501Y007368D01*
X002502Y007367D01*
X002503Y007367D01*
X002503Y007366D01*
X002504Y007364D01*
X002504Y007362D01*
Y007362D01*
Y007362D01*
Y007361D01*
X002504Y007361D01*
X002485Y007294D01*
X002509D01*
Y007310D01*
Y007310D01*
X002510Y007311D01*
X002510Y007312D01*
X002510Y007313D01*
X002511Y007314D01*
X002512Y007315D01*
X002513Y007315D01*
X002515Y007315D01*
X002515D01*
X002516Y007315D01*
X002516Y007315D01*
X002517Y007315D01*
X002518Y007314D01*
X002519Y007313D01*
X002520Y007312D01*
X002520Y007310D01*
Y007294D01*
X002531D01*
X002531Y007294D01*
X002532Y007294D01*
X002533Y007294D01*
X002534Y007293D01*
X002535Y007292D01*
X002535Y007291D01*
X002536Y007289D01*
Y007289D01*
X002536Y007288D01*
X002535Y007287D01*
X002535Y007286D01*
X002534Y007285D01*
X002533Y007285D01*
X002532Y007284D01*
X002530Y007284D01*
X002520D01*
Y007268D01*
Y007268D01*
X002520Y007267D01*
X002520Y007266D01*
X002519Y007265D01*
X002519Y007264D01*
X002518Y007264D01*
X002517Y007263D01*
X002515Y007263D01*
X002514D01*
X002514Y007263D01*
X002513Y007263D01*
X002512Y007263D01*
X002511Y007264D01*
X002510Y007265D01*
X002510Y007266D01*
X002509Y007268D01*
Y007284D01*
X002478D01*
X002477Y007284D01*
X002476Y007284D01*
X002475Y007284D01*
X002474Y007285D01*
X002474Y007286D01*
X002473Y007287D01*
X002473Y007289D01*
Y007289D01*
Y007289D01*
Y007290D01*
X002473Y007290D01*
X002494Y007364D01*
Y007364D01*
X002494Y007364D01*
X002494Y007365D01*
X002495Y007366D01*
X002496Y007367D01*
X002496Y007367D01*
X002498Y007368D01*
X002499Y007368D01*
X002499D01*
X002500Y007368D01*
D02*
G37*
G36*
X002363D02*
X002364Y007368D01*
X002365Y007367D01*
X002366Y007367D01*
X002367Y007366D01*
X002367Y007364D01*
X002367Y007363D01*
Y007362D01*
X002367Y007362D01*
X002367Y007361D01*
X002367Y007360D01*
X002366Y007359D01*
X002365Y007358D01*
X002364Y007358D01*
X002362Y007357D01*
X002340D01*
X002339Y007357D01*
X002337Y007357D01*
X002336Y007356D01*
X002334Y007355D01*
X002332Y007354D01*
X002330Y007353D01*
X002330Y007352D01*
X002329Y007352D01*
X002329Y007351D01*
X002328Y007350D01*
X002327Y007348D01*
X002326Y007346D01*
X002326Y007344D01*
X002326Y007341D01*
Y007289D01*
Y007289D01*
Y007289D01*
X002326Y007288D01*
X002326Y007287D01*
X002326Y007285D01*
X002327Y007283D01*
X002327Y007281D01*
X002329Y007280D01*
X002330Y007278D01*
X002330Y007278D01*
X002331Y007277D01*
X002332Y007276D01*
X002333Y007276D01*
X002335Y007275D01*
X002337Y007274D01*
X002339Y007273D01*
X002341Y007273D01*
X002363D01*
X002363Y007273D01*
X002364Y007273D01*
X002365Y007273D01*
X002366Y007272D01*
X002367Y007271D01*
X002367Y007270D01*
X002367Y007268D01*
Y007268D01*
X002367Y007267D01*
X002367Y007266D01*
X002367Y007265D01*
X002366Y007264D01*
X002365Y007264D01*
X002364Y007263D01*
X002362Y007263D01*
X002340D01*
X002339Y007263D01*
X002338Y007263D01*
X002337Y007263D01*
X002335Y007264D01*
X002332Y007265D01*
X002329Y007266D01*
X002327Y007267D01*
X002326Y007268D01*
X002324Y007269D01*
X002323Y007270D01*
X002322Y007270D01*
X002322Y007271D01*
X002322Y007271D01*
X002321Y007272D01*
X002321Y007272D01*
X002320Y007273D01*
X002320Y007274D01*
X002319Y007275D01*
X002317Y007278D01*
X002316Y007281D01*
X002315Y007285D01*
X002315Y007287D01*
X002315Y007289D01*
Y007341D01*
Y007342D01*
Y007342D01*
Y007343D01*
X002315Y007343D01*
X002315Y007344D01*
X002315Y007345D01*
X002316Y007348D01*
X002317Y007351D01*
X002318Y007354D01*
X002319Y007355D01*
X002320Y007357D01*
X002321Y007359D01*
X002323Y007360D01*
X002323Y007360D01*
X002323Y007360D01*
X002323Y007361D01*
X002324Y007361D01*
X002325Y007362D01*
X002326Y007363D01*
X002327Y007363D01*
X002328Y007364D01*
X002331Y007365D01*
X002334Y007367D01*
X002337Y007368D01*
X002339Y007368D01*
X002341Y007368D01*
X002363D01*
X002363Y007368D01*
D02*
G37*
G36*
X001747Y005320D02*
X001748Y005320D01*
X001749Y005319D01*
X001750Y005319D01*
X001751Y005318D01*
X001751Y005317D01*
X001752Y005315D01*
Y005220D01*
Y005220D01*
X001752Y005219D01*
X001751Y005218D01*
X001751Y005218D01*
X001750Y005217D01*
X001750Y005216D01*
X001748Y005215D01*
X001746Y005215D01*
X001746D01*
X001746Y005215D01*
X001745Y005215D01*
X001744Y005216D01*
X001743Y005216D01*
X001742Y005217D01*
X001741Y005218D01*
X001741Y005220D01*
Y005268D01*
X001699D01*
Y005220D01*
Y005220D01*
X001699Y005219D01*
X001699Y005218D01*
X001698Y005218D01*
X001698Y005217D01*
X001697Y005216D01*
X001696Y005215D01*
X001694Y005215D01*
X001694D01*
X001693Y005215D01*
X001692Y005215D01*
X001691Y005216D01*
X001690Y005216D01*
X001689Y005217D01*
X001689Y005218D01*
X001689Y005220D01*
Y005315D01*
Y005315D01*
X001689Y005316D01*
X001689Y005317D01*
X001689Y005317D01*
X001690Y005318D01*
X001691Y005319D01*
X001692Y005320D01*
X001694Y005320D01*
X001694D01*
X001695Y005320D01*
X001696Y005320D01*
X001697Y005319D01*
X001698Y005319D01*
X001698Y005318D01*
X001699Y005317D01*
X001699Y005315D01*
Y005278D01*
X001741D01*
Y005315D01*
Y005315D01*
X001741Y005316D01*
X001741Y005317D01*
X001742Y005317D01*
X001742Y005318D01*
X001743Y005319D01*
X001745Y005320D01*
X001746Y005320D01*
X001747D01*
X001747Y005320D01*
D02*
G37*
G36*
X001801D02*
X001802Y005320D01*
X001803Y005320D01*
X001805Y005319D01*
X001808Y005318D01*
X001811Y005317D01*
X001813Y005316D01*
X001814Y005315D01*
X001816Y005314D01*
X001817Y005312D01*
X001818Y005312D01*
X001818Y005312D01*
X001818Y005312D01*
X001819Y005311D01*
X001819Y005310D01*
X001820Y005309D01*
X001821Y005308D01*
X001821Y005307D01*
X001823Y005304D01*
X001824Y005301D01*
X001825Y005298D01*
X001825Y005296D01*
X001825Y005294D01*
Y005294D01*
Y005293D01*
Y005293D01*
X001825Y005292D01*
X001825Y005290D01*
X001825Y005289D01*
X001824Y005288D01*
X001824Y005286D01*
X001823Y005285D01*
X001823Y005283D01*
X001822Y005281D01*
X001821Y005279D01*
X001820Y005278D01*
X001818Y005276D01*
X001817Y005274D01*
X001815Y005273D01*
X001815Y005273D01*
X001815Y005272D01*
X001816Y005272D01*
X001816Y005271D01*
X001817Y005270D01*
X001818Y005270D01*
X001819Y005268D01*
X001820Y005267D01*
X001821Y005266D01*
X001822Y005264D01*
X001823Y005262D01*
X001824Y005260D01*
X001824Y005259D01*
X001825Y005256D01*
X001825Y005254D01*
X001825Y005252D01*
Y005241D01*
Y005241D01*
Y005241D01*
Y005240D01*
X001825Y005239D01*
X001825Y005238D01*
X001825Y005237D01*
X001824Y005235D01*
X001823Y005232D01*
X001822Y005229D01*
X001821Y005227D01*
X001820Y005226D01*
X001819Y005224D01*
X001817Y005223D01*
X001817Y005222D01*
X001817Y005222D01*
X001817Y005222D01*
X001816Y005221D01*
X001815Y005221D01*
X001814Y005220D01*
X001813Y005220D01*
X001812Y005219D01*
X001810Y005217D01*
X001806Y005216D01*
X001803Y005215D01*
X001801Y005215D01*
X001799Y005215D01*
X001778D01*
X001777Y005215D01*
X001776Y005215D01*
X001775Y005216D01*
X001774Y005216D01*
X001774Y005217D01*
X001773Y005218D01*
X001773Y005220D01*
Y005221D01*
X001773Y005221D01*
X001773Y005222D01*
X001773Y005223D01*
X001774Y005224D01*
X001775Y005225D01*
X001776Y005225D01*
X001778Y005226D01*
X001799D01*
X001800Y005226D01*
X001801Y005226D01*
X001803Y005226D01*
X001805Y005227D01*
X001806Y005227D01*
X001808Y005229D01*
X001810Y005230D01*
X001810Y005230D01*
X001811Y005231D01*
X001812Y005232D01*
X001812Y005233D01*
X001813Y005235D01*
X001814Y005237D01*
X001815Y005239D01*
X001815Y005241D01*
Y005252D01*
Y005252D01*
Y005252D01*
Y005253D01*
X001814Y005254D01*
X001814Y005256D01*
X001814Y005257D01*
X001813Y005259D01*
X001812Y005261D01*
X001810Y005263D01*
X001810Y005263D01*
X001809Y005264D01*
X001808Y005264D01*
X001807Y005265D01*
X001805Y005266D01*
X001803Y005267D01*
X001801Y005267D01*
X001799Y005268D01*
X001788D01*
X001788Y005268D01*
X001787Y005268D01*
X001786Y005268D01*
X001785Y005269D01*
X001784Y005270D01*
X001784Y005271D01*
X001783Y005273D01*
Y005273D01*
X001783Y005274D01*
X001784Y005274D01*
X001784Y005275D01*
X001784Y005276D01*
X001785Y005277D01*
X001787Y005278D01*
X001788Y005278D01*
X001799D01*
X001800Y005278D01*
X001801Y005278D01*
X001803Y005279D01*
X001805Y005279D01*
X001806Y005280D01*
X001808Y005281D01*
X001810Y005283D01*
X001810Y005283D01*
X001811Y005283D01*
X001812Y005284D01*
X001812Y005286D01*
X001813Y005287D01*
X001814Y005289D01*
X001815Y005291D01*
X001815Y005294D01*
Y005294D01*
Y005294D01*
Y005295D01*
X001814Y005296D01*
X001814Y005298D01*
X001814Y005299D01*
X001813Y005301D01*
X001812Y005303D01*
X001810Y005305D01*
X001810Y005305D01*
X001809Y005306D01*
X001808Y005306D01*
X001807Y005307D01*
X001805Y005308D01*
X001803Y005309D01*
X001801Y005309D01*
X001799Y005310D01*
X001778D01*
X001777Y005310D01*
X001776Y005310D01*
X001775Y005310D01*
X001774Y005311D01*
X001774Y005312D01*
X001773Y005313D01*
X001773Y005315D01*
Y005315D01*
X001773Y005316D01*
X001773Y005317D01*
X001773Y005317D01*
X001774Y005318D01*
X001775Y005319D01*
X001776Y005320D01*
X001778Y005320D01*
X001800D01*
X001801Y005320D01*
D02*
G37*
G36*
X001663D02*
X001664Y005320D01*
X001665Y005319D01*
X001666Y005319D01*
X001667Y005318D01*
X001667Y005317D01*
X001667Y005315D01*
Y005315D01*
X001667Y005314D01*
X001667Y005313D01*
X001667Y005312D01*
X001666Y005311D01*
X001665Y005310D01*
X001664Y005310D01*
X001662Y005310D01*
X001640D01*
X001639Y005309D01*
X001637Y005309D01*
X001636Y005308D01*
X001634Y005308D01*
X001632Y005306D01*
X001630Y005305D01*
X001630Y005305D01*
X001629Y005304D01*
X001629Y005303D01*
X001628Y005302D01*
X001627Y005300D01*
X001626Y005298D01*
X001626Y005296D01*
X001626Y005294D01*
Y005241D01*
Y005241D01*
Y005241D01*
X001626Y005240D01*
X001626Y005239D01*
X001626Y005237D01*
X001627Y005236D01*
X001627Y005234D01*
X001629Y005232D01*
X001630Y005230D01*
X001630Y005230D01*
X001631Y005229D01*
X001632Y005229D01*
X001633Y005228D01*
X001635Y005227D01*
X001637Y005226D01*
X001639Y005226D01*
X001641Y005226D01*
X001663D01*
X001663Y005225D01*
X001664Y005225D01*
X001665Y005225D01*
X001666Y005224D01*
X001667Y005223D01*
X001667Y005222D01*
X001667Y005220D01*
Y005220D01*
X001667Y005219D01*
X001667Y005219D01*
X001667Y005218D01*
X001666Y005217D01*
X001665Y005216D01*
X001664Y005215D01*
X001662Y005215D01*
X001640D01*
X001639Y005215D01*
X001638Y005215D01*
X001637Y005215D01*
X001635Y005216D01*
X001632Y005217D01*
X001629Y005218D01*
X001627Y005219D01*
X001626Y005220D01*
X001624Y005221D01*
X001623Y005223D01*
X001622Y005223D01*
X001622Y005223D01*
X001622Y005223D01*
X001621Y005224D01*
X001621Y005225D01*
X001620Y005226D01*
X001620Y005227D01*
X001619Y005228D01*
X001617Y005231D01*
X001616Y005234D01*
X001615Y005237D01*
X001615Y005239D01*
X001615Y005241D01*
Y005294D01*
Y005294D01*
Y005294D01*
Y005295D01*
X001615Y005296D01*
X001615Y005297D01*
X001615Y005298D01*
X001616Y005300D01*
X001617Y005303D01*
X001618Y005306D01*
X001619Y005308D01*
X001620Y005309D01*
X001621Y005311D01*
X001623Y005312D01*
X001623Y005312D01*
X001623Y005313D01*
X001623Y005313D01*
X001624Y005314D01*
X001625Y005314D01*
X001626Y005315D01*
X001627Y005316D01*
X001628Y005316D01*
X001631Y005318D01*
X001634Y005319D01*
X001637Y005320D01*
X001639Y005320D01*
X001641Y005320D01*
X001663D01*
X001663Y005320D01*
D02*
G37*
G36*
X002365Y004368D02*
X002366Y004368D01*
X002367Y004367D01*
X002368Y004367D01*
X002369Y004366D01*
X002370Y004364D01*
X002370Y004363D01*
Y004268D01*
Y004268D01*
X002370Y004267D01*
X002370Y004266D01*
X002369Y004265D01*
X002369Y004264D01*
X002368Y004264D01*
X002366Y004263D01*
X002365Y004263D01*
X002364D01*
X002364Y004263D01*
X002363Y004263D01*
X002362Y004263D01*
X002361Y004264D01*
X002360Y004265D01*
X002360Y004266D01*
X002359Y004268D01*
Y004315D01*
X002317D01*
Y004268D01*
Y004268D01*
X002317Y004267D01*
X002317Y004266D01*
X002317Y004265D01*
X002316Y004264D01*
X002315Y004264D01*
X002314Y004263D01*
X002312Y004263D01*
X002312D01*
X002311Y004263D01*
X002310Y004263D01*
X002309Y004263D01*
X002308Y004264D01*
X002308Y004265D01*
X002307Y004266D01*
X002307Y004268D01*
Y004363D01*
Y004363D01*
X002307Y004363D01*
X002307Y004364D01*
X002308Y004365D01*
X002308Y004366D01*
X002309Y004367D01*
X002310Y004368D01*
X002312Y004368D01*
X002312D01*
X002313Y004368D01*
X002314Y004368D01*
X002315Y004367D01*
X002316Y004367D01*
X002317Y004366D01*
X002317Y004364D01*
X002317Y004363D01*
Y004326D01*
X002359D01*
Y004363D01*
Y004363D01*
X002360Y004363D01*
X002360Y004364D01*
X002360Y004365D01*
X002361Y004366D01*
X002362Y004367D01*
X002363Y004368D01*
X002365Y004368D01*
X002365D01*
X002365Y004368D01*
D02*
G37*
G36*
X002419D02*
X002420Y004368D01*
X002421Y004367D01*
X002423Y004367D01*
X002426Y004366D01*
X002430Y004364D01*
X002431Y004364D01*
X002433Y004363D01*
X002434Y004361D01*
X002436Y004360D01*
X002436Y004360D01*
X002436Y004360D01*
X002436Y004359D01*
X002437Y004359D01*
X002437Y004358D01*
X002438Y004357D01*
X002439Y004356D01*
X002440Y004355D01*
X002441Y004352D01*
X002442Y004349D01*
X002443Y004345D01*
X002443Y004344D01*
X002443Y004341D01*
Y004341D01*
Y004341D01*
Y004341D01*
X002443Y004340D01*
X002443Y004339D01*
X002443Y004337D01*
X002442Y004335D01*
X002441Y004332D01*
X002440Y004329D01*
X002439Y004326D01*
X002405Y004273D01*
X002438D01*
X002439Y004273D01*
X002440Y004273D01*
X002441Y004273D01*
X002442Y004272D01*
X002443Y004271D01*
X002443Y004270D01*
X002443Y004268D01*
Y004268D01*
X002443Y004267D01*
X002443Y004266D01*
X002443Y004265D01*
X002442Y004264D01*
X002441Y004264D01*
X002440Y004263D01*
X002438Y004263D01*
X002396D01*
X002395Y004263D01*
X002394Y004263D01*
X002394Y004263D01*
X002393Y004264D01*
X002392Y004265D01*
X002391Y004266D01*
X002391Y004268D01*
Y004268D01*
Y004268D01*
X002391Y004269D01*
X002391Y004270D01*
X002392Y004271D01*
X002430Y004333D01*
X002430Y004333D01*
X002431Y004334D01*
X002431Y004334D01*
X002432Y004336D01*
X002432Y004337D01*
X002432Y004338D01*
X002433Y004340D01*
X002433Y004341D01*
Y004342D01*
Y004342D01*
Y004343D01*
X002433Y004344D01*
X002432Y004345D01*
X002432Y004347D01*
X002431Y004349D01*
X002430Y004351D01*
X002428Y004353D01*
X002428Y004353D01*
X002427Y004353D01*
X002426Y004354D01*
X002425Y004355D01*
X002423Y004356D01*
X002422Y004357D01*
X002419Y004357D01*
X002417Y004357D01*
X002417D01*
X002416Y004357D01*
X002416D01*
X002415Y004357D01*
X002414Y004357D01*
X002413Y004356D01*
X002412Y004356D01*
X002410Y004355D01*
X002409Y004354D01*
X002408Y004353D01*
X002406Y004352D01*
X002405Y004350D01*
X002403Y004348D01*
X002402Y004346D01*
X002401Y004344D01*
Y004344D01*
X002400Y004344D01*
X002400Y004343D01*
X002399Y004343D01*
X002399Y004342D01*
X002398Y004342D01*
X002397Y004342D01*
X002396Y004341D01*
X002396D01*
X002395Y004342D01*
X002394Y004342D01*
X002394Y004342D01*
X002393Y004343D01*
X002392Y004344D01*
X002391Y004345D01*
X002391Y004347D01*
Y004347D01*
Y004347D01*
X002391Y004348D01*
X002391Y004349D01*
X002391Y004349D01*
X002392Y004350D01*
X002392Y004351D01*
X002393Y004352D01*
X002394Y004353D01*
X002395Y004355D01*
X002397Y004357D01*
X002398Y004358D01*
X002400Y004360D01*
X002402Y004362D01*
X002404Y004363D01*
X002406Y004365D01*
X002409Y004366D01*
X002411Y004367D01*
X002414Y004368D01*
X002417Y004368D01*
X002418D01*
X002419Y004368D01*
D02*
G37*
G36*
X002281D02*
X002282Y004368D01*
X002283Y004367D01*
X002284Y004367D01*
X002285Y004366D01*
X002285Y004364D01*
X002286Y004363D01*
Y004362D01*
X002285Y004362D01*
X002285Y004361D01*
X002285Y004360D01*
X002284Y004359D01*
X002283Y004358D01*
X002282Y004358D01*
X002280Y004357D01*
X002258D01*
X002257Y004357D01*
X002256Y004357D01*
X002254Y004356D01*
X002252Y004355D01*
X002250Y004354D01*
X002248Y004353D01*
X002248Y004352D01*
X002247Y004352D01*
X002247Y004351D01*
X002246Y004350D01*
X002245Y004348D01*
X002244Y004346D01*
X002244Y004344D01*
X002244Y004341D01*
Y004289D01*
Y004289D01*
Y004289D01*
X002244Y004288D01*
X002244Y004287D01*
X002244Y004285D01*
X002245Y004283D01*
X002246Y004281D01*
X002247Y004280D01*
X002248Y004278D01*
X002249Y004278D01*
X002249Y004277D01*
X002250Y004276D01*
X002251Y004276D01*
X002253Y004275D01*
X002255Y004274D01*
X002257Y004273D01*
X002259Y004273D01*
X002281D01*
X002281Y004273D01*
X002282Y004273D01*
X002283Y004273D01*
X002284Y004272D01*
X002285Y004271D01*
X002285Y004270D01*
X002286Y004268D01*
Y004268D01*
X002285Y004267D01*
X002285Y004266D01*
X002285Y004265D01*
X002284Y004264D01*
X002283Y004264D01*
X002282Y004263D01*
X002280Y004263D01*
X002258D01*
X002258Y004263D01*
X002257Y004263D01*
X002256Y004263D01*
X002253Y004264D01*
X002250Y004265D01*
X002247Y004266D01*
X002245Y004267D01*
X002244Y004268D01*
X002242Y004269D01*
X002241Y004270D01*
X002241Y004270D01*
X002241Y004271D01*
X002240Y004271D01*
X002240Y004272D01*
X002239Y004272D01*
X002238Y004273D01*
X002238Y004274D01*
X002237Y004275D01*
X002236Y004278D01*
X002234Y004281D01*
X002233Y004285D01*
X002233Y004287D01*
X002233Y004289D01*
Y004341D01*
Y004342D01*
Y004342D01*
Y004343D01*
X002233Y004343D01*
X002233Y004344D01*
X002234Y004345D01*
X002234Y004348D01*
X002235Y004351D01*
X002236Y004354D01*
X002237Y004355D01*
X002238Y004357D01*
X002239Y004359D01*
X002241Y004360D01*
X002241Y004360D01*
X002241Y004360D01*
X002242Y004361D01*
X002242Y004361D01*
X002243Y004362D01*
X002244Y004363D01*
X002245Y004363D01*
X002246Y004364D01*
X002249Y004365D01*
X002252Y004367D01*
X002256Y004368D01*
X002257Y004368D01*
X002259Y004368D01*
X002281D01*
X002281Y004368D01*
D02*
G37*
G36*
X001678Y004620D02*
X001678Y004620D01*
X001679Y004619D01*
X001680Y004619D01*
X001681Y004618D01*
X001682Y004617D01*
X001682Y004615D01*
Y004520D01*
Y004520D01*
X001682Y004519D01*
X001682Y004518D01*
X001681Y004518D01*
X001681Y004517D01*
X001680Y004516D01*
X001678Y004515D01*
X001677Y004515D01*
X001676D01*
X001676Y004515D01*
X001675Y004515D01*
X001674Y004516D01*
X001673Y004516D01*
X001672Y004517D01*
X001672Y004518D01*
X001671Y004520D01*
Y004568D01*
X001629D01*
Y004520D01*
Y004520D01*
X001629Y004519D01*
X001629Y004518D01*
X001629Y004518D01*
X001628Y004517D01*
X001627Y004516D01*
X001626Y004515D01*
X001624Y004515D01*
X001624D01*
X001623Y004515D01*
X001622Y004515D01*
X001621Y004516D01*
X001621Y004516D01*
X001620Y004517D01*
X001619Y004518D01*
X001619Y004520D01*
Y004615D01*
Y004615D01*
X001619Y004616D01*
X001619Y004617D01*
X001620Y004617D01*
X001620Y004618D01*
X001621Y004619D01*
X001622Y004620D01*
X001624Y004620D01*
X001624D01*
X001625Y004620D01*
X001626Y004620D01*
X001627Y004619D01*
X001628Y004619D01*
X001629Y004618D01*
X001629Y004617D01*
X001629Y004615D01*
Y004578D01*
X001671D01*
Y004615D01*
Y004615D01*
X001672Y004616D01*
X001672Y004617D01*
X001672Y004617D01*
X001673Y004618D01*
X001674Y004619D01*
X001675Y004620D01*
X001677Y004620D01*
X001677D01*
X001678Y004620D01*
D02*
G37*
G36*
X001730D02*
X001731Y004620D01*
X001732Y004619D01*
X001733Y004619D01*
X001734Y004618D01*
X001734Y004617D01*
X001734Y004615D01*
Y004520D01*
Y004520D01*
X001734Y004519D01*
X001734Y004518D01*
X001734Y004518D01*
X001733Y004517D01*
X001732Y004516D01*
X001731Y004515D01*
X001729Y004515D01*
X001729D01*
X001728Y004515D01*
X001727Y004515D01*
X001726Y004516D01*
X001725Y004516D01*
X001725Y004517D01*
X001724Y004518D01*
X001724Y004520D01*
Y004602D01*
X001712Y004590D01*
X001711Y004590D01*
X001711Y004589D01*
X001710Y004589D01*
X001709Y004589D01*
X001708Y004589D01*
X001708D01*
X001707Y004589D01*
X001706Y004589D01*
X001706Y004589D01*
X001705Y004590D01*
X001704Y004591D01*
X001703Y004592D01*
X001703Y004594D01*
Y004594D01*
Y004594D01*
X001703Y004595D01*
X001703Y004596D01*
X001704Y004597D01*
X001725Y004618D01*
X001725Y004618D01*
X001725Y004618D01*
X001726Y004619D01*
X001726Y004619D01*
X001728Y004620D01*
X001728Y004620D01*
X001729Y004620D01*
X001729D01*
X001730Y004620D01*
D02*
G37*
G36*
X001593D02*
X001594Y004620D01*
X001595Y004619D01*
X001596Y004619D01*
X001597Y004618D01*
X001597Y004617D01*
X001598Y004615D01*
Y004615D01*
X001597Y004614D01*
X001597Y004613D01*
X001597Y004612D01*
X001596Y004611D01*
X001595Y004610D01*
X001594Y004610D01*
X001592Y004610D01*
X001570D01*
X001569Y004609D01*
X001568Y004609D01*
X001566Y004608D01*
X001564Y004608D01*
X001562Y004606D01*
X001560Y004605D01*
X001560Y004605D01*
X001559Y004604D01*
X001559Y004603D01*
X001558Y004602D01*
X001557Y004600D01*
X001556Y004598D01*
X001556Y004596D01*
X001556Y004594D01*
Y004541D01*
Y004541D01*
Y004541D01*
X001556Y004540D01*
X001556Y004539D01*
X001556Y004537D01*
X001557Y004536D01*
X001558Y004534D01*
X001559Y004532D01*
X001560Y004530D01*
X001561Y004530D01*
X001561Y004529D01*
X001562Y004529D01*
X001563Y004528D01*
X001565Y004527D01*
X001567Y004526D01*
X001569Y004526D01*
X001571Y004526D01*
X001593D01*
X001593Y004525D01*
X001594Y004525D01*
X001595Y004525D01*
X001596Y004524D01*
X001597Y004523D01*
X001597Y004522D01*
X001598Y004520D01*
Y004520D01*
X001597Y004519D01*
X001597Y004519D01*
X001597Y004518D01*
X001596Y004517D01*
X001595Y004516D01*
X001594Y004515D01*
X001592Y004515D01*
X001570D01*
X001570Y004515D01*
X001569Y004515D01*
X001568Y004515D01*
X001565Y004516D01*
X001562Y004517D01*
X001559Y004518D01*
X001557Y004519D01*
X001556Y004520D01*
X001554Y004521D01*
X001553Y004523D01*
X001553Y004523D01*
X001553Y004523D01*
X001552Y004523D01*
X001552Y004524D01*
X001551Y004525D01*
X001550Y004526D01*
X001550Y004527D01*
X001549Y004528D01*
X001548Y004531D01*
X001546Y004534D01*
X001545Y004537D01*
X001545Y004539D01*
X001545Y004541D01*
Y004594D01*
Y004594D01*
Y004594D01*
Y004595D01*
X001545Y004596D01*
X001545Y004597D01*
X001546Y004598D01*
X001546Y004600D01*
X001547Y004603D01*
X001548Y004606D01*
X001549Y004608D01*
X001550Y004609D01*
X001551Y004611D01*
X001553Y004612D01*
X001553Y004612D01*
X001553Y004613D01*
X001554Y004613D01*
X001554Y004614D01*
X001555Y004614D01*
X001556Y004615D01*
X001557Y004616D01*
X001558Y004616D01*
X001561Y004618D01*
X001564Y004619D01*
X001568Y004620D01*
X001569Y004620D01*
X001571Y004620D01*
X001593D01*
X001593Y004620D01*
D02*
G37*
G36*
X001808Y002270D02*
X001809Y002270D01*
X001810Y002269D01*
X001810Y002269D01*
X001811Y002268D01*
X001812Y002267D01*
X001812Y002265D01*
Y002170D01*
Y002170D01*
X001812Y002169D01*
X001812Y002168D01*
X001811Y002168D01*
X001811Y002167D01*
X001810Y002166D01*
X001809Y002165D01*
X001807Y002165D01*
X001806D01*
X001806Y002165D01*
X001805Y002165D01*
X001804Y002166D01*
X001804Y002166D01*
X001803Y002167D01*
X001802Y002168D01*
X001760Y002244D01*
Y002170D01*
Y002170D01*
X001759Y002169D01*
X001759Y002168D01*
X001759Y002168D01*
X001758Y002167D01*
X001757Y002166D01*
X001756Y002165D01*
X001754Y002165D01*
X001754D01*
X001753Y002165D01*
X001753Y002165D01*
X001752Y002166D01*
X001751Y002166D01*
X001750Y002167D01*
X001749Y002168D01*
X001749Y002170D01*
Y002265D01*
Y002265D01*
X001749Y002266D01*
X001749Y002267D01*
X001750Y002267D01*
X001750Y002268D01*
X001751Y002269D01*
X001753Y002270D01*
X001754Y002270D01*
X001755D01*
X001755Y002270D01*
X001756Y002270D01*
X001757Y002269D01*
X001758Y002269D01*
X001758Y002268D01*
X001759Y002267D01*
X001802Y002191D01*
Y002265D01*
Y002265D01*
X001802Y002266D01*
X001802Y002267D01*
X001802Y002267D01*
X001803Y002268D01*
X001804Y002269D01*
X001805Y002270D01*
X001807Y002270D01*
X001807D01*
X001808Y002270D01*
D02*
G37*
G36*
X001872D02*
X001873Y002270D01*
X001874Y002270D01*
X001876Y002269D01*
X001879Y002268D01*
X001882Y002267D01*
X001884Y002266D01*
X001886Y002265D01*
X001887Y002264D01*
X001889Y002262D01*
X001889Y002262D01*
X001889Y002262D01*
X001889Y002262D01*
X001890Y002261D01*
X001890Y002260D01*
X001891Y002259D01*
X001892Y002258D01*
X001892Y002257D01*
X001894Y002255D01*
X001895Y002251D01*
X001896Y002248D01*
X001896Y002246D01*
X001896Y002244D01*
Y002191D01*
Y002191D01*
Y002191D01*
Y002190D01*
X001896Y002189D01*
X001896Y002188D01*
X001896Y002187D01*
X001895Y002185D01*
X001894Y002182D01*
X001893Y002179D01*
X001892Y002177D01*
X001891Y002176D01*
X001890Y002174D01*
X001888Y002173D01*
X001888Y002172D01*
X001888Y002172D01*
X001888Y002172D01*
X001887Y002171D01*
X001886Y002171D01*
X001885Y002170D01*
X001884Y002170D01*
X001883Y002169D01*
X001881Y002167D01*
X001877Y002166D01*
X001874Y002165D01*
X001872Y002165D01*
X001870Y002165D01*
X001838D01*
X001837Y002165D01*
X001837Y002165D01*
X001836Y002166D01*
X001835Y002166D01*
X001834Y002167D01*
X001833Y002168D01*
X001833Y002170D01*
Y002265D01*
Y002265D01*
X001833Y002266D01*
X001833Y002267D01*
X001834Y002267D01*
X001834Y002268D01*
X001835Y002269D01*
X001837Y002270D01*
X001838Y002270D01*
X001871D01*
X001872Y002270D01*
D02*
G37*
G36*
X001724D02*
X001724Y002270D01*
X001725Y002269D01*
X001726Y002269D01*
X001727Y002268D01*
X001728Y002267D01*
X001728Y002265D01*
Y002265D01*
X001728Y002264D01*
X001728Y002263D01*
X001727Y002262D01*
X001727Y002261D01*
X001726Y002260D01*
X001725Y002260D01*
X001723Y002260D01*
X001690D01*
X001689Y002259D01*
X001687Y002259D01*
X001686Y002258D01*
X001684Y002258D01*
X001682Y002256D01*
X001680Y002255D01*
X001680Y002255D01*
X001679Y002254D01*
X001679Y002253D01*
X001678Y002252D01*
X001677Y002250D01*
X001676Y002248D01*
X001676Y002246D01*
X001676Y002244D01*
Y002191D01*
Y002191D01*
Y002191D01*
X001676Y002190D01*
X001676Y002189D01*
X001676Y002187D01*
X001677Y002186D01*
X001677Y002184D01*
X001679Y002182D01*
X001680Y002180D01*
X001680Y002180D01*
X001681Y002179D01*
X001682Y002179D01*
X001683Y002178D01*
X001685Y002177D01*
X001687Y002176D01*
X001689Y002176D01*
X001691Y002176D01*
X001718D01*
Y002218D01*
X001707D01*
X001706Y002218D01*
X001705Y002218D01*
X001705Y002218D01*
X001704Y002219D01*
X001703Y002220D01*
X001702Y002221D01*
X001702Y002223D01*
Y002223D01*
X001702Y002224D01*
X001702Y002224D01*
X001703Y002225D01*
X001703Y002226D01*
X001704Y002227D01*
X001705Y002228D01*
X001707Y002228D01*
X001723D01*
X001724Y002228D01*
X001724Y002228D01*
X001725Y002227D01*
X001726Y002227D01*
X001727Y002226D01*
X001728Y002225D01*
X001728Y002223D01*
Y002170D01*
Y002170D01*
X001728Y002169D01*
X001728Y002168D01*
X001727Y002168D01*
X001727Y002167D01*
X001726Y002166D01*
X001725Y002165D01*
X001723Y002165D01*
X001690D01*
X001689Y002165D01*
X001688Y002165D01*
X001687Y002165D01*
X001685Y002166D01*
X001682Y002167D01*
X001679Y002168D01*
X001677Y002169D01*
X001676Y002170D01*
X001674Y002171D01*
X001673Y002173D01*
X001672Y002173D01*
X001672Y002173D01*
X001672Y002173D01*
X001671Y002174D01*
X001671Y002175D01*
X001670Y002176D01*
X001670Y002177D01*
X001669Y002178D01*
X001667Y002181D01*
X001666Y002184D01*
X001665Y002187D01*
X001665Y002189D01*
X001665Y002191D01*
Y002244D01*
Y002244D01*
Y002244D01*
Y002245D01*
X001665Y002246D01*
X001665Y002247D01*
X001665Y002248D01*
X001666Y002250D01*
X001667Y002253D01*
X001668Y002256D01*
X001669Y002258D01*
X001670Y002259D01*
X001671Y002261D01*
X001673Y002262D01*
X001673Y002262D01*
X001673Y002263D01*
X001673Y002263D01*
X001674Y002264D01*
X001675Y002264D01*
X001676Y002265D01*
X001677Y002266D01*
X001678Y002266D01*
X001681Y002268D01*
X001684Y002269D01*
X001687Y002270D01*
X001689Y002270D01*
X001691Y002270D01*
X001723D01*
X001724Y002270D01*
D02*
G37*
%LPC*%
G36*
X001740Y001521D02*
X001735Y001521D01*
X001731Y001518D01*
X001728Y001517D01*
X001724Y001513D01*
X001723Y001511D01*
X001722Y001509D01*
X001720Y001507D01*
X001719Y001504D01*
X001718Y001500D01*
X001717Y001496D01*
Y001496D01*
Y001494D01*
X001717Y001492D01*
X001717Y001490D01*
X001717Y001486D01*
X001718Y001483D01*
X001719Y001480D01*
X001721Y001476D01*
X001737Y001448D01*
X001737Y001447D01*
X001738Y001446D01*
X001739Y001444D01*
X001740Y001442D01*
X001741Y001442D01*
X001742Y001441D01*
X001745Y001439D01*
X001748Y001438D01*
X001752Y001437D01*
X001757Y001438D01*
X001761Y001440D01*
X001764Y001442D01*
X001768Y001446D01*
X001769Y001448D01*
X001771Y001451D01*
X001773Y001455D01*
X001774Y001459D01*
X001775Y001464D01*
Y001469D01*
Y001470D01*
Y001470D01*
X001775Y001473D01*
X001773Y001478D01*
X001771Y001482D01*
X001755Y001511D01*
X001755Y001511D01*
X001754Y001513D01*
X001753Y001514D01*
X001751Y001516D01*
X001751Y001517D01*
X001749Y001518D01*
X001747Y001519D01*
X001743Y001521D01*
X001740Y001521D01*
D02*
G37*
G36*
X002571Y001548D02*
X002571Y001548D01*
X002570Y001548D01*
X002568Y001548D01*
X002566Y001547D01*
X002564Y001546D01*
X002562Y001545D01*
X002559Y001544D01*
X002558Y001543D01*
X002542Y001527D01*
X002571Y001497D01*
X002587Y001512D01*
X002587Y001513D01*
X002588Y001514D01*
X002588Y001514D01*
X002589Y001516D01*
X002591Y001518D01*
X002592Y001521D01*
X002592Y001524D01*
X002593Y001525D01*
Y001527D01*
Y001527D01*
Y001527D01*
X002593Y001528D01*
X002592Y001530D01*
X002592Y001532D01*
X002591Y001534D01*
X002590Y001537D01*
X002588Y001539D01*
X002588Y001540D01*
X002586Y001542D01*
X002586Y001542D01*
X002586Y001542D01*
X002586Y001542D01*
X002585Y001543D01*
X002585Y001543D01*
X002584Y001544D01*
X002582Y001545D01*
X002580Y001546D01*
X002577Y001547D01*
X002575Y001548D01*
X002573Y001548D01*
X002571D01*
X002571Y001548D01*
D02*
G37*
G36*
X002542Y001459D02*
X002541Y001459D01*
X002540Y001459D01*
X002539Y001458D01*
X002537Y001458D01*
X002534Y001457D01*
X002532Y001456D01*
X002529Y001455D01*
X002528Y001454D01*
X002512Y001438D01*
X002542Y001408D01*
X002557Y001423D01*
X002558Y001424D01*
X002558Y001424D01*
X002559Y001425D01*
X002560Y001427D01*
X002561Y001429D01*
X002562Y001432D01*
X002563Y001434D01*
X002563Y001436D01*
Y001437D01*
Y001438D01*
Y001438D01*
X002563Y001439D01*
X002563Y001441D01*
X002562Y001443D01*
X002561Y001445D01*
X002560Y001447D01*
X002559Y001450D01*
X002558Y001451D01*
X002557Y001452D01*
X002556Y001452D01*
X002556Y001453D01*
X002556Y001453D01*
X002555Y001453D01*
X002555Y001454D01*
X002554Y001454D01*
X002552Y001456D01*
X002550Y001457D01*
X002548Y001458D01*
X002545Y001458D01*
X002543Y001459D01*
X002542D01*
X002542Y001459D01*
D02*
G37*
G36*
X002430Y001371D02*
X002415Y001355D01*
X002414Y001355D01*
X002414Y001354D01*
X002413Y001353D01*
X002413Y001351D01*
X002412Y001350D01*
X002412Y001348D01*
Y001348D01*
X002412Y001348D01*
X002412Y001347D01*
X002413Y001346D01*
X002413Y001345D01*
X002414Y001343D01*
X002414Y001342D01*
X002415Y001341D01*
X002415Y001341D01*
X002416Y001340D01*
X002416Y001340D01*
X002417Y001339D01*
X002418Y001339D01*
X002420Y001338D01*
X002421Y001338D01*
X002423Y001338D01*
X002423D01*
X002423Y001338D01*
X002424Y001338D01*
X002425Y001338D01*
X002426Y001339D01*
X002428Y001339D01*
X002429Y001340D01*
X002430Y001341D01*
X002445Y001356D01*
X002430Y001371D01*
D02*
G37*
G36*
X002185Y001343D02*
X002183D01*
X002182Y001343D01*
X002180Y001342D01*
X002178Y001342D01*
X002177Y001341D01*
X002177Y001340D01*
X002177Y001340D01*
X002176Y001340D01*
X002176Y001339D01*
X002176Y001338D01*
X002176Y001337D01*
X002175Y001336D01*
Y001334D01*
Y001333D01*
X002176Y001331D01*
X002176Y001329D01*
X002177Y001327D01*
X002178Y001325D01*
X002179Y001322D01*
X002181Y001319D01*
X002181Y001319D01*
X002181Y001319D01*
X002181Y001318D01*
X002182Y001317D01*
X002182Y001317D01*
X002183Y001315D01*
X002184Y001314D01*
X002185Y001313D01*
X002186Y001311D01*
X002187Y001310D01*
X002190Y001307D01*
X002193Y001303D01*
X002196Y001300D01*
X002196Y001300D01*
X002196Y001300D01*
X002197Y001299D01*
X002197Y001298D01*
X002198Y001298D01*
X002199Y001297D01*
X002200Y001296D01*
X002202Y001295D01*
X002205Y001292D01*
X002208Y001289D01*
X002211Y001287D01*
X002215Y001284D01*
X002215Y001284D01*
X002216Y001284D01*
X002217Y001284D01*
X002218Y001283D01*
X002219Y001282D01*
X002221Y001282D01*
X002224Y001281D01*
X002227Y001280D01*
X002229Y001279D01*
X002231Y001279D01*
X002232Y001279D01*
X002234Y001280D01*
X002236Y001280D01*
X002237Y001281D01*
X002237Y001282D01*
X002237Y001282D01*
X002237Y001282D01*
X002238Y001283D01*
X002238Y001284D01*
X002238Y001285D01*
X002239Y001286D01*
X002239Y001288D01*
X002239Y001289D01*
X002238Y001291D01*
X002238Y001293D01*
X002237Y001295D01*
X002236Y001297D01*
X002235Y001300D01*
X002234Y001303D01*
X002233Y001303D01*
X002233Y001303D01*
X002233Y001304D01*
X002232Y001304D01*
X002232Y001305D01*
X002231Y001307D01*
X002230Y001308D01*
X002229Y001309D01*
X002228Y001310D01*
X002227Y001312D01*
X002224Y001315D01*
X002221Y001319D01*
X002218Y001322D01*
X002218Y001322D01*
X002218Y001323D01*
X002217Y001323D01*
X002217Y001324D01*
X002216Y001324D01*
X002215Y001325D01*
X002214Y001326D01*
X002212Y001327D01*
X002209Y001330D01*
X002206Y001332D01*
X002202Y001335D01*
X002199Y001337D01*
X002199Y001338D01*
X002198Y001338D01*
X002197Y001338D01*
X002196Y001339D01*
X002195Y001339D01*
X002194Y001340D01*
X002190Y001341D01*
X002187Y001342D01*
X002185Y001343D01*
D02*
G37*
G36*
X002267Y001207D02*
X002251Y001192D01*
X002251Y001191D01*
X002250Y001190D01*
X002250Y001189D01*
X002249Y001188D01*
X002249Y001186D01*
X002249Y001185D01*
Y001185D01*
X002249Y001184D01*
X002249Y001183D01*
X002249Y001182D01*
X002249Y001181D01*
X002250Y001180D01*
X002251Y001179D01*
X002252Y001177D01*
X002274Y001155D01*
X002274Y001155D01*
X002275Y001155D01*
X002275Y001154D01*
X002276Y001154D01*
X002277Y001153D01*
X002278Y001152D01*
X002280Y001152D01*
X002281Y001152D01*
X002282D01*
X002282Y001152D01*
X002283Y001152D01*
X002284Y001152D01*
X002285Y001153D01*
X002286Y001153D01*
X002288Y001154D01*
X002289Y001155D01*
X002297Y001163D01*
X002297Y001164D01*
X002298Y001165D01*
X002298Y001166D01*
X002299Y001167D01*
X002299Y001168D01*
X002299Y001170D01*
Y001170D01*
Y001171D01*
X002299Y001171D01*
X002299Y001172D01*
X002299Y001174D01*
X002298Y001175D01*
X002297Y001176D01*
X002296Y001177D01*
X002267Y001207D01*
D02*
G37*
G36*
X001750Y001086D02*
X001748D01*
X001747Y001086D01*
X001745Y001086D01*
X001743Y001085D01*
X001742Y001084D01*
X001742Y001084D01*
X001742Y001083D01*
X001741Y001083D01*
X001741Y001082D01*
X001741Y001081D01*
X001741Y001080D01*
X001740Y001079D01*
Y001078D01*
Y001076D01*
X001741Y001074D01*
X001741Y001072D01*
X001742Y001070D01*
X001743Y001068D01*
X001744Y001065D01*
X001746Y001063D01*
X001746Y001062D01*
X001746Y001062D01*
X001746Y001062D01*
X001747Y001061D01*
X001747Y001060D01*
X001748Y001059D01*
X001749Y001058D01*
X001750Y001056D01*
X001751Y001055D01*
X001752Y001053D01*
X001755Y001050D01*
X001758Y001047D01*
X001761Y001043D01*
X001761Y001043D01*
X001761Y001043D01*
X001762Y001042D01*
X001762Y001042D01*
X001763Y001041D01*
X001764Y001040D01*
X001766Y001039D01*
X001767Y001038D01*
X001770Y001036D01*
X001773Y001033D01*
X001777Y001030D01*
X001780Y001028D01*
X001780Y001028D01*
X001781Y001027D01*
X001782Y001027D01*
X001783Y001027D01*
X001784Y001026D01*
X001786Y001025D01*
X001789Y001024D01*
X001792Y001023D01*
X001794Y001023D01*
X001796Y001023D01*
X001797Y001023D01*
X001799Y001023D01*
X001801Y001024D01*
X001802Y001025D01*
X001802Y001025D01*
X001802Y001025D01*
X001802Y001026D01*
X001803Y001027D01*
X001803Y001028D01*
X001803Y001028D01*
X001804Y001030D01*
X001804Y001031D01*
X001804Y001033D01*
X001803Y001034D01*
X001803Y001036D01*
X001802Y001038D01*
X001801Y001041D01*
X001800Y001043D01*
X001799Y001046D01*
X001798Y001046D01*
X001798Y001047D01*
X001798Y001047D01*
X001797Y001048D01*
X001797Y001049D01*
X001796Y001050D01*
X001795Y001051D01*
X001794Y001052D01*
X001793Y001054D01*
X001792Y001055D01*
X001789Y001059D01*
X001787Y001062D01*
X001783Y001066D01*
X001783Y001066D01*
X001783Y001066D01*
X001782Y001067D01*
X001782Y001067D01*
X001781Y001068D01*
X001780Y001069D01*
X001779Y001070D01*
X001777Y001071D01*
X001774Y001073D01*
X001771Y001076D01*
X001767Y001079D01*
X001764Y001081D01*
X001764Y001081D01*
X001763Y001081D01*
X001762Y001082D01*
X001761Y001082D01*
X001760Y001083D01*
X001759Y001084D01*
X001755Y001085D01*
X001752Y001086D01*
X001750Y001086D01*
D02*
G37*
G36*
X001858Y001016D02*
X001856D01*
X001854Y001016D01*
X001853Y001015D01*
X001851Y001015D01*
X001850Y001014D01*
X001850Y001013D01*
X001850Y001013D01*
X001849Y001012D01*
X001849Y001012D01*
X001849Y001011D01*
X001848Y001010D01*
X001848Y001009D01*
Y001007D01*
Y001006D01*
X001848Y001004D01*
X001849Y001002D01*
X001850Y001000D01*
X001851Y000997D01*
X001852Y000995D01*
X001853Y000992D01*
X001854Y000992D01*
X001854Y000992D01*
X001854Y000991D01*
X001855Y000990D01*
X001855Y000989D01*
X001856Y000988D01*
X001857Y000987D01*
X001858Y000986D01*
X001859Y000984D01*
X001860Y000983D01*
X001863Y000980D01*
X001866Y000976D01*
X001869Y000973D01*
X001869Y000973D01*
X001869Y000972D01*
X001870Y000972D01*
X001870Y000971D01*
X001871Y000971D01*
X001872Y000970D01*
X001873Y000969D01*
X001875Y000968D01*
X001878Y000965D01*
X001881Y000962D01*
X001884Y000960D01*
X001888Y000957D01*
X001888Y000957D01*
X001889Y000957D01*
X001890Y000956D01*
X001891Y000956D01*
X001892Y000955D01*
X001893Y000955D01*
X001896Y000953D01*
X001900Y000952D01*
X001902Y000952D01*
X001904Y000952D01*
X001905Y000952D01*
X001907Y000952D01*
X001908Y000953D01*
X001910Y000954D01*
X001910Y000954D01*
X001910Y000955D01*
X001910Y000955D01*
X001911Y000956D01*
X001911Y000957D01*
X001911Y000958D01*
X001911Y000959D01*
X001912Y000961D01*
X001911Y000962D01*
X001911Y000964D01*
X001911Y000966D01*
X001910Y000968D01*
X001909Y000970D01*
X001908Y000973D01*
X001906Y000976D01*
X001906Y000976D01*
X001906Y000976D01*
X001906Y000977D01*
X001905Y000977D01*
X001905Y000978D01*
X001904Y000979D01*
X001903Y000981D01*
X001902Y000982D01*
X001901Y000983D01*
X001900Y000985D01*
X001897Y000988D01*
X001894Y000992D01*
X001891Y000995D01*
X001891Y000995D01*
X001891Y000995D01*
X001890Y000996D01*
X001889Y000997D01*
X001889Y000997D01*
X001888Y000998D01*
X001886Y000999D01*
X001885Y001000D01*
X001882Y001003D01*
X001879Y001005D01*
X001875Y001008D01*
X001872Y001010D01*
X001871Y001010D01*
X001871Y001011D01*
X001870Y001011D01*
X001869Y001012D01*
X001868Y001012D01*
X001866Y001013D01*
X001863Y001014D01*
X001860Y001015D01*
X001858Y001016D01*
D02*
G37*
G36*
X001999Y000935D02*
X001999D01*
X001998Y000935D01*
X001997Y000935D01*
X001996Y000935D01*
X001995Y000934D01*
X001994Y000934D01*
X001993Y000933D01*
X001991Y000932D01*
X001977Y000917D01*
X002014Y000880D01*
X002029Y000895D01*
X002030Y000896D01*
X002030Y000897D01*
X002031Y000898D01*
X002031Y000899D01*
X002031Y000901D01*
X002032Y000902D01*
Y000902D01*
Y000903D01*
X002031Y000904D01*
X002031Y000905D01*
X002031Y000906D01*
X002030Y000907D01*
X002030Y000908D01*
X002029Y000910D01*
X002006Y000932D01*
X002006Y000932D01*
X002006Y000932D01*
X002005Y000933D01*
X002004Y000934D01*
X002003Y000934D01*
X002002Y000935D01*
X002000Y000935D01*
X001999Y000935D01*
D02*
G37*
G36*
X001754Y000912D02*
X001752D01*
X001750Y000911D01*
X001749Y000911D01*
X001747Y000910D01*
X001746Y000909D01*
X001746Y000909D01*
X001745Y000909D01*
X001745Y000908D01*
X001745Y000908D01*
X001745Y000907D01*
X001744Y000906D01*
X001744Y000904D01*
Y000903D01*
Y000902D01*
X001744Y000900D01*
X001745Y000898D01*
X001745Y000896D01*
X001746Y000893D01*
X001748Y000891D01*
X001749Y000888D01*
X001749Y000888D01*
X001750Y000887D01*
X001750Y000887D01*
X001750Y000886D01*
X001751Y000885D01*
X001752Y000884D01*
X001753Y000883D01*
X001754Y000882D01*
X001755Y000880D01*
X001756Y000879D01*
X001758Y000875D01*
X001761Y000872D01*
X001765Y000869D01*
X001765Y000869D01*
X001765Y000868D01*
X001765Y000868D01*
X001766Y000867D01*
X001767Y000866D01*
X001768Y000865D01*
X001769Y000864D01*
X001770Y000863D01*
X001773Y000861D01*
X001777Y000858D01*
X001780Y000856D01*
X001784Y000853D01*
X001784Y000853D01*
X001785Y000853D01*
X001785Y000852D01*
X001786Y000852D01*
X001788Y000851D01*
X001789Y000851D01*
X001792Y000849D01*
X001796Y000848D01*
X001798Y000848D01*
X001799Y000848D01*
X001801Y000848D01*
X001803Y000848D01*
X001804Y000849D01*
X001805Y000850D01*
X001806Y000850D01*
X001806Y000851D01*
X001806Y000851D01*
X001807Y000852D01*
X001807Y000853D01*
X001807Y000854D01*
X001807Y000855D01*
X001807Y000856D01*
X001807Y000858D01*
X001807Y000860D01*
X001807Y000862D01*
X001806Y000864D01*
X001805Y000866D01*
X001804Y000869D01*
X001802Y000871D01*
X001802Y000871D01*
X001802Y000872D01*
X001802Y000872D01*
X001801Y000873D01*
X001801Y000874D01*
X001800Y000875D01*
X001799Y000876D01*
X001798Y000878D01*
X001797Y000879D01*
X001796Y000881D01*
X001793Y000884D01*
X001790Y000887D01*
X001787Y000891D01*
X001787Y000891D01*
X001786Y000891D01*
X001786Y000892D01*
X001785Y000892D01*
X001784Y000893D01*
X001783Y000894D01*
X001782Y000895D01*
X001781Y000896D01*
X001778Y000899D01*
X001775Y000901D01*
X001771Y000904D01*
X001767Y000906D01*
X001767Y000906D01*
X001767Y000907D01*
X001766Y000907D01*
X001765Y000908D01*
X001764Y000908D01*
X001762Y000909D01*
X001759Y000910D01*
X001755Y000911D01*
X001754Y000912D01*
D02*
G37*
G36*
X001564Y000900D02*
X001562D01*
X001561Y000900D01*
X001559Y000900D01*
X001558Y000899D01*
X001556Y000898D01*
X001556Y000898D01*
X001556Y000898D01*
X001556Y000897D01*
X001555Y000896D01*
X001555Y000896D01*
X001555Y000895D01*
X001555Y000893D01*
Y000892D01*
Y000890D01*
X001555Y000889D01*
X001555Y000887D01*
X001556Y000885D01*
X001557Y000882D01*
X001558Y000879D01*
X001560Y000877D01*
X001560Y000877D01*
X001560Y000876D01*
X001560Y000876D01*
X001561Y000875D01*
X001561Y000874D01*
X001562Y000873D01*
X001563Y000872D01*
X001564Y000870D01*
X001565Y000869D01*
X001566Y000868D01*
X001569Y000864D01*
X001572Y000861D01*
X001575Y000858D01*
X001575Y000857D01*
X001575Y000857D01*
X001576Y000857D01*
X001577Y000856D01*
X001578Y000855D01*
X001579Y000854D01*
X001580Y000853D01*
X001581Y000852D01*
X001584Y000850D01*
X001587Y000847D01*
X001591Y000844D01*
X001594Y000842D01*
X001595Y000842D01*
X001595Y000842D01*
X001596Y000841D01*
X001597Y000841D01*
X001598Y000840D01*
X001600Y000839D01*
X001603Y000838D01*
X001606Y000837D01*
X001608Y000837D01*
X001610Y000837D01*
X001612Y000837D01*
X001613Y000837D01*
X001615Y000838D01*
X001616Y000839D01*
X001616Y000839D01*
X001616Y000840D01*
X001617Y000840D01*
X001617Y000841D01*
X001617Y000842D01*
X001618Y000843D01*
X001618Y000844D01*
X001618Y000845D01*
X001618Y000847D01*
X001618Y000849D01*
X001617Y000851D01*
X001616Y000853D01*
X001615Y000855D01*
X001614Y000858D01*
X001613Y000860D01*
X001613Y000860D01*
X001612Y000861D01*
X001612Y000861D01*
X001612Y000862D01*
X001611Y000863D01*
X001610Y000864D01*
X001610Y000865D01*
X001609Y000867D01*
X001607Y000868D01*
X001606Y000869D01*
X001604Y000873D01*
X001601Y000876D01*
X001597Y000880D01*
X001597Y000880D01*
X001597Y000880D01*
X001596Y000881D01*
X001596Y000881D01*
X001595Y000882D01*
X001594Y000883D01*
X001593Y000884D01*
X001591Y000885D01*
X001589Y000888D01*
X001585Y000890D01*
X001582Y000893D01*
X001578Y000895D01*
X001578Y000895D01*
X001577Y000895D01*
X001576Y000896D01*
X001575Y000896D01*
X001574Y000897D01*
X001573Y000898D01*
X001569Y000899D01*
X001566Y000900D01*
X001564Y000900D01*
D02*
G37*
G36*
X001947Y000881D02*
X001947D01*
X001946Y000881D01*
X001944Y000880D01*
X001943Y000880D01*
X001941Y000880D01*
X001939Y000879D01*
X001937Y000878D01*
X001936Y000876D01*
X001935Y000875D01*
X001934Y000874D01*
X001933Y000873D01*
X001932Y000871D01*
X001932Y000869D01*
X001931Y000867D01*
X001931Y000865D01*
Y000865D01*
X001931Y000864D01*
X001931Y000863D01*
X001932Y000861D01*
X001932Y000859D01*
X001933Y000858D01*
X001934Y000856D01*
X001936Y000854D01*
X001939Y000850D01*
X001962Y000872D01*
X001958Y000876D01*
X001958Y000876D01*
X001958Y000876D01*
X001957Y000877D01*
X001956Y000878D01*
X001955Y000878D01*
X001953Y000879D01*
X001951Y000880D01*
X001949Y000880D01*
X001947Y000881D01*
D02*
G37*
G36*
X001557Y000713D02*
X001556D01*
X001555Y000713D01*
X001554Y000713D01*
X001553Y000713D01*
X001551Y000712D01*
X001549Y000712D01*
X001547Y000710D01*
X001545Y000709D01*
X001545Y000708D01*
X001544Y000707D01*
X001543Y000706D01*
X001542Y000704D01*
X001542Y000702D01*
X001541Y000700D01*
X001541Y000698D01*
Y000698D01*
X001541Y000697D01*
X001541Y000695D01*
X001542Y000694D01*
X001542Y000692D01*
X001543Y000690D01*
X001544Y000688D01*
X001546Y000687D01*
X001583Y000649D01*
X001583Y000649D01*
X001583Y000649D01*
X001584Y000649D01*
X001585Y000648D01*
X001586Y000647D01*
X001587Y000646D01*
X001589Y000646D01*
X001591Y000645D01*
X001594Y000645D01*
X001594Y000645D01*
X001595D01*
X001596Y000645D01*
X001598Y000645D01*
X001599Y000646D01*
X001601Y000647D01*
X001603Y000648D01*
X001605Y000649D01*
X001605Y000650D01*
X001606Y000650D01*
X001606Y000651D01*
X001607Y000653D01*
X001608Y000654D01*
X001609Y000656D01*
X001609Y000658D01*
X001609Y000660D01*
X001609Y000661D01*
Y000662D01*
X001609Y000663D01*
X001609Y000664D01*
X001608Y000666D01*
X001608Y000668D01*
X001606Y000670D01*
X001605Y000672D01*
X001568Y000709D01*
X001568Y000709D01*
X001567Y000709D01*
X001567Y000710D01*
X001566Y000710D01*
X001565Y000711D01*
X001563Y000712D01*
X001561Y000713D01*
X001559Y000713D01*
X001557Y000713D01*
D02*
G37*
G36*
X001768Y000709D02*
X001753Y000694D01*
X001753Y000693D01*
X001752Y000692D01*
X001751Y000691D01*
X001751Y000690D01*
X001751Y000688D01*
X001751Y000687D01*
Y000686D01*
X001751Y000686D01*
X001751Y000685D01*
X001751Y000684D01*
X001751Y000683D01*
X001752Y000682D01*
X001753Y000680D01*
X001754Y000679D01*
X001776Y000657D01*
X001776Y000657D01*
X001776Y000656D01*
X001777Y000656D01*
X001778Y000655D01*
X001779Y000655D01*
X001780Y000654D01*
X001782Y000654D01*
X001783Y000654D01*
X001783D01*
X001784Y000654D01*
X001785Y000654D01*
X001786Y000654D01*
X001787Y000655D01*
X001788Y000655D01*
X001789Y000656D01*
X001791Y000657D01*
X001799Y000665D01*
X001799Y000666D01*
X001800Y000666D01*
X001800Y000667D01*
X001801Y000669D01*
X001801Y000670D01*
X001801Y000672D01*
Y000672D01*
Y000672D01*
X001801Y000673D01*
X001801Y000674D01*
X001800Y000676D01*
X001800Y000677D01*
X001799Y000678D01*
X001798Y000679D01*
X001768Y000709D01*
D02*
G37*
G36*
X001716Y000657D02*
X001701Y000641D01*
X001700Y000641D01*
X001700Y000640D01*
X001699Y000639D01*
X001699Y000637D01*
X001698Y000636D01*
X001698Y000634D01*
Y000634D01*
X001698Y000634D01*
X001699Y000633D01*
X001699Y000632D01*
X001699Y000631D01*
X001700Y000629D01*
X001700Y000628D01*
X001701Y000627D01*
X001724Y000605D01*
X001724Y000605D01*
X001724Y000604D01*
X001725Y000604D01*
X001726Y000603D01*
X001727Y000603D01*
X001728Y000602D01*
X001730Y000602D01*
X001731Y000602D01*
X001731D01*
X001732Y000602D01*
X001733Y000602D01*
X001734Y000602D01*
X001735Y000602D01*
X001736Y000603D01*
X001737Y000604D01*
X001739Y000605D01*
X001747Y000613D01*
X001747Y000613D01*
X001747Y000614D01*
X001748Y000615D01*
X001749Y000617D01*
X001749Y000618D01*
X001749Y000620D01*
Y000620D01*
Y000620D01*
X001749Y000621D01*
X001749Y000622D01*
X001748Y000623D01*
X001748Y000625D01*
X001747Y000626D01*
X001746Y000627D01*
X001716Y000657D01*
D02*
G37*
G36*
X001631Y000600D02*
X001653Y000557D01*
X001675Y000579D01*
X001631Y000600D01*
D02*
G37*
G36*
X001862Y000618D02*
X001860D01*
X001858Y000618D01*
X001856Y000618D01*
X001855Y000617D01*
X001854Y000616D01*
X001853Y000616D01*
X001853Y000615D01*
X001853Y000615D01*
X001853Y000614D01*
X001852Y000613D01*
X001852Y000612D01*
X001852Y000611D01*
Y000610D01*
Y000608D01*
X001852Y000606D01*
X001853Y000604D01*
X001853Y000602D01*
X001854Y000600D01*
X001856Y000597D01*
X001857Y000594D01*
X001857Y000594D01*
X001857Y000594D01*
X001858Y000593D01*
X001858Y000593D01*
X001859Y000592D01*
X001860Y000591D01*
X001860Y000589D01*
X001861Y000588D01*
X001862Y000587D01*
X001864Y000585D01*
X001866Y000582D01*
X001869Y000579D01*
X001872Y000575D01*
X001872Y000575D01*
X001873Y000575D01*
X001873Y000574D01*
X001874Y000574D01*
X001875Y000573D01*
X001876Y000572D01*
X001877Y000571D01*
X001878Y000570D01*
X001881Y000567D01*
X001884Y000565D01*
X001888Y000562D01*
X001892Y000560D01*
X001892Y000560D01*
X001892Y000559D01*
X001893Y000559D01*
X001894Y000558D01*
X001896Y000558D01*
X001897Y000557D01*
X001900Y000556D01*
X001904Y000555D01*
X001906Y000555D01*
X001907Y000554D01*
X001909Y000555D01*
X001911Y000555D01*
X001912Y000556D01*
X001913Y000556D01*
X001913Y000557D01*
X001914Y000557D01*
X001914Y000558D01*
X001914Y000558D01*
X001915Y000559D01*
X001915Y000560D01*
X001915Y000561D01*
X001915Y000563D01*
X001915Y000564D01*
X001915Y000566D01*
X001914Y000568D01*
X001914Y000570D01*
X001913Y000573D01*
X001912Y000575D01*
X001910Y000578D01*
X001910Y000578D01*
X001910Y000578D01*
X001909Y000579D01*
X001909Y000580D01*
X001908Y000581D01*
X001908Y000582D01*
X001907Y000583D01*
X001906Y000584D01*
X001905Y000586D01*
X001904Y000587D01*
X001901Y000591D01*
X001898Y000594D01*
X001895Y000597D01*
X001895Y000597D01*
X001894Y000598D01*
X001894Y000598D01*
X001893Y000599D01*
X001892Y000600D01*
X001891Y000601D01*
X001890Y000602D01*
X001889Y000603D01*
X001886Y000605D01*
X001883Y000608D01*
X001879Y000610D01*
X001875Y000613D01*
X001875Y000613D01*
X001875Y000613D01*
X001874Y000614D01*
X001873Y000614D01*
X001872Y000615D01*
X001870Y000615D01*
X001867Y000617D01*
X001863Y000618D01*
X001862Y000618D01*
D02*
G37*
G36*
X001765Y000482D02*
X001750Y000467D01*
X001765Y000453D01*
X001780Y000467D01*
X001765Y000482D01*
D02*
G37*
G36*
X001870Y002260D02*
X001844D01*
Y002176D01*
X001870D01*
X001871Y002176D01*
X001872Y002176D01*
X001874Y002176D01*
X001875Y002177D01*
X001877Y002177D01*
X001879Y002179D01*
X001881Y002180D01*
X001881Y002180D01*
X001882Y002181D01*
X001882Y002182D01*
X001883Y002183D01*
X001884Y002185D01*
X001885Y002187D01*
X001886Y002189D01*
X001886Y002191D01*
Y002244D01*
Y002244D01*
Y002244D01*
Y002245D01*
X001885Y002246D01*
X001885Y002248D01*
X001885Y002249D01*
X001884Y002251D01*
X001882Y002253D01*
X001881Y002255D01*
X001881Y002255D01*
X001880Y002256D01*
X001879Y002256D01*
X001878Y002257D01*
X001876Y002258D01*
X001874Y002259D01*
X001872Y002259D01*
X001870Y002260D01*
D02*
G37*
%LPD*%
D10*
X002007Y005554D02*
X002842Y006388D01*
X002495Y006635D02*
X002545Y006685D01*
X001710Y005851D02*
X001760Y005900D01*
X002545Y006685D02*
X002559Y006671D01*
X001710Y005851D02*
X001724Y005836D01*
X001993Y005568D02*
X002007Y005554D01*
X002827Y006402D02*
X002842Y006388D01*
X002007Y002554D02*
X002842Y003388D01*
X002495Y003635D02*
X002545Y003685D01*
X001710Y002851D02*
X001760Y002900D01*
X002545Y003685D02*
X002559Y003671D01*
X001710Y002851D02*
X001724Y002836D01*
X001993Y002568D02*
X002007Y002554D01*
X002827Y003402D02*
X002842Y003388D01*
X001741Y001674D02*
X002306Y002239D01*
X002589Y001956D01*
X002024Y001391D02*
X002589Y001956D01*
X001741Y001674D02*
X002024Y001391D01*
D11*
X001876Y007104D02*
X002003D01*
X001876Y006786D02*
X002003D01*
X002016Y006913D02*
Y006976D01*
X001864Y006913D02*
Y006976D01*
X002051Y007104D02*
X002178D01*
X002051Y006786D02*
X002178D01*
X002191Y006913D02*
Y006976D01*
X002039Y006913D02*
Y006976D01*
X001707Y006718D02*
X001834D01*
X001707Y006401D02*
X001834D01*
X001846Y006528D02*
Y006592D01*
X001694Y006528D02*
Y006592D01*
X001532Y006718D02*
X001659D01*
X001532Y006401D02*
X001659D01*
X001671Y006528D02*
Y006592D01*
X001519Y006528D02*
Y006592D01*
X002051Y004103D02*
X002178D01*
X002051Y003786D02*
X002178D01*
X002191Y003913D02*
Y003976D01*
X002039Y003913D02*
Y003976D01*
X001876Y004103D02*
X002003D01*
X001876Y003786D02*
X002003D01*
X002016Y003913D02*
Y003976D01*
X001864Y003913D02*
Y003976D01*
X001707Y003766D02*
X001834D01*
X001707Y003448D02*
X001834D01*
X001846Y003575D02*
Y003639D01*
X001694Y003575D02*
Y003639D01*
X001532Y003766D02*
X001659D01*
X001532Y003448D02*
X001659D01*
X001671Y003575D02*
Y003639D01*
X001519Y003575D02*
Y003639D01*
D12*
X000931Y001266D02*
Y007921D01*
X001385Y001304D02*
Y007921D01*
X001348Y001266D02*
X001385Y001304D01*
X000931Y001266D02*
X001348D01*
X000931Y007921D02*
X001385D01*
X000423Y001268D02*
Y007922D01*
X000877Y001305D02*
Y007922D01*
X000840Y001268D02*
X000877Y001305D01*
X000423Y001268D02*
X000840D01*
X000423Y007922D02*
X000877D01*
X002073Y007623D02*
X002173D01*
Y007573D01*
X002157Y007557D01*
X002123D01*
X002107Y007573D01*
Y007623D01*
Y007590D02*
X002073Y007557D01*
Y007473D02*
X002173D01*
X002123Y007523D01*
Y007457D01*
X002057Y007423D02*
Y007357D01*
X002073Y007257D02*
Y007323D01*
X002140Y007257D01*
X002157D01*
X002173Y007273D01*
Y007307D01*
X002157Y007323D01*
X001898Y007623D02*
X001998D01*
Y007573D01*
X001982Y007557D01*
X001948D01*
X001932Y007573D01*
Y007623D01*
Y007590D02*
X001898Y007557D01*
Y007473D02*
X001998D01*
X001948Y007523D01*
Y007457D01*
X001882Y007423D02*
Y007357D01*
X001898Y007323D02*
Y007290D01*
Y007307D01*
X001998D01*
X001982Y007323D01*
X001729Y007238D02*
X001829D01*
Y007188D01*
X001812Y007172D01*
X001779D01*
X001762Y007188D01*
Y007238D01*
Y007205D02*
X001729Y007172D01*
X001812Y007138D02*
X001829Y007122D01*
Y007088D01*
X001812Y007072D01*
X001795D01*
X001779Y007088D01*
Y007105D01*
Y007088D01*
X001762Y007072D01*
X001745D01*
X001729Y007088D01*
Y007122D01*
X001745Y007138D01*
X001712Y007038D02*
Y006972D01*
X001729Y006872D02*
Y006938D01*
X001795Y006872D01*
X001812D01*
X001829Y006888D01*
Y006922D01*
X001812Y006938D01*
X001554Y007238D02*
X001654D01*
Y007188D01*
X001637Y007172D01*
X001604D01*
X001587Y007188D01*
Y007238D01*
Y007205D02*
X001554Y007172D01*
X001637Y007138D02*
X001654Y007122D01*
Y007088D01*
X001637Y007072D01*
X001620D01*
X001604Y007088D01*
Y007105D01*
Y007088D01*
X001587Y007072D01*
X001570D01*
X001554Y007088D01*
Y007122D01*
X001570Y007138D01*
X001537Y007038D02*
Y006972D01*
X001554Y006938D02*
Y006905D01*
Y006922D01*
X001654D01*
X001637Y006938D01*
X002073Y004623D02*
X002173D01*
Y004573D01*
X002157Y004557D01*
X002123D01*
X002107Y004573D01*
Y004623D01*
Y004590D02*
X002073Y004557D01*
Y004457D02*
Y004523D01*
X002140Y004457D01*
X002157D01*
X002173Y004473D01*
Y004507D01*
X002157Y004523D01*
X002057Y004423D02*
Y004357D01*
X002073Y004257D02*
Y004323D01*
X002140Y004257D01*
X002157D01*
X002173Y004273D01*
Y004307D01*
X002157Y004323D01*
X001898Y004623D02*
X001998D01*
Y004573D01*
X001982Y004557D01*
X001948D01*
X001932Y004573D01*
Y004623D01*
Y004590D02*
X001898Y004557D01*
Y004457D02*
Y004523D01*
X001965Y004457D01*
X001982D01*
X001998Y004473D01*
Y004507D01*
X001982Y004523D01*
X001882Y004423D02*
Y004357D01*
X001898Y004323D02*
Y004290D01*
Y004307D01*
X001998D01*
X001982Y004323D01*
X001729Y004273D02*
X001828D01*
Y004223D01*
X001812Y004207D01*
X001778D01*
X001762Y004223D01*
Y004273D01*
Y004240D02*
X001729Y004207D01*
Y004173D02*
Y004140D01*
Y004157D01*
X001828D01*
X001812Y004173D01*
X001712Y004090D02*
Y004023D01*
X001729Y003923D02*
Y003990D01*
X001795Y003923D01*
X001812D01*
X001828Y003940D01*
Y003973D01*
X001812Y003990D01*
X001554Y004273D02*
X001653D01*
Y004223D01*
X001637Y004207D01*
X001603D01*
X001587Y004223D01*
Y004273D01*
Y004240D02*
X001554Y004207D01*
Y004173D02*
Y004140D01*
Y004157D01*
X001653D01*
X001637Y004173D01*
X001537Y004090D02*
Y004023D01*
X001554Y003990D02*
Y003957D01*
Y003973D01*
X001653D01*
X001637Y003990D01*
X002682Y007065D02*
X002748Y006965D01*
Y007065D02*
X002682Y006965D01*
X002848D02*
X002782D01*
X002848Y007032D01*
Y007048D01*
X002832Y007065D01*
X002798D01*
X002782Y007048D01*
X002698Y004065D02*
X002765Y003965D01*
Y004065D02*
X002698Y003965D01*
X002798D02*
X002832D01*
X002815D01*
Y004065D01*
X002798Y004048D01*
X000182Y007905D02*
Y007805D01*
Y007855D01*
X000248D01*
Y007905D01*
Y007805D01*
X000348D02*
X000282D01*
X000348Y007872D01*
Y007888D01*
X000332Y007905D01*
X000298D01*
X000282Y007888D01*
X001448Y007915D02*
Y007815D01*
Y007865D01*
X001515D01*
Y007915D01*
Y007815D01*
X001548D02*
X001582D01*
X001565D01*
Y007915D01*
X001548Y007898D01*
M02*
