G04*
G04 #@! TF.GenerationSoftware,Altium Limited,Altium Designer,23.3.1 (30)*
G04*
G04 Layer_Physical_Order=1*
G04 Layer_Color=5064179*
%FSAX42Y42*%
%MOMM*%
G71*
G04*
G04 #@! TF.SameCoordinates,5ADB3FF5-DAAB-47E5-B02F-B6147A610591*
G04*
G04*
G04 #@! TF.FilePolarity,Positive*
G04*
G01*
G75*
G04:AMPARAMS|DCode=23|XSize=2.1mm|YSize=3mm|CornerRadius=0.21mm|HoleSize=0mm|Usage=FLASHONLY|Rotation=45.000|XOffset=0mm|YOffset=0mm|HoleType=Round|Shape=RoundedRectangle|*
%AMROUNDEDRECTD23*
21,1,2.10,2.58,0,0,45.0*
21,1,1.68,3.00,0,0,45.0*
1,1,0.42,1.51,-0.32*
1,1,0.42,0.32,-1.51*
1,1,0.42,-1.51,0.32*
1,1,0.42,-0.32,1.51*
%
%ADD23ROUNDEDRECTD23*%
G04:AMPARAMS|DCode=24|XSize=0.8mm|YSize=1.6mm|CornerRadius=0mm|HoleSize=0mm|Usage=FLASHONLY|Rotation=45.000|XOffset=0mm|YOffset=0mm|HoleType=Round|Shape=Rectangle|*
%AMROTATEDRECTD24*
4,1,4,0.28,-0.85,-0.85,0.28,-0.28,0.85,0.85,-0.28,0.28,-0.85,0.0*
%
%ADD24ROTATEDRECTD24*%

G04:AMPARAMS|DCode=25|XSize=0.8mm|YSize=1.6mm|CornerRadius=0.08mm|HoleSize=0mm|Usage=FLASHONLY|Rotation=45.000|XOffset=0mm|YOffset=0mm|HoleType=Round|Shape=RoundedRectangle|*
%AMROUNDEDRECTD25*
21,1,0.80,1.44,0,0,45.0*
21,1,0.64,1.60,0,0,45.0*
1,1,0.16,0.74,-0.28*
1,1,0.16,0.28,-0.74*
1,1,0.16,-0.74,0.28*
1,1,0.16,-0.28,0.74*
%
%ADD25ROUNDEDRECTD25*%
%ADD26R,1.30X0.80*%
%ADD27C,0.60*%
%ADD28C,0.80*%
%ADD29C,0.40*%
G04:AMPARAMS|DCode=30|XSize=8mm|YSize=4mm|CornerRadius=0mm|HoleSize=0mm|Usage=FLASHONLY|Rotation=45.000|XOffset=0mm|YOffset=0mm|HoleType=Round|Shape=Rectangle|*
%AMROTATEDRECTD30*
4,1,4,-1.41,-4.24,-4.24,-1.41,1.41,4.24,4.24,1.41,-1.41,-4.24,0.0*
%
%ADD30ROTATEDRECTD30*%

%ADD31R,1.50X1.50*%
%ADD32C,1.50*%
%ADD33C,6.35*%
%ADD34C,1.30*%
%ADD35C,1.27*%
%ADD36C,0.60*%
G36*
X003315Y007515D02*
Y001515D01*
X001915Y000115D01*
X001015D01*
X000576Y000554D01*
X000581Y000567D01*
X000629Y000578D01*
X000679Y000599D01*
X000725Y000627D01*
X000766Y000662D01*
X000801Y000703D01*
X000829Y000749D01*
X000850Y000799D01*
X000863Y000852D01*
X000867Y000906D01*
X000863Y000959D01*
X000850Y001012D01*
X000829Y001062D01*
X000801Y001108D01*
X000766Y001149D01*
X000725Y001184D01*
X000679Y001212D01*
X000629Y001233D01*
X000577Y001245D01*
X000523Y001249D01*
X000469Y001245D01*
X000417Y001233D01*
X000367Y001212D01*
X000321Y001184D01*
X000280Y001149D01*
X000245Y001108D01*
X000217Y001062D01*
X000196Y001012D01*
X000184Y000964D01*
X000172Y000958D01*
X000115Y001015D01*
Y001915D01*
X000315D01*
X000335Y001916D01*
X000373Y001924D01*
X000409Y001939D01*
X000412Y001940D01*
X000422Y001934D01*
X000422Y001928D01*
X000425Y001902D01*
X000435Y001877D01*
X000451Y001856D01*
X000472Y001840D01*
X000497Y001830D01*
X000523Y001827D01*
X000549Y001830D01*
X000574Y001840D01*
X000595Y001856D01*
X000611Y001877D01*
X000621Y001902D01*
X000624Y001928D01*
X000621Y001954D01*
X000611Y001979D01*
X000595Y002000D01*
X000574Y002016D01*
X000549Y002026D01*
X000523Y002029D01*
X000508Y002027D01*
X000499Y002039D01*
X000506Y002057D01*
X000511Y002082D01*
X000523Y002081D01*
X000549Y002084D01*
X000574Y002094D01*
X000595Y002110D01*
X000611Y002131D01*
X000621Y002156D01*
X000624Y002182D01*
X000621Y002208D01*
X000611Y002233D01*
X000595Y002254D01*
X000574Y002270D01*
X000549Y002280D01*
X000523Y002283D01*
X000515Y002290D01*
Y002328D01*
X000523Y002335D01*
X000549Y002338D01*
X000574Y002348D01*
X000595Y002364D01*
X000611Y002385D01*
X000621Y002410D01*
X000624Y002436D01*
X000621Y002462D01*
X000611Y002487D01*
X000595Y002508D01*
X000574Y002524D01*
X000549Y002534D01*
X000523Y002537D01*
X000515Y002544D01*
Y002582D01*
X000523Y002589D01*
X000549Y002592D01*
X000574Y002602D01*
X000595Y002618D01*
X000611Y002639D01*
X000621Y002664D01*
X000624Y002690D01*
X000621Y002716D01*
X000611Y002741D01*
X000595Y002762D01*
X000574Y002778D01*
X000549Y002788D01*
X000523Y002791D01*
X000515Y002798D01*
Y002836D01*
X000523Y002843D01*
X000549Y002846D01*
X000574Y002856D01*
X000595Y002872D01*
X000611Y002893D01*
X000621Y002918D01*
X000624Y002944D01*
X000621Y002970D01*
X000611Y002995D01*
X000595Y003016D01*
X000574Y003032D01*
X000549Y003042D01*
X000523Y003045D01*
X000515Y003052D01*
Y003090D01*
X000523Y003097D01*
X000549Y003100D01*
X000574Y003110D01*
X000595Y003126D01*
X000611Y003147D01*
X000621Y003172D01*
X000624Y003198D01*
X000621Y003224D01*
X000611Y003249D01*
X000595Y003270D01*
X000574Y003286D01*
X000549Y003296D01*
X000523Y003299D01*
X000515Y003306D01*
X000515Y003344D01*
X000523Y003351D01*
X000549Y003354D01*
X000574Y003364D01*
X000595Y003380D01*
X000611Y003401D01*
X000621Y003426D01*
X000624Y003452D01*
X000621Y003478D01*
X000611Y003503D01*
X000595Y003524D01*
X000574Y003540D01*
X000549Y003550D01*
X000523Y003553D01*
X000515Y003560D01*
Y003598D01*
X000523Y003605D01*
X000549Y003608D01*
X000574Y003618D01*
X000595Y003634D01*
X000611Y003655D01*
X000621Y003680D01*
X000624Y003706D01*
X000621Y003732D01*
X000611Y003757D01*
X000595Y003778D01*
X000574Y003794D01*
X000549Y003804D01*
X000523Y003807D01*
X000515Y003814D01*
Y003852D01*
X000523Y003859D01*
X000549Y003862D01*
X000574Y003872D01*
X000595Y003888D01*
X000611Y003909D01*
X000621Y003934D01*
X000624Y003960D01*
X000621Y003986D01*
X000611Y004011D01*
X000595Y004032D01*
X000574Y004048D01*
X000549Y004058D01*
X000523Y004061D01*
X000515Y004068D01*
Y004106D01*
X000523Y004113D01*
X000549Y004116D01*
X000574Y004126D01*
X000595Y004142D01*
X000611Y004163D01*
X000621Y004188D01*
X000624Y004214D01*
X000621Y004240D01*
X000611Y004265D01*
X000595Y004286D01*
X000574Y004302D01*
X000549Y004312D01*
X000523Y004315D01*
X000515Y004322D01*
Y004360D01*
X000523Y004367D01*
X000549Y004370D01*
X000574Y004380D01*
X000595Y004396D01*
X000611Y004417D01*
X000621Y004442D01*
X000624Y004468D01*
X000621Y004494D01*
X000611Y004519D01*
X000595Y004540D01*
X000574Y004556D01*
X000549Y004566D01*
X000523Y004569D01*
X000515Y004576D01*
Y004614D01*
X000523Y004621D01*
X000549Y004624D01*
X000574Y004634D01*
X000595Y004650D01*
X000611Y004671D01*
X000621Y004696D01*
X000624Y004722D01*
X000621Y004748D01*
X000611Y004773D01*
X000595Y004794D01*
X000574Y004810D01*
X000549Y004820D01*
X000523Y004823D01*
X000515Y004830D01*
Y004868D01*
X000523Y004875D01*
X000549Y004878D01*
X000574Y004888D01*
X000595Y004904D01*
X000611Y004925D01*
X000621Y004950D01*
X000624Y004976D01*
X000621Y005002D01*
X000611Y005027D01*
X000595Y005048D01*
X000574Y005064D01*
X000549Y005074D01*
X000523Y005077D01*
X000515Y005084D01*
Y005122D01*
X000523Y005129D01*
X000549Y005132D01*
X000574Y005142D01*
X000595Y005158D01*
X000611Y005179D01*
X000621Y005204D01*
X000624Y005230D01*
X000621Y005256D01*
X000611Y005281D01*
X000595Y005302D01*
X000574Y005318D01*
X000549Y005328D01*
X000523Y005331D01*
X000515Y005338D01*
Y005376D01*
X000523Y005383D01*
X000549Y005386D01*
X000574Y005396D01*
X000595Y005412D01*
X000611Y005433D01*
X000621Y005458D01*
X000624Y005484D01*
X000621Y005510D01*
X000611Y005535D01*
X000595Y005556D01*
X000574Y005572D01*
X000549Y005582D01*
X000523Y005585D01*
X000515Y005592D01*
Y005630D01*
X000523Y005637D01*
X000549Y005640D01*
X000574Y005650D01*
X000595Y005666D01*
X000611Y005687D01*
X000621Y005712D01*
X000624Y005738D01*
X000621Y005764D01*
X000611Y005789D01*
X000595Y005810D01*
X000574Y005826D01*
X000549Y005836D01*
X000523Y005839D01*
X000515Y005846D01*
Y005884D01*
X000523Y005891D01*
X000549Y005894D01*
X000574Y005904D01*
X000595Y005920D01*
X000611Y005941D01*
X000621Y005966D01*
X000624Y005992D01*
X000621Y006018D01*
X000611Y006043D01*
X000595Y006064D01*
X000574Y006080D01*
X000549Y006090D01*
X000523Y006093D01*
X000515Y006100D01*
Y006138D01*
X000523Y006145D01*
X000549Y006148D01*
X000574Y006158D01*
X000595Y006174D01*
X000611Y006195D01*
X000621Y006220D01*
X000624Y006246D01*
X000621Y006272D01*
X000611Y006297D01*
X000595Y006318D01*
X000574Y006334D01*
X000549Y006344D01*
X000523Y006347D01*
X000515Y006354D01*
Y006392D01*
X000523Y006399D01*
X000549Y006402D01*
X000574Y006412D01*
X000595Y006428D01*
X000611Y006449D01*
X000621Y006474D01*
X000624Y006500D01*
X000621Y006526D01*
X000611Y006551D01*
X000595Y006572D01*
X000574Y006588D01*
X000549Y006598D01*
X000523Y006601D01*
X000515Y006608D01*
Y006646D01*
X000523Y006653D01*
X000549Y006656D01*
X000574Y006666D01*
X000595Y006682D01*
X000611Y006703D01*
X000621Y006728D01*
X000624Y006754D01*
X000621Y006780D01*
X000611Y006805D01*
X000595Y006826D01*
X000574Y006842D01*
X000549Y006852D01*
X000523Y006855D01*
X000515Y006862D01*
Y006900D01*
X000523Y006907D01*
X000549Y006910D01*
X000574Y006920D01*
X000595Y006936D01*
X000611Y006957D01*
X000621Y006982D01*
X000624Y007008D01*
X000621Y007034D01*
X000611Y007059D01*
X000595Y007080D01*
X000574Y007096D01*
X000549Y007106D01*
X000523Y007109D01*
X000497Y007106D01*
X000472Y007096D01*
X000451Y007080D01*
X000444Y007070D01*
X000442Y007070D01*
X000409Y007091D01*
X000373Y007106D01*
X000335Y007114D01*
X000315Y007115D01*
X000115Y007115D01*
X000115Y008115D01*
X000181Y008181D01*
X000193Y008177D01*
X000196Y008165D01*
X000217Y008115D01*
X000245Y008069D01*
X000280Y008028D01*
X000321Y007993D01*
X000367Y007965D01*
X000417Y007944D01*
X000469Y007932D01*
X000523Y007928D01*
X000577Y007932D01*
X000629Y007944D01*
X000679Y007965D01*
X000725Y007993D01*
X000766Y008028D01*
X000801Y008069D01*
X000829Y008115D01*
X000850Y008165D01*
X000863Y008218D01*
X000867Y008271D01*
X000863Y008325D01*
X000850Y008378D01*
X000829Y008428D01*
X000801Y008474D01*
X000766Y008515D01*
X000725Y008550D01*
X000679Y008578D01*
X000629Y008599D01*
X000617Y008602D01*
X000614Y008614D01*
X000915Y008915D01*
X001915D01*
X003315Y007515D01*
D02*
G37*
%LPC*%
G36*
X000777Y007871D02*
X000751Y007868D01*
X000726Y007858D01*
X000705Y007842D01*
X000689Y007821D01*
X000679Y007796D01*
X000676Y007770D01*
X000679Y007744D01*
X000689Y007719D01*
X000705Y007698D01*
X000726Y007682D01*
X000751Y007672D01*
X000777Y007669D01*
X000803Y007672D01*
X000828Y007682D01*
X000849Y007698D01*
X000865Y007719D01*
X000875Y007744D01*
X000878Y007770D01*
X000875Y007796D01*
X000865Y007821D01*
X000849Y007842D01*
X000828Y007858D01*
X000803Y007868D01*
X000777Y007871D01*
D02*
G37*
G36*
X000523D02*
X000497Y007868D01*
X000472Y007858D01*
X000451Y007842D01*
X000435Y007821D01*
X000425Y007796D01*
X000422Y007770D01*
X000425Y007744D01*
X000435Y007719D01*
X000451Y007698D01*
X000472Y007682D01*
X000497Y007672D01*
X000523Y007669D01*
X000549Y007672D01*
X000574Y007682D01*
X000595Y007698D01*
X000611Y007719D01*
X000621Y007744D01*
X000624Y007770D01*
X000621Y007796D01*
X000611Y007821D01*
X000595Y007842D01*
X000574Y007858D01*
X000549Y007868D01*
X000523Y007871D01*
D02*
G37*
G36*
X001285Y007870D02*
X001259Y007867D01*
X001234Y007857D01*
X001213Y007841D01*
X001197Y007820D01*
X001187Y007795D01*
X001184Y007769D01*
X001187Y007743D01*
X001197Y007718D01*
X001213Y007697D01*
X001234Y007681D01*
X001259Y007671D01*
X001285Y007668D01*
X001311Y007671D01*
X001336Y007681D01*
X001357Y007697D01*
X001373Y007718D01*
X001383Y007743D01*
X001386Y007769D01*
X001383Y007795D01*
X001373Y007820D01*
X001357Y007841D01*
X001336Y007857D01*
X001311Y007867D01*
X001285Y007870D01*
D02*
G37*
G36*
X001031D02*
X001005Y007867D01*
X000980Y007857D01*
X000959Y007841D01*
X000943Y007820D01*
X000933Y007795D01*
X000930Y007769D01*
X000933Y007743D01*
X000943Y007718D01*
X000959Y007697D01*
X000980Y007681D01*
X001005Y007671D01*
X001031Y007668D01*
X001057Y007671D01*
X001082Y007681D01*
X001103Y007697D01*
X001119Y007718D01*
X001129Y007743D01*
X001132Y007769D01*
X001129Y007795D01*
X001119Y007820D01*
X001103Y007841D01*
X001082Y007857D01*
X001057Y007867D01*
X001031Y007870D01*
D02*
G37*
G36*
X000777Y007617D02*
X000751Y007614D01*
X000726Y007604D01*
X000705Y007588D01*
X000689Y007567D01*
X000679Y007542D01*
X000676Y007516D01*
X000679Y007490D01*
X000689Y007465D01*
X000705Y007444D01*
X000726Y007428D01*
X000751Y007418D01*
X000777Y007415D01*
X000803Y007418D01*
X000828Y007428D01*
X000849Y007444D01*
X000865Y007465D01*
X000875Y007490D01*
X000878Y007516D01*
X000875Y007542D01*
X000865Y007567D01*
X000849Y007588D01*
X000828Y007604D01*
X000803Y007614D01*
X000777Y007617D01*
D02*
G37*
G36*
X000523D02*
X000497Y007614D01*
X000472Y007604D01*
X000451Y007588D01*
X000435Y007567D01*
X000425Y007542D01*
X000422Y007516D01*
X000425Y007490D01*
X000435Y007465D01*
X000451Y007444D01*
X000472Y007428D01*
X000497Y007418D01*
X000523Y007415D01*
X000549Y007418D01*
X000574Y007428D01*
X000595Y007444D01*
X000611Y007465D01*
X000621Y007490D01*
X000624Y007516D01*
X000621Y007542D01*
X000611Y007567D01*
X000595Y007588D01*
X000574Y007604D01*
X000549Y007614D01*
X000523Y007617D01*
D02*
G37*
G36*
X001285Y007616D02*
X001259Y007613D01*
X001234Y007603D01*
X001213Y007587D01*
X001197Y007566D01*
X001187Y007541D01*
X001184Y007515D01*
X001187Y007489D01*
X001197Y007464D01*
X001213Y007443D01*
X001234Y007427D01*
X001259Y007417D01*
X001285Y007414D01*
X001311Y007417D01*
X001336Y007427D01*
X001357Y007443D01*
X001373Y007464D01*
X001383Y007489D01*
X001386Y007515D01*
X001383Y007541D01*
X001373Y007566D01*
X001357Y007587D01*
X001336Y007603D01*
X001311Y007613D01*
X001285Y007616D01*
D02*
G37*
G36*
X001031D02*
X001005Y007613D01*
X000980Y007603D01*
X000959Y007587D01*
X000943Y007566D01*
X000933Y007541D01*
X000930Y007515D01*
X000933Y007489D01*
X000943Y007464D01*
X000959Y007443D01*
X000980Y007427D01*
X001005Y007417D01*
X001031Y007414D01*
X001057Y007417D01*
X001082Y007427D01*
X001103Y007443D01*
X001119Y007464D01*
X001129Y007489D01*
X001132Y007515D01*
X001129Y007541D01*
X001119Y007566D01*
X001103Y007587D01*
X001082Y007603D01*
X001057Y007613D01*
X001031Y007616D01*
D02*
G37*
G36*
X000777Y007363D02*
X000751Y007360D01*
X000726Y007350D01*
X000705Y007334D01*
X000689Y007313D01*
X000679Y007288D01*
X000676Y007262D01*
X000679Y007236D01*
X000689Y007211D01*
X000705Y007190D01*
X000726Y007174D01*
X000751Y007164D01*
X000777Y007161D01*
X000803Y007164D01*
X000828Y007174D01*
X000849Y007190D01*
X000865Y007211D01*
X000875Y007236D01*
X000878Y007262D01*
X000875Y007288D01*
X000865Y007313D01*
X000849Y007334D01*
X000828Y007350D01*
X000803Y007360D01*
X000777Y007363D01*
D02*
G37*
G36*
X000523D02*
X000497Y007360D01*
X000472Y007350D01*
X000451Y007334D01*
X000435Y007313D01*
X000425Y007288D01*
X000422Y007262D01*
X000425Y007236D01*
X000435Y007211D01*
X000451Y007190D01*
X000472Y007174D01*
X000497Y007164D01*
X000523Y007161D01*
X000549Y007164D01*
X000574Y007174D01*
X000595Y007190D01*
X000611Y007211D01*
X000621Y007236D01*
X000624Y007262D01*
X000621Y007288D01*
X000611Y007313D01*
X000595Y007334D01*
X000574Y007350D01*
X000549Y007360D01*
X000523Y007363D01*
D02*
G37*
G36*
X001285Y007362D02*
X001259Y007359D01*
X001234Y007349D01*
X001213Y007333D01*
X001197Y007312D01*
X001187Y007287D01*
X001184Y007261D01*
X001187Y007235D01*
X001197Y007210D01*
X001213Y007189D01*
X001234Y007173D01*
X001259Y007163D01*
X001285Y007160D01*
X001311Y007163D01*
X001336Y007173D01*
X001357Y007189D01*
X001373Y007210D01*
X001383Y007235D01*
X001386Y007261D01*
X001383Y007287D01*
X001373Y007312D01*
X001357Y007333D01*
X001336Y007349D01*
X001311Y007359D01*
X001285Y007362D01*
D02*
G37*
G36*
X001031D02*
X001005Y007359D01*
X000980Y007349D01*
X000959Y007333D01*
X000943Y007312D01*
X000933Y007287D01*
X000930Y007261D01*
X000933Y007235D01*
X000943Y007210D01*
X000959Y007189D01*
X000980Y007173D01*
X001005Y007163D01*
X001031Y007160D01*
X001057Y007163D01*
X001082Y007173D01*
X001103Y007189D01*
X001119Y007210D01*
X001129Y007235D01*
X001132Y007261D01*
X001129Y007287D01*
X001119Y007312D01*
X001103Y007333D01*
X001082Y007349D01*
X001057Y007359D01*
X001031Y007362D01*
D02*
G37*
G36*
X002365Y007252D02*
X002342Y007249D01*
X002320Y007240D01*
X002302Y007226D01*
X002296Y007219D01*
X002115D01*
X002093Y007215D01*
X002075Y007203D01*
X002063Y007184D01*
X002059Y007163D01*
Y007105D01*
X001997D01*
Y007163D01*
X001992Y007184D01*
X001980Y007203D01*
X001962Y007215D01*
X001940Y007219D01*
X001918Y007215D01*
X001900Y007203D01*
X001888Y007184D01*
X001884Y007163D01*
Y007105D01*
X001850D01*
Y006975D01*
X002205D01*
Y007105D01*
X002218Y007106D01*
X002296D01*
X002302Y007099D01*
X002320Y007085D01*
X002342Y007076D01*
X002365Y007073D01*
X002388Y007076D01*
X002410Y007085D01*
X002428Y007099D01*
X002443Y007118D01*
X002452Y007139D01*
X002455Y007163D01*
X002452Y007186D01*
X002443Y007208D01*
X002428Y007226D01*
X002410Y007240D01*
X002388Y007249D01*
X002365Y007252D01*
D02*
G37*
G36*
X002115Y006916D02*
X002111Y006915D01*
X001944D01*
X001940Y006916D01*
X001936Y006915D01*
X001850D01*
Y006785D01*
X001874D01*
Y006544D01*
X001876Y006526D01*
X001883Y006511D01*
X001893Y006497D01*
X001944Y006447D01*
X001937Y006435D01*
X001926Y006437D01*
X001905Y006433D01*
X001886Y006421D01*
X001874Y006402D01*
X001870Y006381D01*
X001874Y006359D01*
X001884Y006344D01*
X001875Y006335D01*
X001861Y006344D01*
X001839Y006349D01*
X001832Y006360D01*
Y006400D01*
X001861D01*
Y006530D01*
X001774D01*
X001770Y006531D01*
X001766D01*
X001762Y006530D01*
X001599D01*
X001595Y006531D01*
X001591Y006530D01*
X001505D01*
Y006400D01*
X001529D01*
Y006181D01*
X001531Y006164D01*
X001538Y006148D01*
X001549Y006135D01*
X001664Y006020D01*
X001664Y006019D01*
X001766Y005917D01*
X001777Y005910D01*
X001790Y005907D01*
X001803Y005910D01*
X001814Y005917D01*
X001859Y005963D01*
X001866Y005974D01*
X001867Y005976D01*
X001878Y005983D01*
X001878D01*
X001971Y006075D01*
X002055Y006159D01*
X002143Y006248D01*
X002232Y006336D01*
X002320Y006425D01*
X002408Y006513D01*
X002501Y006605D01*
X002352Y006754D01*
X002346Y006748D01*
X002319Y006775D01*
X002301Y006787D01*
X002279Y006791D01*
X002279Y006791D01*
X002275D01*
X002253Y006787D01*
X002235Y006775D01*
X002223Y006757D01*
X002219Y006735D01*
X002223Y006713D01*
X002231Y006702D01*
X002222Y006692D01*
X002212Y006699D01*
X002191Y006703D01*
X002185Y006707D01*
X002181Y006714D01*
Y006785D01*
X002205D01*
Y006915D01*
X002119D01*
X002115Y006916D01*
D02*
G37*
G36*
X000777Y007109D02*
X000751Y007106D01*
X000726Y007096D01*
X000705Y007080D01*
X000689Y007059D01*
X000679Y007034D01*
X000676Y007008D01*
X000679Y006982D01*
X000689Y006957D01*
X000705Y006936D01*
X000726Y006920D01*
X000751Y006910D01*
X000777Y006907D01*
X000803Y006910D01*
X000828Y006920D01*
X000849Y006936D01*
X000865Y006957D01*
X000875Y006982D01*
X000878Y007008D01*
X000875Y007034D01*
X000865Y007059D01*
X000849Y007080D01*
X000828Y007096D01*
X000803Y007106D01*
X000777Y007109D01*
D02*
G37*
G36*
X001285Y007108D02*
X001259Y007105D01*
X001234Y007095D01*
X001213Y007079D01*
X001197Y007058D01*
X001187Y007033D01*
X001184Y007007D01*
X001187Y006981D01*
X001197Y006956D01*
X001213Y006935D01*
X001234Y006919D01*
X001259Y006909D01*
X001285Y006906D01*
X001311Y006909D01*
X001336Y006919D01*
X001357Y006935D01*
X001373Y006956D01*
X001383Y006981D01*
X001386Y007007D01*
X001383Y007033D01*
X001373Y007058D01*
X001357Y007079D01*
X001336Y007095D01*
X001311Y007105D01*
X001285Y007108D01*
D02*
G37*
G36*
X001031D02*
X001005Y007105D01*
X000980Y007095D01*
X000959Y007079D01*
X000943Y007058D01*
X000933Y007033D01*
X000930Y007007D01*
X000933Y006981D01*
X000943Y006956D01*
X000959Y006935D01*
X000980Y006919D01*
X001005Y006909D01*
X001031Y006906D01*
X001057Y006909D01*
X001082Y006919D01*
X001103Y006935D01*
X001119Y006956D01*
X001129Y006981D01*
X001132Y007007D01*
X001129Y007033D01*
X001119Y007058D01*
X001103Y007079D01*
X001082Y007095D01*
X001057Y007105D01*
X001031Y007108D01*
D02*
G37*
G36*
X001770Y006834D02*
X001749Y006830D01*
X001730Y006818D01*
X001730Y006818D01*
X001730Y006818D01*
X001718Y006799D01*
X001714Y006778D01*
X001714Y006778D01*
Y006720D01*
X001652D01*
Y006777D01*
X001652Y006778D01*
X001647Y006799D01*
X001635Y006818D01*
X001617Y006830D01*
X001595Y006834D01*
X001574Y006830D01*
X001555Y006818D01*
X001555Y006818D01*
X001555Y006818D01*
X001543Y006799D01*
X001539Y006778D01*
X001539Y006778D01*
Y006720D01*
X001505D01*
Y006590D01*
X001861D01*
Y006720D01*
X001827D01*
Y006777D01*
X001827Y006778D01*
X001822Y006799D01*
X001810Y006818D01*
X001792Y006830D01*
X001770Y006834D01*
D02*
G37*
G36*
X000777Y006855D02*
X000751Y006852D01*
X000726Y006842D01*
X000705Y006826D01*
X000689Y006805D01*
X000679Y006780D01*
X000676Y006754D01*
X000679Y006728D01*
X000689Y006703D01*
X000705Y006682D01*
X000726Y006666D01*
X000751Y006656D01*
X000777Y006653D01*
X000803Y006656D01*
X000828Y006666D01*
X000849Y006682D01*
X000865Y006703D01*
X000875Y006728D01*
X000878Y006754D01*
X000875Y006780D01*
X000865Y006805D01*
X000849Y006826D01*
X000828Y006842D01*
X000803Y006852D01*
X000777Y006855D01*
D02*
G37*
G36*
X001285Y006854D02*
X001259Y006851D01*
X001234Y006841D01*
X001213Y006825D01*
X001197Y006804D01*
X001187Y006779D01*
X001184Y006753D01*
X001187Y006727D01*
X001197Y006702D01*
X001213Y006681D01*
X001234Y006665D01*
X001259Y006655D01*
X001285Y006652D01*
X001311Y006655D01*
X001336Y006665D01*
X001357Y006681D01*
X001373Y006702D01*
X001383Y006727D01*
X001386Y006753D01*
X001383Y006779D01*
X001373Y006804D01*
X001357Y006825D01*
X001336Y006841D01*
X001311Y006851D01*
X001285Y006854D01*
D02*
G37*
G36*
X001031D02*
X001005Y006851D01*
X000980Y006841D01*
X000959Y006825D01*
X000943Y006804D01*
X000933Y006779D01*
X000930Y006753D01*
X000933Y006727D01*
X000943Y006702D01*
X000959Y006681D01*
X000980Y006665D01*
X001005Y006655D01*
X001031Y006652D01*
X001057Y006655D01*
X001082Y006665D01*
X001103Y006681D01*
X001119Y006702D01*
X001129Y006727D01*
X001132Y006753D01*
X001129Y006779D01*
X001119Y006804D01*
X001103Y006825D01*
X001082Y006841D01*
X001057Y006851D01*
X001031Y006854D01*
D02*
G37*
G36*
X002734Y006807D02*
X002716Y006803D01*
X002700Y006793D01*
X002650Y006743D01*
X002766Y006627D01*
X002849Y006711D01*
X002767Y006793D01*
X002752Y006803D01*
X002734Y006807D01*
D02*
G37*
G36*
X002632Y006725D02*
X002581Y006674D01*
X002571Y006659D01*
X002568Y006641D01*
X002571Y006623D01*
X002581Y006607D01*
X002664Y006525D01*
X002748Y006609D01*
X002632Y006725D01*
D02*
G37*
G36*
X002867Y006693D02*
X002784Y006609D01*
X002899Y006493D01*
X002950Y006544D01*
X002960Y006559D01*
X002963Y006577D01*
X002960Y006595D01*
X002950Y006611D01*
X002867Y006693D01*
D02*
G37*
G36*
X002766Y006591D02*
X002682Y006507D01*
X002764Y006425D01*
X002779Y006415D01*
X002797Y006411D01*
X002815Y006415D01*
X002831Y006425D01*
X002881Y006475D01*
X002766Y006591D01*
D02*
G37*
G36*
X000777Y006601D02*
X000751Y006598D01*
X000726Y006588D01*
X000705Y006572D01*
X000689Y006551D01*
X000679Y006526D01*
X000676Y006500D01*
X000679Y006474D01*
X000689Y006449D01*
X000705Y006428D01*
X000726Y006412D01*
X000751Y006402D01*
X000777Y006399D01*
X000803Y006402D01*
X000828Y006412D01*
X000849Y006428D01*
X000865Y006449D01*
X000875Y006474D01*
X000878Y006500D01*
X000875Y006526D01*
X000865Y006551D01*
X000849Y006572D01*
X000828Y006588D01*
X000803Y006598D01*
X000777Y006601D01*
D02*
G37*
G36*
X001285Y006600D02*
X001259Y006597D01*
X001234Y006587D01*
X001213Y006571D01*
X001197Y006550D01*
X001187Y006525D01*
X001184Y006499D01*
X001187Y006473D01*
X001197Y006448D01*
X001213Y006427D01*
X001234Y006411D01*
X001259Y006401D01*
X001285Y006398D01*
X001311Y006401D01*
X001336Y006411D01*
X001357Y006427D01*
X001373Y006448D01*
X001383Y006473D01*
X001386Y006499D01*
X001383Y006525D01*
X001373Y006550D01*
X001357Y006571D01*
X001336Y006587D01*
X001311Y006597D01*
X001285Y006600D01*
D02*
G37*
G36*
X001031D02*
X001005Y006597D01*
X000980Y006587D01*
X000959Y006571D01*
X000943Y006550D01*
X000933Y006525D01*
X000930Y006499D01*
X000933Y006473D01*
X000943Y006448D01*
X000959Y006427D01*
X000980Y006411D01*
X001005Y006401D01*
X001031Y006398D01*
X001057Y006401D01*
X001082Y006411D01*
X001103Y006427D01*
X001119Y006448D01*
X001129Y006473D01*
X001132Y006499D01*
X001129Y006525D01*
X001119Y006550D01*
X001103Y006571D01*
X001082Y006587D01*
X001057Y006597D01*
X001031Y006600D01*
D02*
G37*
G36*
X000777Y006347D02*
X000751Y006344D01*
X000726Y006334D01*
X000705Y006318D01*
X000689Y006297D01*
X000679Y006272D01*
X000676Y006246D01*
X000679Y006220D01*
X000689Y006195D01*
X000705Y006174D01*
X000726Y006158D01*
X000751Y006148D01*
X000777Y006145D01*
X000803Y006148D01*
X000828Y006158D01*
X000849Y006174D01*
X000865Y006195D01*
X000875Y006220D01*
X000878Y006246D01*
X000875Y006272D01*
X000865Y006297D01*
X000849Y006318D01*
X000828Y006334D01*
X000803Y006344D01*
X000777Y006347D01*
D02*
G37*
G36*
X001285Y006346D02*
X001259Y006343D01*
X001234Y006333D01*
X001213Y006317D01*
X001197Y006296D01*
X001187Y006271D01*
X001184Y006245D01*
X001187Y006219D01*
X001197Y006194D01*
X001213Y006173D01*
X001234Y006157D01*
X001259Y006147D01*
X001285Y006144D01*
X001311Y006147D01*
X001336Y006157D01*
X001357Y006173D01*
X001373Y006194D01*
X001383Y006219D01*
X001386Y006245D01*
X001383Y006271D01*
X001373Y006296D01*
X001357Y006317D01*
X001336Y006333D01*
X001311Y006343D01*
X001285Y006346D01*
D02*
G37*
G36*
X001031D02*
X001005Y006343D01*
X000980Y006333D01*
X000959Y006317D01*
X000943Y006296D01*
X000933Y006271D01*
X000930Y006245D01*
X000933Y006219D01*
X000943Y006194D01*
X000959Y006173D01*
X000980Y006157D01*
X001005Y006147D01*
X001031Y006144D01*
X001057Y006147D01*
X001082Y006157D01*
X001103Y006173D01*
X001119Y006194D01*
X001129Y006219D01*
X001132Y006245D01*
X001129Y006271D01*
X001119Y006296D01*
X001103Y006317D01*
X001082Y006333D01*
X001057Y006343D01*
X001031Y006346D01*
D02*
G37*
G36*
X000777Y006093D02*
X000751Y006090D01*
X000726Y006080D01*
X000705Y006064D01*
X000689Y006043D01*
X000679Y006018D01*
X000676Y005992D01*
X000679Y005966D01*
X000689Y005941D01*
X000705Y005920D01*
X000726Y005904D01*
X000751Y005894D01*
X000777Y005891D01*
X000803Y005894D01*
X000828Y005904D01*
X000849Y005920D01*
X000865Y005941D01*
X000875Y005966D01*
X000878Y005992D01*
X000875Y006018D01*
X000865Y006043D01*
X000849Y006064D01*
X000828Y006080D01*
X000803Y006090D01*
X000777Y006093D01*
D02*
G37*
G36*
X001285Y006092D02*
X001259Y006089D01*
X001234Y006079D01*
X001213Y006063D01*
X001197Y006042D01*
X001187Y006017D01*
X001184Y005991D01*
X001187Y005965D01*
X001197Y005940D01*
X001213Y005919D01*
X001234Y005903D01*
X001259Y005893D01*
X001285Y005890D01*
X001311Y005893D01*
X001336Y005903D01*
X001357Y005919D01*
X001373Y005940D01*
X001383Y005965D01*
X001386Y005991D01*
X001383Y006017D01*
X001373Y006042D01*
X001357Y006063D01*
X001336Y006079D01*
X001311Y006089D01*
X001285Y006092D01*
D02*
G37*
G36*
X001031D02*
X001005Y006089D01*
X000980Y006079D01*
X000959Y006063D01*
X000943Y006042D01*
X000933Y006017D01*
X000930Y005991D01*
X000933Y005965D01*
X000943Y005940D01*
X000959Y005919D01*
X000980Y005903D01*
X001005Y005893D01*
X001031Y005890D01*
X001057Y005893D01*
X001082Y005903D01*
X001103Y005919D01*
X001119Y005940D01*
X001129Y005965D01*
X001132Y005991D01*
X001129Y006017D01*
X001119Y006042D01*
X001103Y006063D01*
X001082Y006079D01*
X001057Y006089D01*
X001031Y006092D01*
D02*
G37*
G36*
X001754Y005828D02*
X001736Y005824D01*
X001721Y005814D01*
X001671Y005763D01*
X001786Y005648D01*
X001870Y005731D01*
X001788Y005814D01*
X001772Y005824D01*
X001754Y005828D01*
D02*
G37*
G36*
X000777Y005839D02*
X000751Y005836D01*
X000726Y005826D01*
X000705Y005810D01*
X000689Y005789D01*
X000679Y005764D01*
X000676Y005738D01*
X000679Y005712D01*
X000689Y005687D01*
X000705Y005666D01*
X000726Y005650D01*
X000751Y005640D01*
X000777Y005637D01*
X000803Y005640D01*
X000828Y005650D01*
X000849Y005666D01*
X000865Y005687D01*
X000875Y005712D01*
X000878Y005738D01*
X000875Y005764D01*
X000865Y005789D01*
X000849Y005810D01*
X000828Y005826D01*
X000803Y005836D01*
X000777Y005839D01*
D02*
G37*
G36*
X001285Y005838D02*
X001259Y005835D01*
X001234Y005825D01*
X001213Y005809D01*
X001197Y005788D01*
X001187Y005763D01*
X001184Y005737D01*
X001187Y005711D01*
X001197Y005686D01*
X001213Y005665D01*
X001234Y005649D01*
X001259Y005639D01*
X001285Y005636D01*
X001311Y005639D01*
X001336Y005649D01*
X001357Y005665D01*
X001373Y005686D01*
X001383Y005711D01*
X001386Y005737D01*
X001383Y005763D01*
X001373Y005788D01*
X001357Y005809D01*
X001336Y005825D01*
X001311Y005835D01*
X001285Y005838D01*
D02*
G37*
G36*
X001031D02*
X001005Y005835D01*
X000980Y005825D01*
X000959Y005809D01*
X000943Y005788D01*
X000933Y005763D01*
X000930Y005737D01*
X000933Y005711D01*
X000943Y005686D01*
X000959Y005665D01*
X000980Y005649D01*
X001005Y005639D01*
X001031Y005636D01*
X001057Y005639D01*
X001082Y005649D01*
X001103Y005665D01*
X001119Y005686D01*
X001129Y005711D01*
X001132Y005737D01*
X001129Y005763D01*
X001119Y005788D01*
X001103Y005809D01*
X001082Y005825D01*
X001057Y005835D01*
X001031Y005838D01*
D02*
G37*
G36*
X001653Y005745D02*
X001602Y005695D01*
X001592Y005680D01*
X001588Y005661D01*
X001592Y005643D01*
X001602Y005628D01*
X001684Y005546D01*
X001768Y005630D01*
X001653Y005745D01*
D02*
G37*
G36*
X001888Y005713D02*
X001804Y005630D01*
X001920Y005514D01*
X001970Y005564D01*
X001981Y005580D01*
X001984Y005598D01*
X001981Y005616D01*
X001970Y005631D01*
X001888Y005713D01*
D02*
G37*
G36*
X001786Y005612D02*
X001702Y005528D01*
X001785Y005446D01*
X001800Y005435D01*
X001818Y005432D01*
X001836Y005435D01*
X001851Y005446D01*
X001902Y005496D01*
X001786Y005612D01*
D02*
G37*
G36*
X000777Y005585D02*
X000751Y005582D01*
X000726Y005572D01*
X000705Y005556D01*
X000689Y005535D01*
X000679Y005510D01*
X000676Y005484D01*
X000679Y005458D01*
X000689Y005433D01*
X000705Y005412D01*
X000726Y005396D01*
X000751Y005386D01*
X000777Y005383D01*
X000803Y005386D01*
X000828Y005396D01*
X000849Y005412D01*
X000865Y005433D01*
X000875Y005458D01*
X000878Y005484D01*
X000875Y005510D01*
X000865Y005535D01*
X000849Y005556D01*
X000828Y005572D01*
X000803Y005582D01*
X000777Y005585D01*
D02*
G37*
G36*
X001285Y005584D02*
X001259Y005581D01*
X001234Y005571D01*
X001213Y005555D01*
X001197Y005534D01*
X001187Y005509D01*
X001184Y005483D01*
X001187Y005457D01*
X001197Y005432D01*
X001213Y005411D01*
X001234Y005395D01*
X001259Y005385D01*
X001285Y005382D01*
X001311Y005385D01*
X001336Y005395D01*
X001357Y005411D01*
X001373Y005432D01*
X001383Y005457D01*
X001386Y005483D01*
X001383Y005509D01*
X001373Y005534D01*
X001357Y005555D01*
X001336Y005571D01*
X001311Y005581D01*
X001285Y005584D01*
D02*
G37*
G36*
X001031D02*
X001005Y005581D01*
X000980Y005571D01*
X000959Y005555D01*
X000943Y005534D01*
X000933Y005509D01*
X000930Y005483D01*
X000933Y005457D01*
X000943Y005432D01*
X000959Y005411D01*
X000980Y005395D01*
X001005Y005385D01*
X001031Y005382D01*
X001057Y005385D01*
X001082Y005395D01*
X001103Y005411D01*
X001119Y005432D01*
X001129Y005457D01*
X001132Y005483D01*
X001129Y005509D01*
X001119Y005534D01*
X001103Y005555D01*
X001082Y005571D01*
X001057Y005581D01*
X001031Y005584D01*
D02*
G37*
G36*
X000777Y005331D02*
X000751Y005328D01*
X000726Y005318D01*
X000705Y005302D01*
X000689Y005281D01*
X000679Y005256D01*
X000676Y005230D01*
X000679Y005204D01*
X000689Y005179D01*
X000705Y005158D01*
X000726Y005142D01*
X000751Y005132D01*
X000777Y005129D01*
X000803Y005132D01*
X000828Y005142D01*
X000849Y005158D01*
X000865Y005179D01*
X000875Y005204D01*
X000878Y005230D01*
X000875Y005256D01*
X000865Y005281D01*
X000849Y005302D01*
X000828Y005318D01*
X000803Y005328D01*
X000777Y005331D01*
D02*
G37*
G36*
X001285Y005330D02*
X001259Y005327D01*
X001234Y005317D01*
X001213Y005301D01*
X001197Y005280D01*
X001187Y005255D01*
X001184Y005229D01*
X001187Y005203D01*
X001197Y005178D01*
X001213Y005157D01*
X001234Y005141D01*
X001259Y005131D01*
X001285Y005128D01*
X001311Y005131D01*
X001336Y005141D01*
X001357Y005157D01*
X001373Y005178D01*
X001383Y005203D01*
X001386Y005229D01*
X001383Y005255D01*
X001373Y005280D01*
X001357Y005301D01*
X001336Y005317D01*
X001311Y005327D01*
X001285Y005330D01*
D02*
G37*
G36*
X001031D02*
X001005Y005327D01*
X000980Y005317D01*
X000959Y005301D01*
X000943Y005280D01*
X000933Y005255D01*
X000930Y005229D01*
X000933Y005203D01*
X000943Y005178D01*
X000959Y005157D01*
X000980Y005141D01*
X001005Y005131D01*
X001031Y005128D01*
X001057Y005131D01*
X001082Y005141D01*
X001103Y005157D01*
X001119Y005178D01*
X001129Y005203D01*
X001132Y005229D01*
X001129Y005255D01*
X001119Y005280D01*
X001103Y005301D01*
X001082Y005317D01*
X001057Y005327D01*
X001031Y005330D01*
D02*
G37*
G36*
X001665Y005205D02*
X001642Y005202D01*
X001620Y005193D01*
X001602Y005178D01*
X001587Y005160D01*
X001578Y005138D01*
X001575Y005115D01*
X001578Y005092D01*
X001587Y005070D01*
X001602Y005052D01*
X001620Y005037D01*
X001642Y005028D01*
X001665Y005025D01*
X001688Y005028D01*
X001710Y005037D01*
X001728Y005052D01*
X001743Y005070D01*
X001752Y005092D01*
X001755Y005115D01*
X001752Y005138D01*
X001743Y005160D01*
X001728Y005178D01*
X001710Y005193D01*
X001688Y005202D01*
X001665Y005205D01*
D02*
G37*
G36*
X000777Y005077D02*
X000751Y005074D01*
X000726Y005064D01*
X000705Y005048D01*
X000689Y005027D01*
X000679Y005002D01*
X000676Y004976D01*
X000679Y004950D01*
X000689Y004925D01*
X000705Y004904D01*
X000726Y004888D01*
X000751Y004878D01*
X000777Y004875D01*
X000803Y004878D01*
X000828Y004888D01*
X000849Y004904D01*
X000865Y004925D01*
X000875Y004950D01*
X000878Y004976D01*
X000875Y005002D01*
X000865Y005027D01*
X000849Y005048D01*
X000828Y005064D01*
X000803Y005074D01*
X000777Y005077D01*
D02*
G37*
G36*
X001285Y005076D02*
X001259Y005073D01*
X001234Y005063D01*
X001213Y005047D01*
X001197Y005026D01*
X001187Y005001D01*
X001184Y004975D01*
X001187Y004949D01*
X001197Y004924D01*
X001213Y004903D01*
X001234Y004887D01*
X001259Y004877D01*
X001285Y004874D01*
X001311Y004877D01*
X001336Y004887D01*
X001357Y004903D01*
X001373Y004924D01*
X001383Y004949D01*
X001386Y004975D01*
X001383Y005001D01*
X001373Y005026D01*
X001357Y005047D01*
X001336Y005063D01*
X001311Y005073D01*
X001285Y005076D01*
D02*
G37*
G36*
X001031D02*
X001005Y005073D01*
X000980Y005063D01*
X000959Y005047D01*
X000943Y005026D01*
X000933Y005001D01*
X000930Y004975D01*
X000933Y004949D01*
X000943Y004924D01*
X000959Y004903D01*
X000980Y004887D01*
X001005Y004877D01*
X001031Y004874D01*
X001057Y004877D01*
X001082Y004887D01*
X001103Y004903D01*
X001119Y004924D01*
X001129Y004949D01*
X001132Y004975D01*
X001129Y005001D01*
X001119Y005026D01*
X001103Y005047D01*
X001082Y005063D01*
X001057Y005073D01*
X001031Y005076D01*
D02*
G37*
G36*
X000777Y004823D02*
X000751Y004820D01*
X000726Y004810D01*
X000705Y004794D01*
X000689Y004773D01*
X000679Y004748D01*
X000676Y004722D01*
X000679Y004696D01*
X000689Y004671D01*
X000705Y004650D01*
X000726Y004634D01*
X000751Y004624D01*
X000777Y004621D01*
X000803Y004624D01*
X000828Y004634D01*
X000849Y004650D01*
X000865Y004671D01*
X000875Y004696D01*
X000878Y004722D01*
X000875Y004748D01*
X000865Y004773D01*
X000849Y004794D01*
X000828Y004810D01*
X000803Y004820D01*
X000777Y004823D01*
D02*
G37*
G36*
X001285Y004822D02*
X001259Y004819D01*
X001234Y004809D01*
X001213Y004793D01*
X001197Y004772D01*
X001187Y004747D01*
X001184Y004721D01*
X001187Y004695D01*
X001197Y004670D01*
X001213Y004649D01*
X001234Y004633D01*
X001259Y004623D01*
X001285Y004620D01*
X001311Y004623D01*
X001336Y004633D01*
X001357Y004649D01*
X001373Y004670D01*
X001383Y004695D01*
X001386Y004721D01*
X001383Y004747D01*
X001373Y004772D01*
X001357Y004793D01*
X001336Y004809D01*
X001311Y004819D01*
X001285Y004822D01*
D02*
G37*
G36*
X001031D02*
X001005Y004819D01*
X000980Y004809D01*
X000959Y004793D01*
X000943Y004772D01*
X000933Y004747D01*
X000930Y004721D01*
X000933Y004695D01*
X000943Y004670D01*
X000959Y004649D01*
X000980Y004633D01*
X001005Y004623D01*
X001031Y004620D01*
X001057Y004623D01*
X001082Y004633D01*
X001103Y004649D01*
X001119Y004670D01*
X001129Y004695D01*
X001132Y004721D01*
X001129Y004747D01*
X001119Y004772D01*
X001103Y004793D01*
X001082Y004809D01*
X001057Y004819D01*
X001031Y004822D01*
D02*
G37*
G36*
X000777Y004569D02*
X000751Y004566D01*
X000726Y004556D01*
X000705Y004540D01*
X000689Y004519D01*
X000679Y004494D01*
X000676Y004468D01*
X000679Y004442D01*
X000689Y004417D01*
X000705Y004396D01*
X000726Y004380D01*
X000751Y004370D01*
X000777Y004367D01*
X000803Y004370D01*
X000828Y004380D01*
X000849Y004396D01*
X000865Y004417D01*
X000875Y004442D01*
X000878Y004468D01*
X000875Y004494D01*
X000865Y004519D01*
X000849Y004540D01*
X000828Y004556D01*
X000803Y004566D01*
X000777Y004569D01*
D02*
G37*
G36*
X001285Y004568D02*
X001259Y004565D01*
X001234Y004555D01*
X001213Y004539D01*
X001197Y004518D01*
X001187Y004493D01*
X001184Y004467D01*
X001187Y004441D01*
X001197Y004416D01*
X001213Y004395D01*
X001234Y004379D01*
X001259Y004369D01*
X001285Y004366D01*
X001311Y004369D01*
X001336Y004379D01*
X001357Y004395D01*
X001373Y004416D01*
X001383Y004441D01*
X001386Y004467D01*
X001383Y004493D01*
X001373Y004518D01*
X001357Y004539D01*
X001336Y004555D01*
X001311Y004565D01*
X001285Y004568D01*
D02*
G37*
G36*
X001031D02*
X001005Y004565D01*
X000980Y004555D01*
X000959Y004539D01*
X000943Y004518D01*
X000933Y004493D01*
X000930Y004467D01*
X000933Y004441D01*
X000943Y004416D01*
X000959Y004395D01*
X000980Y004379D01*
X001005Y004369D01*
X001031Y004366D01*
X001057Y004369D01*
X001082Y004379D01*
X001103Y004395D01*
X001119Y004416D01*
X001129Y004441D01*
X001132Y004467D01*
X001129Y004493D01*
X001119Y004518D01*
X001103Y004539D01*
X001082Y004555D01*
X001057Y004565D01*
X001031Y004568D01*
D02*
G37*
G36*
X000777Y004315D02*
X000751Y004312D01*
X000726Y004302D01*
X000705Y004286D01*
X000689Y004265D01*
X000679Y004240D01*
X000676Y004214D01*
X000679Y004188D01*
X000689Y004163D01*
X000705Y004142D01*
X000726Y004126D01*
X000751Y004116D01*
X000777Y004113D01*
X000803Y004116D01*
X000828Y004126D01*
X000849Y004142D01*
X000865Y004163D01*
X000875Y004188D01*
X000878Y004214D01*
X000875Y004240D01*
X000865Y004265D01*
X000849Y004286D01*
X000828Y004302D01*
X000803Y004312D01*
X000777Y004315D01*
D02*
G37*
G36*
X001285Y004314D02*
X001259Y004311D01*
X001234Y004301D01*
X001213Y004285D01*
X001197Y004264D01*
X001187Y004239D01*
X001184Y004213D01*
X001187Y004187D01*
X001197Y004162D01*
X001213Y004141D01*
X001234Y004125D01*
X001259Y004115D01*
X001285Y004112D01*
X001311Y004115D01*
X001336Y004125D01*
X001357Y004141D01*
X001373Y004162D01*
X001383Y004187D01*
X001386Y004213D01*
X001383Y004239D01*
X001373Y004264D01*
X001357Y004285D01*
X001336Y004301D01*
X001311Y004311D01*
X001285Y004314D01*
D02*
G37*
G36*
X001031D02*
X001005Y004311D01*
X000980Y004301D01*
X000959Y004285D01*
X000943Y004264D01*
X000933Y004239D01*
X000930Y004213D01*
X000933Y004187D01*
X000943Y004162D01*
X000959Y004141D01*
X000980Y004125D01*
X001005Y004115D01*
X001031Y004112D01*
X001057Y004115D01*
X001082Y004125D01*
X001103Y004141D01*
X001119Y004162D01*
X001129Y004187D01*
X001132Y004213D01*
X001129Y004239D01*
X001119Y004264D01*
X001103Y004285D01*
X001082Y004301D01*
X001057Y004311D01*
X001031Y004314D01*
D02*
G37*
G36*
X002283Y004252D02*
X002260Y004249D01*
X002238Y004240D01*
X002220Y004226D01*
X002214Y004219D01*
X002115D01*
X002093Y004215D01*
X002075Y004203D01*
X002063Y004184D01*
X002059Y004163D01*
Y004105D01*
X001997D01*
Y004163D01*
X001992Y004184D01*
X001980Y004203D01*
X001962Y004215D01*
X001940Y004219D01*
X001918Y004215D01*
X001900Y004203D01*
X001888Y004184D01*
X001884Y004163D01*
Y004105D01*
X001850D01*
Y003975D01*
X002205D01*
Y004097D01*
X002218Y004101D01*
X002220Y004099D01*
X002238Y004085D01*
X002260Y004076D01*
X002283Y004073D01*
X002306Y004076D01*
X002328Y004085D01*
X002347Y004099D01*
X002361Y004118D01*
X002370Y004139D01*
X002373Y004163D01*
X002370Y004186D01*
X002361Y004208D01*
X002347Y004226D01*
X002328Y004240D01*
X002306Y004249D01*
X002283Y004252D01*
D02*
G37*
G36*
X002115Y003916D02*
X002111Y003915D01*
X001944D01*
X001940Y003916D01*
X001936Y003915D01*
X001850D01*
Y003785D01*
X001874D01*
Y003544D01*
X001876Y003526D01*
X001883Y003511D01*
X001893Y003497D01*
X001944Y003447D01*
X001937Y003435D01*
X001926Y003437D01*
X001905Y003433D01*
X001886Y003421D01*
X001874Y003402D01*
X001870Y003381D01*
Y003380D01*
X001870Y003380D01*
X001874Y003359D01*
X001884Y003344D01*
X001875Y003335D01*
X001861Y003344D01*
X001839Y003349D01*
X001836Y003361D01*
Y003447D01*
X001861D01*
Y003578D01*
X001774D01*
X001770Y003578D01*
X001766Y003578D01*
X001599D01*
X001595Y003578D01*
X001591Y003578D01*
X001505D01*
Y003447D01*
X001529D01*
Y003181D01*
X001531Y003164D01*
X001538Y003148D01*
X001549Y003135D01*
X001664Y003020D01*
X001664Y003019D01*
X001766Y002917D01*
X001777Y002910D01*
X001790Y002907D01*
X001803Y002910D01*
X001814Y002917D01*
X001859Y002963D01*
X001866Y002974D01*
X001867Y002976D01*
X001878Y002983D01*
X001878D01*
X001971Y003075D01*
X002055Y003159D01*
X002143Y003248D01*
X002232Y003336D01*
X002320Y003425D01*
X002408Y003513D01*
X002501Y003605D01*
X002352Y003754D01*
X002346Y003748D01*
X002319Y003775D01*
X002301Y003787D01*
X002279Y003791D01*
X002279Y003791D01*
X002275D01*
X002253Y003787D01*
X002235Y003775D01*
X002223Y003757D01*
X002218Y003735D01*
X002223Y003713D01*
X002231Y003702D01*
X002222Y003692D01*
X002212Y003699D01*
X002191Y003703D01*
X002185Y003707D01*
X002181Y003714D01*
Y003785D01*
X002205D01*
Y003915D01*
X002119D01*
X002115Y003916D01*
D02*
G37*
G36*
X000777Y004061D02*
X000751Y004058D01*
X000726Y004048D01*
X000705Y004032D01*
X000689Y004011D01*
X000679Y003986D01*
X000676Y003960D01*
X000679Y003934D01*
X000689Y003909D01*
X000705Y003888D01*
X000726Y003872D01*
X000751Y003862D01*
X000777Y003859D01*
X000803Y003862D01*
X000828Y003872D01*
X000849Y003888D01*
X000865Y003909D01*
X000875Y003934D01*
X000878Y003960D01*
X000875Y003986D01*
X000865Y004011D01*
X000849Y004032D01*
X000828Y004048D01*
X000803Y004058D01*
X000777Y004061D01*
D02*
G37*
G36*
X001285Y004060D02*
X001259Y004057D01*
X001234Y004047D01*
X001213Y004031D01*
X001197Y004010D01*
X001187Y003985D01*
X001184Y003959D01*
X001187Y003933D01*
X001197Y003908D01*
X001213Y003887D01*
X001234Y003871D01*
X001259Y003861D01*
X001285Y003858D01*
X001311Y003861D01*
X001336Y003871D01*
X001357Y003887D01*
X001373Y003908D01*
X001383Y003933D01*
X001386Y003959D01*
X001383Y003985D01*
X001373Y004010D01*
X001357Y004031D01*
X001336Y004047D01*
X001311Y004057D01*
X001285Y004060D01*
D02*
G37*
G36*
X001031D02*
X001005Y004057D01*
X000980Y004047D01*
X000959Y004031D01*
X000943Y004010D01*
X000933Y003985D01*
X000930Y003959D01*
X000933Y003933D01*
X000943Y003908D01*
X000959Y003887D01*
X000980Y003871D01*
X001005Y003861D01*
X001031Y003858D01*
X001057Y003861D01*
X001082Y003871D01*
X001103Y003887D01*
X001119Y003908D01*
X001129Y003933D01*
X001132Y003959D01*
X001129Y003985D01*
X001119Y004010D01*
X001103Y004031D01*
X001082Y004047D01*
X001057Y004057D01*
X001031Y004060D01*
D02*
G37*
G36*
X001595Y004505D02*
X001572Y004502D01*
X001550Y004493D01*
X001532Y004478D01*
X001518Y004460D01*
X001509Y004438D01*
X001506Y004415D01*
X001509Y004392D01*
X001518Y004370D01*
X001532Y004352D01*
X001539Y004346D01*
Y003825D01*
Y003768D01*
X001505D01*
Y003637D01*
X001861D01*
Y003768D01*
X001827D01*
Y003825D01*
X001822Y003847D01*
X001810Y003865D01*
X001792Y003877D01*
X001770Y003881D01*
X001749Y003877D01*
X001730Y003865D01*
X001718Y003847D01*
X001714Y003825D01*
Y003768D01*
X001652D01*
Y003825D01*
Y004346D01*
X001659Y004352D01*
X001673Y004370D01*
X001682Y004392D01*
X001685Y004415D01*
X001682Y004438D01*
X001673Y004460D01*
X001659Y004478D01*
X001640Y004493D01*
X001618Y004502D01*
X001595Y004505D01*
D02*
G37*
G36*
X002734Y003807D02*
X002716Y003803D01*
X002700Y003793D01*
X002650Y003743D01*
X002766Y003627D01*
X002849Y003711D01*
X002767Y003793D01*
X002752Y003803D01*
X002734Y003807D01*
D02*
G37*
G36*
X000777Y003807D02*
X000751Y003804D01*
X000726Y003794D01*
X000705Y003778D01*
X000689Y003757D01*
X000679Y003732D01*
X000676Y003706D01*
X000679Y003680D01*
X000689Y003655D01*
X000705Y003634D01*
X000726Y003618D01*
X000751Y003608D01*
X000777Y003605D01*
X000803Y003608D01*
X000828Y003618D01*
X000849Y003634D01*
X000865Y003655D01*
X000875Y003680D01*
X000878Y003706D01*
X000875Y003732D01*
X000865Y003757D01*
X000849Y003778D01*
X000828Y003794D01*
X000803Y003804D01*
X000777Y003807D01*
D02*
G37*
G36*
X001285Y003806D02*
X001259Y003803D01*
X001234Y003793D01*
X001213Y003777D01*
X001197Y003756D01*
X001187Y003731D01*
X001184Y003705D01*
X001187Y003679D01*
X001197Y003654D01*
X001213Y003633D01*
X001234Y003617D01*
X001259Y003607D01*
X001285Y003604D01*
X001311Y003607D01*
X001336Y003617D01*
X001357Y003633D01*
X001373Y003654D01*
X001383Y003679D01*
X001386Y003705D01*
X001383Y003731D01*
X001373Y003756D01*
X001357Y003777D01*
X001336Y003793D01*
X001311Y003803D01*
X001285Y003806D01*
D02*
G37*
G36*
X001031D02*
X001005Y003803D01*
X000980Y003793D01*
X000959Y003777D01*
X000943Y003756D01*
X000933Y003731D01*
X000930Y003705D01*
X000933Y003679D01*
X000943Y003654D01*
X000959Y003633D01*
X000980Y003617D01*
X001005Y003607D01*
X001031Y003604D01*
X001057Y003607D01*
X001082Y003617D01*
X001103Y003633D01*
X001119Y003654D01*
X001129Y003679D01*
X001132Y003705D01*
X001129Y003731D01*
X001119Y003756D01*
X001103Y003777D01*
X001082Y003793D01*
X001057Y003803D01*
X001031Y003806D01*
D02*
G37*
G36*
X002632Y003725D02*
X002581Y003674D01*
X002571Y003659D01*
X002568Y003641D01*
X002571Y003623D01*
X002581Y003607D01*
X002664Y003525D01*
X002748Y003609D01*
X002632Y003725D01*
D02*
G37*
G36*
X002867Y003693D02*
X002783Y003609D01*
X002899Y003493D01*
X002950Y003544D01*
X002960Y003559D01*
X002963Y003577D01*
X002960Y003595D01*
X002950Y003611D01*
X002867Y003693D01*
D02*
G37*
G36*
X002766Y003591D02*
X002682Y003507D01*
X002764Y003425D01*
X002779Y003415D01*
X002797Y003411D01*
X002815Y003415D01*
X002831Y003425D01*
X002881Y003475D01*
X002766Y003591D01*
D02*
G37*
G36*
X000777Y003553D02*
X000751Y003550D01*
X000726Y003540D01*
X000705Y003524D01*
X000689Y003503D01*
X000679Y003478D01*
X000676Y003452D01*
X000679Y003426D01*
X000689Y003401D01*
X000705Y003380D01*
X000726Y003364D01*
X000751Y003354D01*
X000777Y003351D01*
X000803Y003354D01*
X000828Y003364D01*
X000849Y003380D01*
X000865Y003401D01*
X000875Y003426D01*
X000878Y003452D01*
X000875Y003478D01*
X000865Y003503D01*
X000849Y003524D01*
X000828Y003540D01*
X000803Y003550D01*
X000777Y003553D01*
D02*
G37*
G36*
X001285Y003552D02*
X001259Y003549D01*
X001234Y003539D01*
X001213Y003523D01*
X001197Y003502D01*
X001187Y003477D01*
X001184Y003451D01*
X001187Y003425D01*
X001197Y003400D01*
X001213Y003379D01*
X001234Y003363D01*
X001259Y003353D01*
X001285Y003350D01*
X001311Y003353D01*
X001336Y003363D01*
X001357Y003379D01*
X001373Y003400D01*
X001383Y003425D01*
X001386Y003451D01*
X001383Y003477D01*
X001373Y003502D01*
X001357Y003523D01*
X001336Y003539D01*
X001311Y003549D01*
X001285Y003552D01*
D02*
G37*
G36*
X001031D02*
X001005Y003549D01*
X000980Y003539D01*
X000959Y003523D01*
X000943Y003502D01*
X000933Y003477D01*
X000930Y003451D01*
X000933Y003425D01*
X000943Y003400D01*
X000959Y003379D01*
X000980Y003363D01*
X001005Y003353D01*
X001031Y003350D01*
X001057Y003353D01*
X001082Y003363D01*
X001103Y003379D01*
X001119Y003400D01*
X001129Y003425D01*
X001132Y003451D01*
X001129Y003477D01*
X001119Y003502D01*
X001103Y003523D01*
X001082Y003539D01*
X001057Y003549D01*
X001031Y003552D01*
D02*
G37*
G36*
X000777Y003299D02*
X000751Y003296D01*
X000726Y003286D01*
X000705Y003270D01*
X000689Y003249D01*
X000679Y003224D01*
X000676Y003198D01*
X000679Y003172D01*
X000689Y003147D01*
X000705Y003126D01*
X000726Y003110D01*
X000751Y003100D01*
X000777Y003097D01*
X000803Y003100D01*
X000828Y003110D01*
X000849Y003126D01*
X000865Y003147D01*
X000875Y003172D01*
X000878Y003198D01*
X000875Y003224D01*
X000865Y003249D01*
X000849Y003270D01*
X000828Y003286D01*
X000803Y003296D01*
X000777Y003299D01*
D02*
G37*
G36*
X001285Y003298D02*
X001259Y003295D01*
X001234Y003285D01*
X001213Y003269D01*
X001197Y003248D01*
X001187Y003223D01*
X001184Y003197D01*
X001187Y003171D01*
X001197Y003146D01*
X001213Y003125D01*
X001234Y003109D01*
X001259Y003099D01*
X001285Y003096D01*
X001311Y003099D01*
X001336Y003109D01*
X001357Y003125D01*
X001373Y003146D01*
X001383Y003171D01*
X001386Y003197D01*
X001383Y003223D01*
X001373Y003248D01*
X001357Y003269D01*
X001336Y003285D01*
X001311Y003295D01*
X001285Y003298D01*
D02*
G37*
G36*
X001031D02*
X001005Y003295D01*
X000980Y003285D01*
X000959Y003269D01*
X000943Y003248D01*
X000933Y003223D01*
X000930Y003197D01*
X000933Y003171D01*
X000943Y003146D01*
X000959Y003125D01*
X000980Y003109D01*
X001005Y003099D01*
X001031Y003096D01*
X001057Y003099D01*
X001082Y003109D01*
X001103Y003125D01*
X001119Y003146D01*
X001129Y003171D01*
X001132Y003197D01*
X001129Y003223D01*
X001119Y003248D01*
X001103Y003269D01*
X001082Y003285D01*
X001057Y003295D01*
X001031Y003298D01*
D02*
G37*
G36*
X000777Y003045D02*
X000751Y003042D01*
X000726Y003032D01*
X000705Y003016D01*
X000689Y002995D01*
X000679Y002970D01*
X000676Y002944D01*
X000679Y002918D01*
X000689Y002893D01*
X000705Y002872D01*
X000726Y002856D01*
X000751Y002846D01*
X000777Y002843D01*
X000803Y002846D01*
X000828Y002856D01*
X000849Y002872D01*
X000865Y002893D01*
X000875Y002918D01*
X000878Y002944D01*
X000875Y002970D01*
X000865Y002995D01*
X000849Y003016D01*
X000828Y003032D01*
X000803Y003042D01*
X000777Y003045D01*
D02*
G37*
G36*
X001285Y003044D02*
X001259Y003041D01*
X001234Y003031D01*
X001213Y003015D01*
X001197Y002994D01*
X001187Y002969D01*
X001184Y002943D01*
X001187Y002917D01*
X001197Y002892D01*
X001213Y002871D01*
X001234Y002855D01*
X001259Y002845D01*
X001285Y002842D01*
X001311Y002845D01*
X001336Y002855D01*
X001357Y002871D01*
X001373Y002892D01*
X001383Y002917D01*
X001386Y002943D01*
X001383Y002969D01*
X001373Y002994D01*
X001357Y003015D01*
X001336Y003031D01*
X001311Y003041D01*
X001285Y003044D01*
D02*
G37*
G36*
X001031D02*
X001005Y003041D01*
X000980Y003031D01*
X000959Y003015D01*
X000943Y002994D01*
X000933Y002969D01*
X000930Y002943D01*
X000933Y002917D01*
X000943Y002892D01*
X000959Y002871D01*
X000980Y002855D01*
X001005Y002845D01*
X001031Y002842D01*
X001057Y002845D01*
X001082Y002855D01*
X001103Y002871D01*
X001119Y002892D01*
X001129Y002917D01*
X001132Y002943D01*
X001129Y002969D01*
X001119Y002994D01*
X001103Y003015D01*
X001082Y003031D01*
X001057Y003041D01*
X001031Y003044D01*
D02*
G37*
G36*
X001754Y002828D02*
X001736Y002824D01*
X001721Y002814D01*
X001671Y002763D01*
X001786Y002648D01*
X001870Y002731D01*
X001788Y002814D01*
X001772Y002824D01*
X001754Y002828D01*
D02*
G37*
G36*
X000777Y002791D02*
X000751Y002788D01*
X000726Y002778D01*
X000705Y002762D01*
X000689Y002741D01*
X000679Y002716D01*
X000676Y002690D01*
X000679Y002664D01*
X000689Y002639D01*
X000705Y002618D01*
X000726Y002602D01*
X000751Y002592D01*
X000777Y002589D01*
X000803Y002592D01*
X000828Y002602D01*
X000849Y002618D01*
X000865Y002639D01*
X000875Y002664D01*
X000878Y002690D01*
X000875Y002716D01*
X000865Y002741D01*
X000849Y002762D01*
X000828Y002778D01*
X000803Y002788D01*
X000777Y002791D01*
D02*
G37*
G36*
X001285Y002790D02*
X001259Y002787D01*
X001234Y002777D01*
X001213Y002761D01*
X001197Y002740D01*
X001187Y002715D01*
X001184Y002689D01*
X001187Y002663D01*
X001197Y002638D01*
X001213Y002617D01*
X001234Y002601D01*
X001259Y002591D01*
X001285Y002588D01*
X001311Y002591D01*
X001336Y002601D01*
X001357Y002617D01*
X001373Y002638D01*
X001383Y002663D01*
X001386Y002689D01*
X001383Y002715D01*
X001373Y002740D01*
X001357Y002761D01*
X001336Y002777D01*
X001311Y002787D01*
X001285Y002790D01*
D02*
G37*
G36*
X001031D02*
X001005Y002787D01*
X000980Y002777D01*
X000959Y002761D01*
X000943Y002740D01*
X000933Y002715D01*
X000930Y002689D01*
X000933Y002663D01*
X000943Y002638D01*
X000959Y002617D01*
X000980Y002601D01*
X001005Y002591D01*
X001031Y002588D01*
X001057Y002591D01*
X001082Y002601D01*
X001103Y002617D01*
X001119Y002638D01*
X001129Y002663D01*
X001132Y002689D01*
X001129Y002715D01*
X001119Y002740D01*
X001103Y002761D01*
X001082Y002777D01*
X001057Y002787D01*
X001031Y002790D01*
D02*
G37*
G36*
X001653Y002745D02*
X001602Y002695D01*
X001592Y002680D01*
X001588Y002661D01*
X001592Y002643D01*
X001602Y002628D01*
X001684Y002546D01*
X001768Y002630D01*
X001653Y002745D01*
D02*
G37*
G36*
X001888Y002713D02*
X001804Y002630D01*
X001920Y002514D01*
X001970Y002564D01*
X001981Y002580D01*
X001984Y002598D01*
X001981Y002616D01*
X001970Y002631D01*
X001888Y002713D01*
D02*
G37*
G36*
X001786Y002612D02*
X001702Y002528D01*
X001785Y002446D01*
X001800Y002435D01*
X001818Y002432D01*
X001836Y002435D01*
X001851Y002446D01*
X001902Y002496D01*
X001786Y002612D01*
D02*
G37*
G36*
X000777Y002537D02*
X000751Y002534D01*
X000726Y002524D01*
X000705Y002508D01*
X000689Y002487D01*
X000679Y002462D01*
X000676Y002436D01*
X000679Y002410D01*
X000689Y002385D01*
X000705Y002364D01*
X000726Y002348D01*
X000751Y002338D01*
X000777Y002335D01*
X000803Y002338D01*
X000828Y002348D01*
X000849Y002364D01*
X000865Y002385D01*
X000875Y002410D01*
X000878Y002436D01*
X000875Y002462D01*
X000865Y002487D01*
X000849Y002508D01*
X000828Y002524D01*
X000803Y002534D01*
X000777Y002537D01*
D02*
G37*
G36*
X001285Y002536D02*
X001259Y002533D01*
X001234Y002523D01*
X001213Y002507D01*
X001197Y002486D01*
X001187Y002461D01*
X001184Y002435D01*
X001187Y002409D01*
X001197Y002384D01*
X001213Y002363D01*
X001234Y002347D01*
X001259Y002337D01*
X001285Y002334D01*
X001311Y002337D01*
X001336Y002347D01*
X001357Y002363D01*
X001373Y002384D01*
X001383Y002409D01*
X001386Y002435D01*
X001383Y002461D01*
X001373Y002486D01*
X001357Y002507D01*
X001336Y002523D01*
X001311Y002533D01*
X001285Y002536D01*
D02*
G37*
G36*
X001031D02*
X001005Y002533D01*
X000980Y002523D01*
X000959Y002507D01*
X000943Y002486D01*
X000933Y002461D01*
X000930Y002435D01*
X000933Y002409D01*
X000943Y002384D01*
X000959Y002363D01*
X000980Y002347D01*
X001005Y002337D01*
X001031Y002334D01*
X001057Y002337D01*
X001082Y002347D01*
X001103Y002363D01*
X001119Y002384D01*
X001129Y002409D01*
X001132Y002435D01*
X001129Y002461D01*
X001119Y002486D01*
X001103Y002507D01*
X001082Y002523D01*
X001057Y002533D01*
X001031Y002536D01*
D02*
G37*
G36*
X000777Y002283D02*
X000751Y002280D01*
X000726Y002270D01*
X000705Y002254D01*
X000689Y002233D01*
X000679Y002208D01*
X000676Y002182D01*
X000679Y002156D01*
X000689Y002131D01*
X000705Y002110D01*
X000726Y002094D01*
X000751Y002084D01*
X000777Y002081D01*
X000803Y002084D01*
X000828Y002094D01*
X000849Y002110D01*
X000865Y002131D01*
X000875Y002156D01*
X000878Y002182D01*
X000875Y002208D01*
X000865Y002233D01*
X000849Y002254D01*
X000828Y002270D01*
X000803Y002280D01*
X000777Y002283D01*
D02*
G37*
G36*
X001285Y002282D02*
X001259Y002279D01*
X001234Y002269D01*
X001213Y002253D01*
X001197Y002232D01*
X001187Y002207D01*
X001184Y002181D01*
X001187Y002155D01*
X001197Y002130D01*
X001213Y002109D01*
X001234Y002093D01*
X001259Y002083D01*
X001285Y002080D01*
X001311Y002083D01*
X001336Y002093D01*
X001357Y002109D01*
X001373Y002130D01*
X001383Y002155D01*
X001386Y002181D01*
X001383Y002207D01*
X001373Y002232D01*
X001357Y002253D01*
X001336Y002269D01*
X001311Y002279D01*
X001285Y002282D01*
D02*
G37*
G36*
X001031D02*
X001005Y002279D01*
X000980Y002269D01*
X000959Y002253D01*
X000943Y002232D01*
X000933Y002207D01*
X000930Y002181D01*
X000933Y002155D01*
X000943Y002130D01*
X000959Y002109D01*
X000980Y002093D01*
X001005Y002083D01*
X001031Y002080D01*
X001057Y002083D01*
X001082Y002093D01*
X001103Y002109D01*
X001119Y002130D01*
X001129Y002155D01*
X001132Y002181D01*
X001129Y002207D01*
X001119Y002232D01*
X001103Y002253D01*
X001082Y002269D01*
X001057Y002279D01*
X001031Y002282D01*
D02*
G37*
G36*
X000777Y002029D02*
X000751Y002026D01*
X000726Y002016D01*
X000705Y002000D01*
X000689Y001979D01*
X000679Y001954D01*
X000676Y001928D01*
X000679Y001902D01*
X000689Y001877D01*
X000705Y001856D01*
X000726Y001840D01*
X000751Y001830D01*
X000777Y001827D01*
X000803Y001830D01*
X000828Y001840D01*
X000849Y001856D01*
X000865Y001877D01*
X000875Y001902D01*
X000878Y001928D01*
X000875Y001954D01*
X000865Y001979D01*
X000849Y002000D01*
X000828Y002016D01*
X000803Y002026D01*
X000777Y002029D01*
D02*
G37*
G36*
X001285Y002028D02*
X001259Y002025D01*
X001234Y002015D01*
X001213Y001999D01*
X001197Y001978D01*
X001187Y001953D01*
X001184Y001927D01*
X001187Y001901D01*
X001197Y001876D01*
X001213Y001855D01*
X001234Y001839D01*
X001259Y001829D01*
X001285Y001826D01*
X001311Y001829D01*
X001336Y001839D01*
X001357Y001855D01*
X001373Y001876D01*
X001383Y001901D01*
X001386Y001927D01*
X001383Y001953D01*
X001373Y001978D01*
X001357Y001999D01*
X001336Y002015D01*
X001311Y002025D01*
X001285Y002028D01*
D02*
G37*
G36*
X001031D02*
X001005Y002025D01*
X000980Y002015D01*
X000959Y001999D01*
X000943Y001978D01*
X000933Y001953D01*
X000930Y001927D01*
X000933Y001901D01*
X000943Y001876D01*
X000959Y001855D01*
X000980Y001839D01*
X001005Y001829D01*
X001031Y001826D01*
X001057Y001829D01*
X001082Y001839D01*
X001103Y001855D01*
X001119Y001876D01*
X001129Y001901D01*
X001132Y001927D01*
X001129Y001953D01*
X001119Y001978D01*
X001103Y001999D01*
X001082Y002015D01*
X001057Y002025D01*
X001031Y002028D01*
D02*
G37*
G36*
X000777Y001775D02*
X000751Y001772D01*
X000726Y001762D01*
X000705Y001746D01*
X000689Y001725D01*
X000679Y001700D01*
X000676Y001674D01*
X000679Y001648D01*
X000689Y001623D01*
X000705Y001602D01*
X000726Y001586D01*
X000751Y001576D01*
X000777Y001573D01*
X000803Y001576D01*
X000828Y001586D01*
X000849Y001602D01*
X000865Y001623D01*
X000875Y001648D01*
X000878Y001674D01*
X000875Y001700D01*
X000865Y001725D01*
X000849Y001746D01*
X000828Y001762D01*
X000803Y001772D01*
X000777Y001775D01*
D02*
G37*
G36*
X000523D02*
X000497Y001772D01*
X000472Y001762D01*
X000451Y001746D01*
X000435Y001725D01*
X000425Y001700D01*
X000422Y001674D01*
X000425Y001648D01*
X000435Y001623D01*
X000451Y001602D01*
X000472Y001586D01*
X000497Y001576D01*
X000523Y001573D01*
X000549Y001576D01*
X000574Y001586D01*
X000595Y001602D01*
X000611Y001623D01*
X000621Y001648D01*
X000624Y001674D01*
X000621Y001700D01*
X000611Y001725D01*
X000595Y001746D01*
X000574Y001762D01*
X000549Y001772D01*
X000523Y001775D01*
D02*
G37*
G36*
X001285Y001774D02*
X001259Y001771D01*
X001234Y001761D01*
X001213Y001745D01*
X001197Y001724D01*
X001187Y001699D01*
X001184Y001673D01*
X001187Y001647D01*
X001197Y001622D01*
X001213Y001601D01*
X001234Y001585D01*
X001259Y001575D01*
X001285Y001572D01*
X001311Y001575D01*
X001336Y001585D01*
X001357Y001601D01*
X001373Y001622D01*
X001383Y001647D01*
X001386Y001673D01*
X001383Y001699D01*
X001373Y001724D01*
X001357Y001745D01*
X001336Y001761D01*
X001311Y001771D01*
X001285Y001774D01*
D02*
G37*
G36*
X001031D02*
X001005Y001771D01*
X000980Y001761D01*
X000959Y001745D01*
X000943Y001724D01*
X000933Y001699D01*
X000930Y001673D01*
X000933Y001647D01*
X000943Y001622D01*
X000959Y001601D01*
X000980Y001585D01*
X001005Y001575D01*
X001031Y001572D01*
X001057Y001575D01*
X001082Y001585D01*
X001103Y001601D01*
X001119Y001622D01*
X001129Y001647D01*
X001132Y001673D01*
X001129Y001699D01*
X001119Y001724D01*
X001103Y001745D01*
X001082Y001761D01*
X001057Y001771D01*
X001031Y001774D01*
D02*
G37*
G36*
X002306Y002265D02*
X002296Y002263D01*
X002288Y002258D01*
X001722Y001692D01*
X001717Y001683D01*
X001715Y001674D01*
X001717Y001664D01*
X001722Y001655D01*
X002005Y001372D01*
X002014Y001367D01*
X002024Y001365D01*
X002033Y001367D01*
X002042Y001372D01*
X002608Y001938D01*
X002613Y001946D01*
X002615Y001956D01*
X002613Y001966D01*
X002608Y001975D01*
X002325Y002258D01*
X002316Y002263D01*
X002306Y002265D01*
D02*
G37*
G36*
X000877Y001520D02*
X000677D01*
Y001320D01*
X000877D01*
Y001520D01*
D02*
G37*
G36*
X000523Y001521D02*
X000497Y001518D01*
X000472Y001508D01*
X000451Y001492D01*
X000435Y001471D01*
X000425Y001446D01*
X000422Y001420D01*
X000425Y001394D01*
X000435Y001369D01*
X000451Y001348D01*
X000472Y001332D01*
X000497Y001322D01*
X000523Y001319D01*
X000549Y001322D01*
X000574Y001332D01*
X000595Y001348D01*
X000611Y001369D01*
X000621Y001394D01*
X000624Y001420D01*
X000621Y001446D01*
X000611Y001471D01*
X000595Y001492D01*
X000574Y001508D01*
X000549Y001518D01*
X000523Y001521D01*
D02*
G37*
G36*
X001385Y001519D02*
X001185D01*
Y001319D01*
X001385D01*
Y001519D01*
D02*
G37*
G36*
X001031Y001520D02*
X001005Y001517D01*
X000980Y001507D01*
X000959Y001491D01*
X000943Y001470D01*
X000933Y001445D01*
X000930Y001419D01*
X000933Y001393D01*
X000943Y001368D01*
X000959Y001347D01*
X000980Y001331D01*
X001005Y001321D01*
X001031Y001318D01*
X001057Y001321D01*
X001082Y001331D01*
X001103Y001347D01*
X001119Y001368D01*
X001129Y001393D01*
X001132Y001419D01*
X001129Y001445D01*
X001119Y001470D01*
X001103Y001491D01*
X001082Y001507D01*
X001057Y001517D01*
X001031Y001520D01*
D02*
G37*
%LPD*%
D23*
X001786Y005630D02*
D03*
X002766Y006609D02*
D03*
X001786Y002630D02*
D03*
X002766Y003609D02*
D03*
D24*
X001850Y006103D02*
D03*
X001938Y006192D02*
D03*
X002027Y006280D02*
D03*
X002115Y006369D02*
D03*
X002380Y006634D02*
D03*
X002292Y006545D02*
D03*
X002203Y006457D02*
D03*
X001850Y003103D02*
D03*
X001938Y003192D02*
D03*
X002027Y003280D02*
D03*
X002115Y003369D02*
D03*
X002380Y003634D02*
D03*
X002292Y003545D02*
D03*
X002203Y003457D02*
D03*
D25*
X001761Y006015D02*
D03*
X001761Y003015D02*
D03*
D26*
X001940Y006850D02*
D03*
Y007040D02*
D03*
X002115Y006850D02*
D03*
Y007040D02*
D03*
X001770Y006465D02*
D03*
Y006655D02*
D03*
X001595Y006465D02*
D03*
Y006655D02*
D03*
X002115Y003850D02*
D03*
Y004040D02*
D03*
X001940Y003850D02*
D03*
Y004040D02*
D03*
X001770Y003512D02*
D03*
Y003702D02*
D03*
X001595Y003512D02*
D03*
Y003702D02*
D03*
D27*
X001595Y003825D02*
Y004415D01*
X002115Y004163D02*
X002283D01*
X002283Y004163D01*
X002365Y007163D02*
X002365Y007163D01*
X002115Y007163D02*
X002365D01*
X002115Y007040D02*
Y007163D01*
X002115Y007040D02*
X002115Y007040D01*
X001940Y007040D02*
X001940Y007040D01*
Y007163D01*
X001770Y006778D02*
X001770Y006778D01*
X001770Y006655D02*
Y006778D01*
X001595Y006655D02*
Y006778D01*
X001595Y006778D01*
X002115Y004040D02*
Y004163D01*
X002115Y004040D02*
X002115Y004040D01*
X001940D02*
Y004163D01*
X001940Y004040D02*
X001940Y004040D01*
X001770Y003702D02*
X001770Y003702D01*
Y003825D01*
X001595Y003702D02*
X001595Y003702D01*
Y003825D01*
X002279Y003735D02*
X002380Y003634D01*
X002380D01*
X002275Y003735D02*
X002279D01*
X002191Y003646D02*
X002292Y003545D01*
X002292D01*
X002188Y003646D02*
X002191D01*
X001926Y003380D02*
Y003381D01*
X002027Y003280D02*
Y003280D01*
X001926Y003380D02*
X002027Y003280D01*
X001839Y003291D02*
Y003292D01*
X001938Y003192D02*
Y003192D01*
X001839Y003291D02*
X001938Y003192D01*
X002279Y006735D02*
X002380Y006634D01*
X002275Y006735D02*
X002279D01*
X002380Y006634D02*
X002380D01*
X002191Y006646D02*
X002292Y006545D01*
X002188Y006646D02*
X002191D01*
X002292Y006545D02*
X002292D01*
X002027Y006280D02*
Y006281D01*
X001926Y006381D02*
X002027Y006281D01*
X001839Y006291D02*
X001938Y006192D01*
D28*
X002115Y006708D02*
Y006850D01*
X002092Y006686D02*
X002115Y006708D01*
X002092Y006568D02*
Y006686D01*
Y006568D02*
X002203Y006457D01*
X001940Y006544D02*
Y006850D01*
Y006544D02*
X002115Y006369D01*
X001744Y006209D02*
Y006332D01*
X001766Y006354D02*
Y006465D01*
X001744Y006332D02*
X001766Y006354D01*
X001744Y006209D02*
X001850Y006103D01*
X001766Y006465D02*
X001770D01*
X001595Y006181D02*
Y006465D01*
Y006181D02*
X001761Y006015D01*
X002092Y003568D02*
X002203Y003457D01*
X002092Y003568D02*
Y003686D01*
X002115Y003709D02*
Y003850D01*
X002092Y003686D02*
X002115Y003709D01*
X001716Y003304D02*
X001770Y003358D01*
Y003512D01*
X001716Y003237D02*
Y003304D01*
Y003237D02*
X001850Y003103D01*
X001595Y003181D02*
X001761Y003015D01*
X001595Y003181D02*
Y003512D01*
X001940Y003544D02*
X002115Y003369D01*
X001940Y003544D02*
Y003850D01*
D29*
X002115Y003369D02*
X002115D01*
X002203Y006457D02*
X002203D01*
X002115Y006369D02*
X002115D01*
X001839Y006291D02*
Y006292D01*
X001938Y006192D02*
Y006192D01*
X001761Y006015D02*
Y006017D01*
D30*
X002165Y001815D02*
D03*
D31*
X001285Y001419D02*
D03*
X000777Y001420D02*
D03*
D32*
X001031Y001419D02*
D03*
X001285Y001673D02*
D03*
X001031D02*
D03*
X001285Y001927D02*
D03*
X001031D02*
D03*
X001285Y002181D02*
D03*
X001031D02*
D03*
X001285Y002435D02*
D03*
X001031D02*
D03*
X001285Y002689D02*
D03*
X001031D02*
D03*
X001285Y002943D02*
D03*
X001031D02*
D03*
X001285Y003197D02*
D03*
X001031D02*
D03*
X001285Y003451D02*
D03*
X001031D02*
D03*
X001285Y003705D02*
D03*
X001031D02*
D03*
X001285Y003959D02*
D03*
X001031D02*
D03*
X001285Y004213D02*
D03*
X001031D02*
D03*
X001285Y004467D02*
D03*
X001031D02*
D03*
X001285Y004721D02*
D03*
X001031D02*
D03*
X001285Y004975D02*
D03*
X001031D02*
D03*
X001285Y005229D02*
D03*
X001031D02*
D03*
X001285Y005483D02*
D03*
X001031D02*
D03*
X001285Y005737D02*
D03*
X001031D02*
D03*
X001285Y005991D02*
D03*
X001031D02*
D03*
X001285Y006245D02*
D03*
X001031D02*
D03*
X001285Y006499D02*
D03*
X001031D02*
D03*
X001285Y006753D02*
D03*
X001031D02*
D03*
X001285Y007007D02*
D03*
X001031D02*
D03*
X001285Y007261D02*
D03*
X001031D02*
D03*
X001285Y007515D02*
D03*
X001031D02*
D03*
X001285Y007769D02*
D03*
X001031D02*
D03*
X000523Y001420D02*
D03*
X000777Y001674D02*
D03*
X000523D02*
D03*
X000777Y001928D02*
D03*
X000523D02*
D03*
X000777Y002182D02*
D03*
X000523D02*
D03*
X000777Y002436D02*
D03*
X000523D02*
D03*
X000777Y002690D02*
D03*
X000523D02*
D03*
X000777Y002944D02*
D03*
X000523D02*
D03*
X000777Y003198D02*
D03*
X000523D02*
D03*
X000777Y003452D02*
D03*
X000523D02*
D03*
X000777Y003706D02*
D03*
X000523D02*
D03*
X000777Y003960D02*
D03*
X000523D02*
D03*
X000777Y004214D02*
D03*
X000523D02*
D03*
X000777Y004468D02*
D03*
X000523D02*
D03*
X000777Y004722D02*
D03*
X000523D02*
D03*
X000777Y004976D02*
D03*
X000523D02*
D03*
X000777Y005230D02*
D03*
X000523D02*
D03*
X000777Y005484D02*
D03*
X000523D02*
D03*
X000777Y005738D02*
D03*
X000523D02*
D03*
X000777Y005992D02*
D03*
X000523D02*
D03*
X000777Y006246D02*
D03*
X000523D02*
D03*
X000777Y006500D02*
D03*
X000523D02*
D03*
X000777Y006754D02*
D03*
X000523D02*
D03*
X000777Y007008D02*
D03*
X000523D02*
D03*
X000777Y007262D02*
D03*
X000523D02*
D03*
X000777Y007516D02*
D03*
X000523D02*
D03*
X000777Y007770D02*
D03*
X000523D02*
D03*
X002640Y005215D02*
D03*
X003170Y005745D02*
D03*
X002640Y002215D02*
D03*
X003170Y002745D02*
D03*
X002440Y005415D02*
D03*
X002970Y005945D02*
D03*
X002970Y002945D02*
D03*
X002440Y002415D02*
D03*
D33*
X000523Y008271D02*
D03*
Y000906D02*
D03*
D34*
X001522Y008787D02*
D03*
X003187Y007063D02*
D03*
X002357Y000782D02*
D03*
X002379Y008273D02*
D03*
X003187Y004269D02*
D03*
X002738Y007914D02*
D03*
X003187Y002237D02*
D03*
X002200Y008453D02*
D03*
X002918Y007734D02*
D03*
X003187Y001983D02*
D03*
X002178Y000602D02*
D03*
X002020Y008632D02*
D03*
X003187Y007317D02*
D03*
X001268Y008787D02*
D03*
X001998Y000423D02*
D03*
X002559Y008093D02*
D03*
X003187Y003507D02*
D03*
X001527Y000290D02*
D03*
X003187Y004523D02*
D03*
Y001729D02*
D03*
X001818Y008786D02*
D03*
X003076Y001500D02*
D03*
X001781Y000290D02*
D03*
X003187Y004015D02*
D03*
Y003253D02*
D03*
X002537Y000962D02*
D03*
X001273Y000290D02*
D03*
X003187Y004777D02*
D03*
X002896Y001321D02*
D03*
X003187Y003761D02*
D03*
Y005285D02*
D03*
Y002491D02*
D03*
Y006047D02*
D03*
Y002999D02*
D03*
X003098Y007555D02*
D03*
X003187Y005031D02*
D03*
Y005539D02*
D03*
Y006809D02*
D03*
Y006555D02*
D03*
Y006301D02*
D03*
X002716Y001141D02*
D03*
D35*
X001595Y004415D02*
D03*
X002283Y004163D02*
D03*
X001665Y005115D02*
D03*
X002365Y007163D02*
D03*
X001715Y002065D02*
D03*
D36*
X002115Y007163D02*
D03*
X001940D02*
D03*
X001770Y006778D02*
D03*
X001595D02*
D03*
X002115Y004163D02*
D03*
X001940D02*
D03*
X001770Y003825D02*
D03*
X001595D02*
D03*
X001839Y003292D02*
D03*
X001926Y003381D02*
D03*
X002188Y003646D02*
D03*
X002275Y003735D02*
D03*
X002275Y006735D02*
D03*
X002188Y006646D02*
D03*
X001926Y006381D02*
D03*
X001839Y006292D02*
D03*
M02*
